<mxfile host="app.diagrams.net" agent="Mozilla/5.0 (X11; Linux x86_64) AppleWebKit/537.36 (KHTML, like Gecko) Chrome/127.0.0.0 Safari/537.36" version="24.7.7">
  <diagram name="Page-1" id="c3BF2ygDe9qbJUDc34sD">
    <mxGraphModel dx="10515" dy="10580" grid="1" gridSize="10" guides="1" tooltips="1" connect="1" arrows="1" fold="1" page="1" pageScale="2.5" pageWidth="850" pageHeight="1100" math="0" shadow="0">
      <root>
        <mxCell id="0" />
        <mxCell id="1" parent="0" />
        <mxCell id="1CUIqOdQTPRliHLXxzgB-677" value="" style="edgeStyle=orthogonalEdgeStyle;rounded=0;orthogonalLoop=1;jettySize=auto;html=1;strokeWidth=5;" parent="1" source="K3HkH2EL4yBhqLBcemKd-61" target="K3HkH2EL4yBhqLBcemKd-62" edge="1">
          <mxGeometry relative="1" as="geometry" />
        </mxCell>
        <mxCell id="K3HkH2EL4yBhqLBcemKd-61" value="&lt;font style=&quot;font-size: 50px;&quot;&gt;free(ptr)&lt;/font&gt;" style="rounded=0;whiteSpace=wrap;html=1;" parent="1" vertex="1">
          <mxGeometry x="1563" y="-7330" width="340" height="140" as="geometry" />
        </mxCell>
        <mxCell id="1CUIqOdQTPRliHLXxzgB-679" style="edgeStyle=orthogonalEdgeStyle;rounded=0;orthogonalLoop=1;jettySize=auto;html=1;entryX=0.5;entryY=0;entryDx=0;entryDy=0;strokeWidth=5;" parent="1" source="K3HkH2EL4yBhqLBcemKd-62" target="1CUIqOdQTPRliHLXxzgB-678" edge="1">
          <mxGeometry relative="1" as="geometry" />
        </mxCell>
        <mxCell id="K3HkH2EL4yBhqLBcemKd-62" value="&lt;font style=&quot;font-size: 50px;&quot;&gt;Size = metadataOfptr&lt;br&gt;index = indexOfmetadata Of ptr&lt;/font&gt;" style="rounded=0;whiteSpace=wrap;html=1;" parent="1" vertex="1">
          <mxGeometry x="1328" y="-7080" width="810" height="140" as="geometry" />
        </mxCell>
        <mxCell id="K3HkH2EL4yBhqLBcemKd-344" style="edgeStyle=orthogonalEdgeStyle;rounded=0;orthogonalLoop=1;jettySize=auto;html=1;exitX=0.5;exitY=1;exitDx=0;exitDy=0;entryX=0.5;entryY=0;entryDx=0;entryDy=0;strokeWidth=5;" parent="1" source="K3HkH2EL4yBhqLBcemKd-88" target="K3HkH2EL4yBhqLBcemKd-93" edge="1">
          <mxGeometry relative="1" as="geometry" />
        </mxCell>
        <mxCell id="K3HkH2EL4yBhqLBcemKd-88" value="&lt;span style=&quot;font-size: 45px; text-align: left;&quot;&gt;&amp;nbsp;between two freed blocks (tail is there)&lt;/span&gt;" style="rounded=0;whiteSpace=wrap;html=1;" parent="1" vertex="1">
          <mxGeometry x="2800" y="-6090" width="470" height="140" as="geometry" />
        </mxCell>
        <mxCell id="K3HkH2EL4yBhqLBcemKd-89" style="edgeStyle=orthogonalEdgeStyle;rounded=0;orthogonalLoop=1;jettySize=auto;html=1;exitX=0.5;exitY=1;exitDx=0;exitDy=0;strokeWidth=10;" parent="1" source="K3HkH2EL4yBhqLBcemKd-93" edge="1">
          <mxGeometry relative="1" as="geometry">
            <mxPoint x="3036" y="-5555" as="targetPoint" />
          </mxGeometry>
        </mxCell>
        <mxCell id="K3HkH2EL4yBhqLBcemKd-90" value="&lt;font style=&quot;font-size: 35px;&quot;&gt;Yes&lt;/font&gt;" style="edgeLabel;html=1;align=center;verticalAlign=middle;resizable=0;points=[];" parent="K3HkH2EL4yBhqLBcemKd-89" vertex="1" connectable="0">
          <mxGeometry x="-0.2844" y="-5" relative="1" as="geometry">
            <mxPoint y="1" as="offset" />
          </mxGeometry>
        </mxCell>
        <mxCell id="K3HkH2EL4yBhqLBcemKd-345" style="edgeStyle=orthogonalEdgeStyle;rounded=0;orthogonalLoop=1;jettySize=auto;html=1;entryX=0;entryY=0.5;entryDx=0;entryDy=0;strokeWidth=5;" parent="1" source="K3HkH2EL4yBhqLBcemKd-93" target="K3HkH2EL4yBhqLBcemKd-98" edge="1">
          <mxGeometry relative="1" as="geometry" />
        </mxCell>
        <mxCell id="1CUIqOdQTPRliHLXxzgB-48" value="&lt;font style=&quot;font-size: 35px;&quot;&gt;No&lt;/font&gt;" style="edgeLabel;html=1;align=center;verticalAlign=middle;resizable=0;points=[];" parent="K3HkH2EL4yBhqLBcemKd-345" vertex="1" connectable="0">
          <mxGeometry x="-0.136" y="17" relative="1" as="geometry">
            <mxPoint x="-1" as="offset" />
          </mxGeometry>
        </mxCell>
        <mxCell id="K3HkH2EL4yBhqLBcemKd-93" value="&lt;font style=&quot;font-size: 45px;&quot;&gt;Check Condition&lt;/font&gt;" style="rhombus;whiteSpace=wrap;html=1;" parent="1" vertex="1">
          <mxGeometry x="2895" y="-5895" width="280" height="200" as="geometry" />
        </mxCell>
        <mxCell id="K3HkH2EL4yBhqLBcemKd-346" style="edgeStyle=orthogonalEdgeStyle;rounded=0;orthogonalLoop=1;jettySize=auto;html=1;exitX=0.5;exitY=1;exitDx=0;exitDy=0;entryX=0.5;entryY=0;entryDx=0;entryDy=0;strokeWidth=5;" parent="1" source="K3HkH2EL4yBhqLBcemKd-98" target="K3HkH2EL4yBhqLBcemKd-106" edge="1">
          <mxGeometry relative="1" as="geometry" />
        </mxCell>
        <mxCell id="K3HkH2EL4yBhqLBcemKd-98" value="&lt;span style=&quot;font-size: 45px; text-align: left;&quot;&gt;target right to free block&lt;/span&gt;" style="rounded=0;whiteSpace=wrap;html=1;" parent="1" vertex="1">
          <mxGeometry x="3300" y="-5865" width="470" height="140" as="geometry" />
        </mxCell>
        <mxCell id="K3HkH2EL4yBhqLBcemKd-104" style="edgeStyle=orthogonalEdgeStyle;rounded=0;orthogonalLoop=1;jettySize=auto;html=1;exitX=0.5;exitY=1;exitDx=0;exitDy=0;strokeWidth=10;" parent="1" source="K3HkH2EL4yBhqLBcemKd-106" edge="1">
          <mxGeometry relative="1" as="geometry">
            <mxPoint x="3536" y="-5320" as="targetPoint" />
          </mxGeometry>
        </mxCell>
        <mxCell id="K3HkH2EL4yBhqLBcemKd-105" value="&lt;font style=&quot;font-size: 35px;&quot;&gt;Yes&lt;/font&gt;" style="edgeLabel;html=1;align=center;verticalAlign=middle;resizable=0;points=[];" parent="K3HkH2EL4yBhqLBcemKd-104" vertex="1" connectable="0">
          <mxGeometry x="-0.2844" y="-5" relative="1" as="geometry">
            <mxPoint y="1" as="offset" />
          </mxGeometry>
        </mxCell>
        <mxCell id="K3HkH2EL4yBhqLBcemKd-370" style="edgeStyle=orthogonalEdgeStyle;rounded=0;orthogonalLoop=1;jettySize=auto;html=1;entryX=0;entryY=0.5;entryDx=0;entryDy=0;" parent="1" source="K3HkH2EL4yBhqLBcemKd-106" target="K3HkH2EL4yBhqLBcemKd-115" edge="1">
          <mxGeometry relative="1" as="geometry" />
        </mxCell>
        <mxCell id="1CUIqOdQTPRliHLXxzgB-49" value="&lt;font style=&quot;font-size: 35px;&quot;&gt;No&lt;/font&gt;" style="edgeLabel;html=1;align=center;verticalAlign=middle;resizable=0;points=[];" parent="K3HkH2EL4yBhqLBcemKd-370" vertex="1" connectable="0">
          <mxGeometry x="-0.1259" y="-3" relative="1" as="geometry">
            <mxPoint x="-1" as="offset" />
          </mxGeometry>
        </mxCell>
        <mxCell id="K3HkH2EL4yBhqLBcemKd-106" value="&lt;font style=&quot;font-size: 45px;&quot;&gt;Check Condition&lt;/font&gt;" style="rhombus;whiteSpace=wrap;html=1;" parent="1" vertex="1">
          <mxGeometry x="3395" y="-5660" width="280" height="200" as="geometry" />
        </mxCell>
        <mxCell id="K3HkH2EL4yBhqLBcemKd-347" style="edgeStyle=orthogonalEdgeStyle;rounded=0;orthogonalLoop=1;jettySize=auto;html=1;strokeWidth=5;" parent="1" source="K3HkH2EL4yBhqLBcemKd-115" target="K3HkH2EL4yBhqLBcemKd-119" edge="1">
          <mxGeometry relative="1" as="geometry" />
        </mxCell>
        <mxCell id="K3HkH2EL4yBhqLBcemKd-115" value="&lt;span style=&quot;font-size: 45px; text-align: left;&quot;&gt;target left to free block (tail is there)&lt;/span&gt;" style="rounded=0;whiteSpace=wrap;html=1;" parent="1" vertex="1">
          <mxGeometry x="3810" y="-5630" width="470" height="140" as="geometry" />
        </mxCell>
        <mxCell id="K3HkH2EL4yBhqLBcemKd-117" style="edgeStyle=orthogonalEdgeStyle;rounded=0;orthogonalLoop=1;jettySize=auto;html=1;exitX=0.5;exitY=1;exitDx=0;exitDy=0;strokeWidth=10;" parent="1" source="K3HkH2EL4yBhqLBcemKd-119" edge="1">
          <mxGeometry relative="1" as="geometry">
            <mxPoint x="4046" y="-5065" as="targetPoint" />
          </mxGeometry>
        </mxCell>
        <mxCell id="K3HkH2EL4yBhqLBcemKd-118" value="&lt;font style=&quot;font-size: 35px;&quot;&gt;Yes&lt;/font&gt;" style="edgeLabel;html=1;align=center;verticalAlign=middle;resizable=0;points=[];" parent="K3HkH2EL4yBhqLBcemKd-117" vertex="1" connectable="0">
          <mxGeometry x="-0.2844" y="-5" relative="1" as="geometry">
            <mxPoint y="1" as="offset" />
          </mxGeometry>
        </mxCell>
        <mxCell id="K3HkH2EL4yBhqLBcemKd-348" style="edgeStyle=orthogonalEdgeStyle;rounded=0;orthogonalLoop=1;jettySize=auto;html=1;strokeWidth=5;" parent="1" source="K3HkH2EL4yBhqLBcemKd-119" target="K3HkH2EL4yBhqLBcemKd-287" edge="1">
          <mxGeometry relative="1" as="geometry" />
        </mxCell>
        <mxCell id="1CUIqOdQTPRliHLXxzgB-50" value="&lt;font style=&quot;font-size: 35px;&quot;&gt;No&lt;/font&gt;" style="edgeLabel;html=1;align=center;verticalAlign=middle;resizable=0;points=[];" parent="K3HkH2EL4yBhqLBcemKd-348" vertex="1" connectable="0">
          <mxGeometry x="0.024" y="-5" relative="1" as="geometry">
            <mxPoint x="-1" as="offset" />
          </mxGeometry>
        </mxCell>
        <mxCell id="K3HkH2EL4yBhqLBcemKd-119" value="&lt;font style=&quot;font-size: 45px;&quot;&gt;Check Condition&lt;/font&gt;" style="rhombus;whiteSpace=wrap;html=1;" parent="1" vertex="1">
          <mxGeometry x="3905" y="-5405" width="280" height="200" as="geometry" />
        </mxCell>
        <mxCell id="K3HkH2EL4yBhqLBcemKd-120" value="&lt;span style=&quot;font-size: 50px;&quot;&gt;case 3-4&lt;/span&gt;" style="rounded=0;whiteSpace=wrap;html=1;" parent="1" vertex="1">
          <mxGeometry x="3920" y="-5055" width="250" height="140" as="geometry" />
        </mxCell>
        <mxCell id="K3HkH2EL4yBhqLBcemKd-287" value="&lt;span style=&quot;font-size: 50px;&quot;&gt;error coniditon&lt;/span&gt;" style="rounded=0;whiteSpace=wrap;html=1;" parent="1" vertex="1">
          <mxGeometry x="4310" y="-5375" width="470" height="140" as="geometry" />
        </mxCell>
        <mxCell id="K3HkH2EL4yBhqLBcemKd-358" style="edgeStyle=orthogonalEdgeStyle;rounded=0;orthogonalLoop=1;jettySize=auto;html=1;strokeWidth=5;" parent="1" source="K3HkH2EL4yBhqLBcemKd-357" target="K3HkH2EL4yBhqLBcemKd-61" edge="1">
          <mxGeometry relative="1" as="geometry" />
        </mxCell>
        <mxCell id="K3HkH2EL4yBhqLBcemKd-357" value="&lt;font style=&quot;font-size: 45px;&quot;&gt;start&lt;/font&gt;" style="ellipse;whiteSpace=wrap;html=1;" parent="1" vertex="1">
          <mxGeometry x="1608" y="-7690" width="250" height="180" as="geometry" />
        </mxCell>
        <mxCell id="1CUIqOdQTPRliHLXxzgB-56" value="&lt;h1 style=&quot;margin-top: 0px; font-size: 45px;&quot;&gt;cases&lt;/h1&gt;&lt;p style=&quot;&quot;&gt;&lt;span style=&quot;font-size: 45px;&quot;&gt;1- target free pointer before head --&amp;gt; away from head , adjecent to head from left&lt;br&gt;2-&amp;nbsp;&lt;/span&gt;&lt;span style=&quot;font-size: 45px; background-color: initial;&quot;&gt;target free pointer after tail --&amp;gt; away from tail , adjecent to tail from right&lt;/span&gt;&lt;/p&gt;&lt;p style=&quot;&quot;&gt;&lt;span style=&quot;font-size: 45px;&quot;&gt;3-&amp;nbsp;&lt;/span&gt;&lt;span style=&quot;font-size: 45px; background-color: initial;&quot;&gt;target free pointer between head and tail &lt;br&gt;--&amp;gt; away from any freed block , between two freed blocks (tail is there), target right to free block, target left to free block (tail is there)&lt;/span&gt;&lt;/p&gt;" style="text;html=1;whiteSpace=wrap;overflow=hidden;rounded=0;" parent="1" vertex="1">
          <mxGeometry x="-5458" y="-7090" width="2669" height="360" as="geometry" />
        </mxCell>
        <mxCell id="1CUIqOdQTPRliHLXxzgB-92" value="" style="rounded=0;whiteSpace=wrap;html=1;" parent="1" vertex="1">
          <mxGeometry x="-5899" y="-5850" width="4090" height="60" as="geometry" />
        </mxCell>
        <mxCell id="1CUIqOdQTPRliHLXxzgB-94" value="&lt;span style=&quot;font-size: 35px;&quot;&gt;b&lt;/span&gt;" style="rounded=0;whiteSpace=wrap;html=1;fillColor=#0050ef;strokeColor=#001DBC;fontColor=#ffffff;" parent="1" vertex="1">
          <mxGeometry x="-5299" y="-5850" width="60" height="60" as="geometry" />
        </mxCell>
        <mxCell id="1CUIqOdQTPRliHLXxzgB-95" value="&lt;font style=&quot;font-size: 50px;&quot;&gt;y&lt;/font&gt;" style="text;html=1;align=center;verticalAlign=middle;whiteSpace=wrap;rounded=0;fillColor=#0050ef;fontColor=#ffffff;strokeColor=#001DBC;" parent="1" vertex="1">
          <mxGeometry x="-5409" y="-5690" width="170" height="70" as="geometry" />
        </mxCell>
        <mxCell id="1CUIqOdQTPRliHLXxzgB-96" value="" style="rounded=0;whiteSpace=wrap;html=1;" parent="1" vertex="1">
          <mxGeometry x="-5179" y="-5850" width="180" height="60" as="geometry" />
        </mxCell>
        <mxCell id="1CUIqOdQTPRliHLXxzgB-97" value="&lt;span style=&quot;font-size: 35px;&quot;&gt;X&lt;/span&gt;" style="rounded=0;whiteSpace=wrap;html=1;fillColor=#fff2cc;strokeColor=#d6b656;" parent="1" vertex="1">
          <mxGeometry x="-5239" y="-5850" width="60" height="60" as="geometry" />
        </mxCell>
        <mxCell id="1CUIqOdQTPRliHLXxzgB-98" value="&lt;span style=&quot;font-size: 35px;&quot;&gt;md&lt;/span&gt;" style="rounded=0;whiteSpace=wrap;html=1;fillColor=#fff2cc;strokeColor=#d6b656;" parent="1" vertex="1">
          <mxGeometry x="-5359" y="-5850" width="60" height="60" as="geometry" />
        </mxCell>
        <mxCell id="1CUIqOdQTPRliHLXxzgB-99" value="" style="endArrow=classic;html=1;rounded=0;" parent="1" edge="1">
          <mxGeometry width="50" height="50" relative="1" as="geometry">
            <mxPoint x="-5319" y="-5730" as="sourcePoint" />
            <mxPoint x="-5319" y="-5790" as="targetPoint" />
          </mxGeometry>
        </mxCell>
        <mxCell id="1CUIqOdQTPRliHLXxzgB-100" value="&lt;span style=&quot;font-size: 50px;&quot;&gt;break&lt;/span&gt;" style="text;html=1;align=center;verticalAlign=middle;whiteSpace=wrap;rounded=0;" parent="1" vertex="1">
          <mxGeometry x="-1969" y="-5700" width="170" height="70" as="geometry" />
        </mxCell>
        <mxCell id="1CUIqOdQTPRliHLXxzgB-101" value="&lt;font style=&quot;font-size: 35px;&quot;&gt;md&lt;/font&gt;" style="rounded=0;whiteSpace=wrap;html=1;fillColor=#fff2cc;strokeColor=#d6b656;" parent="1" vertex="1">
          <mxGeometry x="-5899" y="-5850" width="70" height="60" as="geometry" />
        </mxCell>
        <mxCell id="1CUIqOdQTPRliHLXxzgB-102" value="" style="endArrow=classic;html=1;rounded=0;" parent="1" edge="1">
          <mxGeometry width="50" height="50" relative="1" as="geometry">
            <mxPoint x="-1890" y="-5720" as="sourcePoint" />
            <mxPoint x="-1890" y="-5780" as="targetPoint" />
          </mxGeometry>
        </mxCell>
        <mxCell id="1CUIqOdQTPRliHLXxzgB-103" value="" style="rounded=0;whiteSpace=wrap;html=1;fillColor=#fff2cc;strokeColor=#d6b656;" parent="1" vertex="1">
          <mxGeometry x="-1919" y="-5850" width="60" height="60" as="geometry" />
        </mxCell>
        <mxCell id="1CUIqOdQTPRliHLXxzgB-104" value="" style="rounded=0;whiteSpace=wrap;html=1;fillColor=#008a00;fontColor=#ffffff;strokeColor=#005700;" parent="1" vertex="1">
          <mxGeometry x="-4268" y="-5850" width="200" height="60" as="geometry" />
        </mxCell>
        <mxCell id="1CUIqOdQTPRliHLXxzgB-105" value="&lt;font style=&quot;font-size: 35px;&quot;&gt;md&lt;/font&gt;" style="rounded=0;whiteSpace=wrap;html=1;fillColor=#fff2cc;strokeColor=#d6b656;" parent="1" vertex="1">
          <mxGeometry x="-4338" y="-5850" width="70" height="60" as="geometry" />
        </mxCell>
        <mxCell id="1CUIqOdQTPRliHLXxzgB-106" value="&lt;span style=&quot;font-size: 35px;&quot;&gt;x&lt;/span&gt;" style="rounded=0;whiteSpace=wrap;html=1;fillColor=#fff2cc;strokeColor=#d6b656;" parent="1" vertex="1">
          <mxGeometry x="-4008" y="-5850" width="60" height="60" as="geometry" />
        </mxCell>
        <mxCell id="1CUIqOdQTPRliHLXxzgB-107" value="&lt;span style=&quot;font-size: 35px;&quot;&gt;z&lt;/span&gt;" style="text;html=1;align=center;verticalAlign=middle;whiteSpace=wrap;rounded=0;" parent="1" vertex="1">
          <mxGeometry x="-4118" y="-5690" width="170" height="70" as="geometry" />
        </mxCell>
        <mxCell id="1CUIqOdQTPRliHLXxzgB-108" value="&lt;span style=&quot;font-size: 35px;&quot;&gt;a&lt;/span&gt;" style="rounded=0;whiteSpace=wrap;html=1;fillColor=#fff2cc;strokeColor=#d6b656;" parent="1" vertex="1">
          <mxGeometry x="-3948" y="-5850" width="60" height="60" as="geometry" />
        </mxCell>
        <mxCell id="1CUIqOdQTPRliHLXxzgB-109" value="&lt;span style=&quot;font-size: 35px;&quot;&gt;md&lt;/span&gt;" style="rounded=0;whiteSpace=wrap;html=1;fillColor=#fff2cc;strokeColor=#d6b656;" parent="1" vertex="1">
          <mxGeometry x="-4068" y="-5850" width="60" height="60" as="geometry" />
        </mxCell>
        <mxCell id="1CUIqOdQTPRliHLXxzgB-110" value="" style="endArrow=classic;html=1;rounded=0;" parent="1" edge="1">
          <mxGeometry width="50" height="50" relative="1" as="geometry">
            <mxPoint x="-4028" y="-5730" as="sourcePoint" />
            <mxPoint x="-4028" y="-5790" as="targetPoint" />
          </mxGeometry>
        </mxCell>
        <mxCell id="1CUIqOdQTPRliHLXxzgB-111" value="" style="rounded=0;whiteSpace=wrap;html=1;fillColor=#008a00;fontColor=#ffffff;strokeColor=#005700;" parent="1" vertex="1">
          <mxGeometry x="-3133" y="-5850" width="200" height="60" as="geometry" />
        </mxCell>
        <mxCell id="1CUIqOdQTPRliHLXxzgB-112" value="&lt;font style=&quot;font-size: 35px;&quot;&gt;md&lt;/font&gt;" style="rounded=0;whiteSpace=wrap;html=1;fillColor=#fff2cc;strokeColor=#d6b656;" parent="1" vertex="1">
          <mxGeometry x="-3203" y="-5850" width="70" height="60" as="geometry" />
        </mxCell>
        <mxCell id="1CUIqOdQTPRliHLXxzgB-113" value="&lt;span style=&quot;font-size: 35px;&quot;&gt;z&lt;/span&gt;" style="rounded=0;whiteSpace=wrap;html=1;fillColor=#fff2cc;strokeColor=#d6b656;" parent="1" vertex="1">
          <mxGeometry x="-2869" y="-5850" width="60" height="60" as="geometry" />
        </mxCell>
        <mxCell id="1CUIqOdQTPRliHLXxzgB-114" value="&lt;font style=&quot;font-size: 50px;&quot;&gt;Tail&lt;br&gt;a&lt;/font&gt;" style="text;html=1;align=center;verticalAlign=middle;whiteSpace=wrap;rounded=0;" parent="1" vertex="1">
          <mxGeometry x="-2979" y="-5690" width="170" height="70" as="geometry" />
        </mxCell>
        <mxCell id="1CUIqOdQTPRliHLXxzgB-115" value="" style="rounded=0;whiteSpace=wrap;html=1;" parent="1" vertex="1">
          <mxGeometry x="-2749" y="-5850" width="140" height="60" as="geometry" />
        </mxCell>
        <mxCell id="1CUIqOdQTPRliHLXxzgB-116" value="&lt;span style=&quot;font-size: 35px;&quot;&gt;!&lt;/span&gt;" style="rounded=0;whiteSpace=wrap;html=1;fillColor=#fff2cc;strokeColor=#d6b656;" parent="1" vertex="1">
          <mxGeometry x="-2809" y="-5850" width="60" height="60" as="geometry" />
        </mxCell>
        <mxCell id="1CUIqOdQTPRliHLXxzgB-117" value="&lt;span style=&quot;font-size: 35px;&quot;&gt;md&lt;/span&gt;" style="rounded=0;whiteSpace=wrap;html=1;fillColor=#fff2cc;strokeColor=#d6b656;" parent="1" vertex="1">
          <mxGeometry x="-2929" y="-5850" width="60" height="60" as="geometry" />
        </mxCell>
        <mxCell id="1CUIqOdQTPRliHLXxzgB-118" value="" style="endArrow=classic;html=1;rounded=0;" parent="1" edge="1">
          <mxGeometry width="50" height="50" relative="1" as="geometry">
            <mxPoint x="-2889" y="-5730" as="sourcePoint" />
            <mxPoint x="-2889" y="-5790" as="targetPoint" />
          </mxGeometry>
        </mxCell>
        <mxCell id="1CUIqOdQTPRliHLXxzgB-119" value="" style="rounded=0;whiteSpace=wrap;html=1;fillColor=#008a00;fontColor=#ffffff;strokeColor=#005700;" parent="1" vertex="1">
          <mxGeometry x="-5559" y="-5850" width="200" height="60" as="geometry" />
        </mxCell>
        <mxCell id="1CUIqOdQTPRliHLXxzgB-120" value="&lt;font style=&quot;font-size: 35px;&quot;&gt;md&lt;/font&gt;" style="rounded=0;whiteSpace=wrap;html=1;fillColor=#fff2cc;strokeColor=#d6b656;" parent="1" vertex="1">
          <mxGeometry x="-5629" y="-5850" width="70" height="60" as="geometry" />
        </mxCell>
        <mxCell id="1CUIqOdQTPRliHLXxzgB-121" value="" style="rounded=0;whiteSpace=wrap;html=1;fillColor=#008a00;fontColor=#ffffff;strokeColor=#005700;" parent="1" vertex="1">
          <mxGeometry x="-2539" y="-5850" width="200" height="60" as="geometry" />
        </mxCell>
        <mxCell id="1CUIqOdQTPRliHLXxzgB-122" value="&lt;font style=&quot;font-size: 35px;&quot;&gt;md&lt;/font&gt;" style="rounded=0;whiteSpace=wrap;html=1;fillColor=#fff2cc;strokeColor=#d6b656;" parent="1" vertex="1">
          <mxGeometry x="-2609" y="-5850" width="70" height="60" as="geometry" />
        </mxCell>
        <mxCell id="1CUIqOdQTPRliHLXxzgB-123" value="" style="rounded=0;whiteSpace=wrap;html=1;fillColor=#008a00;fontColor=#ffffff;strokeColor=#005700;" parent="1" vertex="1">
          <mxGeometry x="-2269" y="-5850" width="350" height="60" as="geometry" />
        </mxCell>
        <mxCell id="1CUIqOdQTPRliHLXxzgB-124" value="&lt;font style=&quot;font-size: 35px;&quot;&gt;md&lt;/font&gt;" style="rounded=0;whiteSpace=wrap;html=1;fillColor=#fff2cc;strokeColor=#d6b656;" parent="1" vertex="1">
          <mxGeometry x="-2339" y="-5850" width="70" height="60" as="geometry" />
        </mxCell>
        <mxCell id="1CUIqOdQTPRliHLXxzgB-125" value="&lt;span style=&quot;font-size: 35px;&quot;&gt;y&lt;/span&gt;" style="rounded=0;whiteSpace=wrap;html=1;fillColor=#fff2cc;strokeColor=#d6b656;" parent="1" vertex="1">
          <mxGeometry x="-4673" y="-5850" width="60" height="60" as="geometry" />
        </mxCell>
        <mxCell id="1CUIqOdQTPRliHLXxzgB-126" value="" style="rounded=0;whiteSpace=wrap;html=1;" parent="1" vertex="1">
          <mxGeometry x="-4553" y="-5850" width="210" height="60" as="geometry" />
        </mxCell>
        <mxCell id="1CUIqOdQTPRliHLXxzgB-127" value="&lt;span style=&quot;font-size: 35px;&quot;&gt;z&lt;/span&gt;" style="rounded=0;whiteSpace=wrap;html=1;fillColor=#fff2cc;strokeColor=#d6b656;" parent="1" vertex="1">
          <mxGeometry x="-4613" y="-5850" width="60" height="60" as="geometry" />
        </mxCell>
        <mxCell id="1CUIqOdQTPRliHLXxzgB-128" value="" style="endArrow=classic;html=1;rounded=0;" parent="1" edge="1">
          <mxGeometry width="50" height="50" relative="1" as="geometry">
            <mxPoint x="-4693" y="-5730" as="sourcePoint" />
            <mxPoint x="-4693" y="-5790" as="targetPoint" />
          </mxGeometry>
        </mxCell>
        <mxCell id="1CUIqOdQTPRliHLXxzgB-129" value="&lt;font style=&quot;font-size: 35px;&quot;&gt;X&lt;/font&gt;" style="text;html=1;align=center;verticalAlign=middle;whiteSpace=wrap;rounded=0;" parent="1" vertex="1">
          <mxGeometry x="-4779" y="-5725" width="170" height="70" as="geometry" />
        </mxCell>
        <mxCell id="1CUIqOdQTPRliHLXxzgB-130" value="&lt;span style=&quot;font-size: 35px;&quot;&gt;md&lt;/span&gt;" style="rounded=0;whiteSpace=wrap;html=1;fillColor=#fff2cc;strokeColor=#d6b656;" parent="1" vertex="1">
          <mxGeometry x="-4733" y="-5850" width="60" height="60" as="geometry" />
        </mxCell>
        <mxCell id="1CUIqOdQTPRliHLXxzgB-131" value="" style="rounded=0;whiteSpace=wrap;html=1;fillColor=#008a00;fontColor=#ffffff;strokeColor=#005700;" parent="1" vertex="1">
          <mxGeometry x="-4929" y="-5850" width="200" height="60" as="geometry" />
        </mxCell>
        <mxCell id="1CUIqOdQTPRliHLXxzgB-132" value="&lt;font style=&quot;font-size: 35px;&quot;&gt;md&lt;/font&gt;" style="rounded=0;whiteSpace=wrap;html=1;fillColor=#fff2cc;strokeColor=#d6b656;" parent="1" vertex="1">
          <mxGeometry x="-4999" y="-5850" width="70" height="60" as="geometry" />
        </mxCell>
        <mxCell id="1CUIqOdQTPRliHLXxzgB-133" value="" style="rounded=0;whiteSpace=wrap;html=1;fillColor=#008a00;fontColor=#ffffff;strokeColor=#005700;" parent="1" vertex="1">
          <mxGeometry x="-3678" y="-5850" width="200" height="60" as="geometry" />
        </mxCell>
        <mxCell id="1CUIqOdQTPRliHLXxzgB-134" value="&lt;font style=&quot;font-size: 35px;&quot;&gt;md&lt;/font&gt;" style="rounded=0;whiteSpace=wrap;html=1;fillColor=#fff2cc;strokeColor=#d6b656;" parent="1" vertex="1">
          <mxGeometry x="-3748" y="-5850" width="70" height="60" as="geometry" />
        </mxCell>
        <mxCell id="1CUIqOdQTPRliHLXxzgB-135" value="" style="rounded=0;whiteSpace=wrap;html=1;fillColor=#008a00;fontColor=#ffffff;strokeColor=#005700;" parent="1" vertex="1">
          <mxGeometry x="-3408" y="-5850" width="200" height="60" as="geometry" />
        </mxCell>
        <mxCell id="1CUIqOdQTPRliHLXxzgB-136" value="&lt;font style=&quot;font-size: 35px;&quot;&gt;md&lt;/font&gt;" style="rounded=0;whiteSpace=wrap;html=1;fillColor=#fff2cc;strokeColor=#d6b656;" parent="1" vertex="1">
          <mxGeometry x="-3478" y="-5850" width="70" height="60" as="geometry" />
        </mxCell>
        <mxCell id="1CUIqOdQTPRliHLXxzgB-137" value="&lt;span style=&quot;font-size: 50px;&quot;&gt;Head&lt;/span&gt;&lt;span style=&quot;font-size: 50px;&quot;&gt;&lt;br&gt;b&lt;/span&gt;" style="text;html=1;align=center;verticalAlign=middle;whiteSpace=wrap;rounded=0;fillColor=#0050ef;fontColor=#ffffff;strokeColor=#001DBC;" parent="1" vertex="1">
          <mxGeometry x="-5959" y="-5690" width="180" height="110" as="geometry" />
        </mxCell>
        <mxCell id="1CUIqOdQTPRliHLXxzgB-138" value="" style="endArrow=classic;html=1;rounded=0;" parent="1" edge="1">
          <mxGeometry width="50" height="50" relative="1" as="geometry">
            <mxPoint x="-5869" y="-5730" as="sourcePoint" />
            <mxPoint x="-5869" y="-5790" as="targetPoint" />
          </mxGeometry>
        </mxCell>
        <mxCell id="1CUIqOdQTPRliHLXxzgB-139" value="&lt;span style=&quot;font-size: 50px;&quot;&gt;index2&lt;/span&gt;" style="text;html=1;align=center;verticalAlign=middle;whiteSpace=wrap;rounded=0;" parent="1" vertex="1">
          <mxGeometry x="-5679" y="-5690" width="170" height="70" as="geometry" />
        </mxCell>
        <mxCell id="1CUIqOdQTPRliHLXxzgB-140" value="" style="endArrow=classic;html=1;rounded=0;" parent="1" edge="1">
          <mxGeometry width="50" height="50" relative="1" as="geometry">
            <mxPoint x="-5589" y="-5730" as="sourcePoint" />
            <mxPoint x="-5589" y="-5790" as="targetPoint" />
          </mxGeometry>
        </mxCell>
        <mxCell id="1CUIqOdQTPRliHLXxzgB-141" value="&lt;span style=&quot;font-size: 50px;&quot;&gt;index3&lt;/span&gt;" style="text;html=1;align=center;verticalAlign=middle;whiteSpace=wrap;rounded=0;" parent="1" vertex="1">
          <mxGeometry x="-5049" y="-5690" width="170" height="70" as="geometry" />
        </mxCell>
        <mxCell id="1CUIqOdQTPRliHLXxzgB-142" value="" style="endArrow=classic;html=1;rounded=0;" parent="1" edge="1">
          <mxGeometry width="50" height="50" relative="1" as="geometry">
            <mxPoint x="-4959" y="-5730" as="sourcePoint" />
            <mxPoint x="-4959" y="-5790" as="targetPoint" />
          </mxGeometry>
        </mxCell>
        <mxCell id="1CUIqOdQTPRliHLXxzgB-143" value="&lt;span style=&quot;font-size: 50px;&quot;&gt;index4&lt;/span&gt;" style="text;html=1;align=center;verticalAlign=middle;whiteSpace=wrap;rounded=0;" parent="1" vertex="1">
          <mxGeometry x="-4388" y="-5690" width="170" height="70" as="geometry" />
        </mxCell>
        <mxCell id="1CUIqOdQTPRliHLXxzgB-144" value="" style="endArrow=classic;html=1;rounded=0;" parent="1" edge="1">
          <mxGeometry width="50" height="50" relative="1" as="geometry">
            <mxPoint x="-4298" y="-5730" as="sourcePoint" />
            <mxPoint x="-4298" y="-5790" as="targetPoint" />
          </mxGeometry>
        </mxCell>
        <mxCell id="1CUIqOdQTPRliHLXxzgB-145" value="&lt;span style=&quot;font-size: 50px;&quot;&gt;index5&lt;/span&gt;" style="text;html=1;align=center;verticalAlign=middle;whiteSpace=wrap;rounded=0;" parent="1" vertex="1">
          <mxGeometry x="-3539" y="-5690" width="170" height="70" as="geometry" />
        </mxCell>
        <mxCell id="1CUIqOdQTPRliHLXxzgB-146" value="" style="endArrow=classic;html=1;rounded=0;" parent="1" edge="1">
          <mxGeometry width="50" height="50" relative="1" as="geometry">
            <mxPoint x="-3449" y="-5730" as="sourcePoint" />
            <mxPoint x="-3449" y="-5790" as="targetPoint" />
          </mxGeometry>
        </mxCell>
        <mxCell id="1CUIqOdQTPRliHLXxzgB-147" value="&lt;span style=&quot;font-size: 50px;&quot;&gt;index6&lt;/span&gt;" style="text;html=1;align=center;verticalAlign=middle;whiteSpace=wrap;rounded=0;" parent="1" vertex="1">
          <mxGeometry x="-3253" y="-5690" width="170" height="70" as="geometry" />
        </mxCell>
        <mxCell id="1CUIqOdQTPRliHLXxzgB-148" value="" style="endArrow=classic;html=1;rounded=0;" parent="1" edge="1">
          <mxGeometry width="50" height="50" relative="1" as="geometry">
            <mxPoint x="-3163" y="-5730" as="sourcePoint" />
            <mxPoint x="-3163" y="-5790" as="targetPoint" />
          </mxGeometry>
        </mxCell>
        <mxCell id="1CUIqOdQTPRliHLXxzgB-149" value="&lt;span style=&quot;font-size: 50px;&quot;&gt;index7&lt;/span&gt;" style="text;html=1;align=center;verticalAlign=middle;whiteSpace=wrap;rounded=0;" parent="1" vertex="1">
          <mxGeometry x="-2673" y="-5690" width="170" height="70" as="geometry" />
        </mxCell>
        <mxCell id="1CUIqOdQTPRliHLXxzgB-150" value="" style="endArrow=classic;html=1;rounded=0;" parent="1" edge="1">
          <mxGeometry width="50" height="50" relative="1" as="geometry">
            <mxPoint x="-2583" y="-5730" as="sourcePoint" />
            <mxPoint x="-2583" y="-5790" as="targetPoint" />
          </mxGeometry>
        </mxCell>
        <mxCell id="1CUIqOdQTPRliHLXxzgB-151" value="&lt;span style=&quot;font-size: 50px;&quot;&gt;index8&lt;/span&gt;" style="text;html=1;align=center;verticalAlign=middle;whiteSpace=wrap;rounded=0;" parent="1" vertex="1">
          <mxGeometry x="-2389" y="-5690" width="170" height="70" as="geometry" />
        </mxCell>
        <mxCell id="1CUIqOdQTPRliHLXxzgB-152" value="" style="endArrow=classic;html=1;rounded=0;" parent="1" edge="1">
          <mxGeometry width="50" height="50" relative="1" as="geometry">
            <mxPoint x="-2299" y="-5730" as="sourcePoint" />
            <mxPoint x="-2299" y="-5790" as="targetPoint" />
          </mxGeometry>
        </mxCell>
        <mxCell id="1CUIqOdQTPRliHLXxzgB-153" value="&lt;span style=&quot;font-size: 35px;&quot;&gt;!&lt;/span&gt;" style="rounded=0;whiteSpace=wrap;html=1;fillColor=#0050ef;strokeColor=#001DBC;fontColor=#ffffff;" parent="1" vertex="1">
          <mxGeometry x="-5829" y="-5850" width="60" height="60" as="geometry" />
        </mxCell>
        <mxCell id="1CUIqOdQTPRliHLXxzgB-154" value="&lt;span style=&quot;font-size: 35px;&quot;&gt;y&lt;/span&gt;" style="rounded=0;whiteSpace=wrap;html=1;fillColor=#0050ef;strokeColor=#001DBC;fontColor=#ffffff;" parent="1" vertex="1">
          <mxGeometry x="-5769" y="-5850" width="60" height="60" as="geometry" />
        </mxCell>
        <mxCell id="1CUIqOdQTPRliHLXxzgB-156" value="" style="rounded=0;whiteSpace=wrap;html=1;" parent="1" vertex="1">
          <mxGeometry x="-5899" y="-5400" width="4090" height="60" as="geometry" />
        </mxCell>
        <mxCell id="1CUIqOdQTPRliHLXxzgB-157" value="" style="rounded=0;whiteSpace=wrap;html=1;fillColor=#008a00;fontColor=#ffffff;strokeColor=#005700;" parent="1" vertex="1">
          <mxGeometry x="-5829" y="-5400" width="200" height="60" as="geometry" />
        </mxCell>
        <mxCell id="1CUIqOdQTPRliHLXxzgB-160" value="" style="rounded=0;whiteSpace=wrap;html=1;" parent="1" vertex="1">
          <mxGeometry x="-5439" y="-5400" width="440" height="60" as="geometry" />
        </mxCell>
        <mxCell id="1CUIqOdQTPRliHLXxzgB-164" value="&lt;span style=&quot;font-size: 50px;&quot;&gt;break&lt;/span&gt;" style="text;html=1;align=center;verticalAlign=middle;whiteSpace=wrap;rounded=0;" parent="1" vertex="1">
          <mxGeometry x="-1969" y="-5250" width="170" height="70" as="geometry" />
        </mxCell>
        <mxCell id="1CUIqOdQTPRliHLXxzgB-165" value="&lt;font style=&quot;font-size: 35px;&quot;&gt;md&lt;/font&gt;" style="rounded=0;whiteSpace=wrap;html=1;fillColor=#fff2cc;strokeColor=#d6b656;" parent="1" vertex="1">
          <mxGeometry x="-5899" y="-5400" width="70" height="60" as="geometry" />
        </mxCell>
        <mxCell id="1CUIqOdQTPRliHLXxzgB-166" value="" style="endArrow=classic;html=1;rounded=0;" parent="1" edge="1">
          <mxGeometry width="50" height="50" relative="1" as="geometry">
            <mxPoint x="-1890" y="-5270" as="sourcePoint" />
            <mxPoint x="-1890" y="-5330" as="targetPoint" />
          </mxGeometry>
        </mxCell>
        <mxCell id="1CUIqOdQTPRliHLXxzgB-167" value="" style="rounded=0;whiteSpace=wrap;html=1;fillColor=#fff2cc;strokeColor=#d6b656;" parent="1" vertex="1">
          <mxGeometry x="-1919" y="-5400" width="60" height="60" as="geometry" />
        </mxCell>
        <mxCell id="1CUIqOdQTPRliHLXxzgB-168" value="" style="rounded=0;whiteSpace=wrap;html=1;fillColor=#008a00;fontColor=#ffffff;strokeColor=#005700;" parent="1" vertex="1">
          <mxGeometry x="-4268" y="-5400" width="200" height="60" as="geometry" />
        </mxCell>
        <mxCell id="1CUIqOdQTPRliHLXxzgB-169" value="&lt;font style=&quot;font-size: 35px;&quot;&gt;md&lt;/font&gt;" style="rounded=0;whiteSpace=wrap;html=1;fillColor=#fff2cc;strokeColor=#d6b656;" parent="1" vertex="1">
          <mxGeometry x="-4338" y="-5400" width="70" height="60" as="geometry" />
        </mxCell>
        <mxCell id="1CUIqOdQTPRliHLXxzgB-170" value="&lt;span style=&quot;font-size: 35px;&quot;&gt;x&lt;/span&gt;" style="rounded=0;whiteSpace=wrap;html=1;fillColor=#fff2cc;strokeColor=#d6b656;" parent="1" vertex="1">
          <mxGeometry x="-4008" y="-5400" width="60" height="60" as="geometry" />
        </mxCell>
        <mxCell id="1CUIqOdQTPRliHLXxzgB-171" value="&lt;span style=&quot;font-size: 35px;&quot;&gt;z&lt;/span&gt;" style="text;html=1;align=center;verticalAlign=middle;whiteSpace=wrap;rounded=0;" parent="1" vertex="1">
          <mxGeometry x="-4118" y="-5240" width="170" height="70" as="geometry" />
        </mxCell>
        <mxCell id="1CUIqOdQTPRliHLXxzgB-172" value="&lt;span style=&quot;font-size: 35px;&quot;&gt;a&lt;/span&gt;" style="rounded=0;whiteSpace=wrap;html=1;fillColor=#fff2cc;strokeColor=#d6b656;" parent="1" vertex="1">
          <mxGeometry x="-3948" y="-5400" width="60" height="60" as="geometry" />
        </mxCell>
        <mxCell id="1CUIqOdQTPRliHLXxzgB-173" value="&lt;span style=&quot;font-size: 35px;&quot;&gt;md&lt;/span&gt;" style="rounded=0;whiteSpace=wrap;html=1;fillColor=#fff2cc;strokeColor=#d6b656;" parent="1" vertex="1">
          <mxGeometry x="-4068" y="-5400" width="60" height="60" as="geometry" />
        </mxCell>
        <mxCell id="1CUIqOdQTPRliHLXxzgB-174" value="" style="endArrow=classic;html=1;rounded=0;" parent="1" edge="1">
          <mxGeometry width="50" height="50" relative="1" as="geometry">
            <mxPoint x="-4028" y="-5280" as="sourcePoint" />
            <mxPoint x="-4028" y="-5340" as="targetPoint" />
          </mxGeometry>
        </mxCell>
        <mxCell id="1CUIqOdQTPRliHLXxzgB-175" value="" style="rounded=0;whiteSpace=wrap;html=1;fillColor=#008a00;fontColor=#ffffff;strokeColor=#005700;" parent="1" vertex="1">
          <mxGeometry x="-3133" y="-5400" width="200" height="60" as="geometry" />
        </mxCell>
        <mxCell id="1CUIqOdQTPRliHLXxzgB-176" value="&lt;font style=&quot;font-size: 35px;&quot;&gt;md&lt;/font&gt;" style="rounded=0;whiteSpace=wrap;html=1;fillColor=#fff2cc;strokeColor=#d6b656;" parent="1" vertex="1">
          <mxGeometry x="-3203" y="-5400" width="70" height="60" as="geometry" />
        </mxCell>
        <mxCell id="1CUIqOdQTPRliHLXxzgB-177" value="&lt;span style=&quot;font-size: 35px;&quot;&gt;z&lt;/span&gt;" style="rounded=0;whiteSpace=wrap;html=1;fillColor=#fff2cc;strokeColor=#d6b656;" parent="1" vertex="1">
          <mxGeometry x="-2869" y="-5400" width="60" height="60" as="geometry" />
        </mxCell>
        <mxCell id="1CUIqOdQTPRliHLXxzgB-178" value="&lt;font style=&quot;font-size: 50px;&quot;&gt;Tail&lt;br&gt;a&lt;/font&gt;" style="text;html=1;align=center;verticalAlign=middle;whiteSpace=wrap;rounded=0;" parent="1" vertex="1">
          <mxGeometry x="-2979" y="-5240" width="170" height="70" as="geometry" />
        </mxCell>
        <mxCell id="1CUIqOdQTPRliHLXxzgB-179" value="" style="rounded=0;whiteSpace=wrap;html=1;" parent="1" vertex="1">
          <mxGeometry x="-2749" y="-5400" width="140" height="60" as="geometry" />
        </mxCell>
        <mxCell id="1CUIqOdQTPRliHLXxzgB-180" value="&lt;span style=&quot;font-size: 35px;&quot;&gt;!&lt;/span&gt;" style="rounded=0;whiteSpace=wrap;html=1;fillColor=#fff2cc;strokeColor=#d6b656;" parent="1" vertex="1">
          <mxGeometry x="-2809" y="-5400" width="60" height="60" as="geometry" />
        </mxCell>
        <mxCell id="1CUIqOdQTPRliHLXxzgB-181" value="&lt;span style=&quot;font-size: 35px;&quot;&gt;md&lt;/span&gt;" style="rounded=0;whiteSpace=wrap;html=1;fillColor=#fff2cc;strokeColor=#d6b656;" parent="1" vertex="1">
          <mxGeometry x="-2929" y="-5400" width="60" height="60" as="geometry" />
        </mxCell>
        <mxCell id="1CUIqOdQTPRliHLXxzgB-182" value="" style="endArrow=classic;html=1;rounded=0;" parent="1" edge="1">
          <mxGeometry width="50" height="50" relative="1" as="geometry">
            <mxPoint x="-2889" y="-5280" as="sourcePoint" />
            <mxPoint x="-2889" y="-5340" as="targetPoint" />
          </mxGeometry>
        </mxCell>
        <mxCell id="1CUIqOdQTPRliHLXxzgB-185" value="" style="rounded=0;whiteSpace=wrap;html=1;fillColor=#008a00;fontColor=#ffffff;strokeColor=#005700;" parent="1" vertex="1">
          <mxGeometry x="-2539" y="-5400" width="200" height="60" as="geometry" />
        </mxCell>
        <mxCell id="1CUIqOdQTPRliHLXxzgB-186" value="&lt;font style=&quot;font-size: 35px;&quot;&gt;md&lt;/font&gt;" style="rounded=0;whiteSpace=wrap;html=1;fillColor=#fff2cc;strokeColor=#d6b656;" parent="1" vertex="1">
          <mxGeometry x="-2609" y="-5400" width="70" height="60" as="geometry" />
        </mxCell>
        <mxCell id="1CUIqOdQTPRliHLXxzgB-187" value="" style="rounded=0;whiteSpace=wrap;html=1;fillColor=#008a00;fontColor=#ffffff;strokeColor=#005700;" parent="1" vertex="1">
          <mxGeometry x="-2269" y="-5400" width="350" height="60" as="geometry" />
        </mxCell>
        <mxCell id="1CUIqOdQTPRliHLXxzgB-188" value="&lt;font style=&quot;font-size: 35px;&quot;&gt;md&lt;/font&gt;" style="rounded=0;whiteSpace=wrap;html=1;fillColor=#fff2cc;strokeColor=#d6b656;" parent="1" vertex="1">
          <mxGeometry x="-2339" y="-5400" width="70" height="60" as="geometry" />
        </mxCell>
        <mxCell id="1CUIqOdQTPRliHLXxzgB-189" value="&lt;span style=&quot;font-size: 35px;&quot;&gt;y&lt;/span&gt;" style="rounded=0;whiteSpace=wrap;html=1;fillColor=#fff2cc;strokeColor=#d6b656;" parent="1" vertex="1">
          <mxGeometry x="-4673" y="-5400" width="60" height="60" as="geometry" />
        </mxCell>
        <mxCell id="1CUIqOdQTPRliHLXxzgB-190" value="" style="rounded=0;whiteSpace=wrap;html=1;" parent="1" vertex="1">
          <mxGeometry x="-4553" y="-5400" width="210" height="60" as="geometry" />
        </mxCell>
        <mxCell id="1CUIqOdQTPRliHLXxzgB-191" value="&lt;span style=&quot;font-size: 35px;&quot;&gt;z&lt;/span&gt;" style="rounded=0;whiteSpace=wrap;html=1;fillColor=#fff2cc;strokeColor=#d6b656;" parent="1" vertex="1">
          <mxGeometry x="-4613" y="-5400" width="60" height="60" as="geometry" />
        </mxCell>
        <mxCell id="1CUIqOdQTPRliHLXxzgB-192" value="" style="endArrow=classic;html=1;rounded=0;" parent="1" edge="1">
          <mxGeometry width="50" height="50" relative="1" as="geometry">
            <mxPoint x="-4693" y="-5280" as="sourcePoint" />
            <mxPoint x="-4693" y="-5340" as="targetPoint" />
          </mxGeometry>
        </mxCell>
        <mxCell id="1CUIqOdQTPRliHLXxzgB-193" value="&lt;font style=&quot;font-size: 35px;&quot;&gt;X&lt;/font&gt;" style="text;html=1;align=center;verticalAlign=middle;whiteSpace=wrap;rounded=0;" parent="1" vertex="1">
          <mxGeometry x="-4779" y="-5275" width="170" height="70" as="geometry" />
        </mxCell>
        <mxCell id="1CUIqOdQTPRliHLXxzgB-194" value="&lt;span style=&quot;font-size: 35px;&quot;&gt;md&lt;/span&gt;" style="rounded=0;whiteSpace=wrap;html=1;fillColor=#fff2cc;strokeColor=#d6b656;" parent="1" vertex="1">
          <mxGeometry x="-4733" y="-5400" width="60" height="60" as="geometry" />
        </mxCell>
        <mxCell id="1CUIqOdQTPRliHLXxzgB-195" value="" style="rounded=0;whiteSpace=wrap;html=1;fillColor=#008a00;fontColor=#ffffff;strokeColor=#005700;" parent="1" vertex="1">
          <mxGeometry x="-4929" y="-5400" width="200" height="60" as="geometry" />
        </mxCell>
        <mxCell id="1CUIqOdQTPRliHLXxzgB-196" value="&lt;font style=&quot;font-size: 35px;&quot;&gt;md&lt;/font&gt;" style="rounded=0;whiteSpace=wrap;html=1;fillColor=#fff2cc;strokeColor=#d6b656;" parent="1" vertex="1">
          <mxGeometry x="-4999" y="-5400" width="70" height="60" as="geometry" />
        </mxCell>
        <mxCell id="1CUIqOdQTPRliHLXxzgB-197" value="" style="rounded=0;whiteSpace=wrap;html=1;fillColor=#008a00;fontColor=#ffffff;strokeColor=#005700;" parent="1" vertex="1">
          <mxGeometry x="-3678" y="-5400" width="200" height="60" as="geometry" />
        </mxCell>
        <mxCell id="1CUIqOdQTPRliHLXxzgB-198" value="&lt;font style=&quot;font-size: 35px;&quot;&gt;md&lt;/font&gt;" style="rounded=0;whiteSpace=wrap;html=1;fillColor=#fff2cc;strokeColor=#d6b656;" parent="1" vertex="1">
          <mxGeometry x="-3748" y="-5400" width="70" height="60" as="geometry" />
        </mxCell>
        <mxCell id="1CUIqOdQTPRliHLXxzgB-199" value="" style="rounded=0;whiteSpace=wrap;html=1;fillColor=#008a00;fontColor=#ffffff;strokeColor=#005700;" parent="1" vertex="1">
          <mxGeometry x="-3408" y="-5400" width="200" height="60" as="geometry" />
        </mxCell>
        <mxCell id="1CUIqOdQTPRliHLXxzgB-200" value="&lt;font style=&quot;font-size: 35px;&quot;&gt;md&lt;/font&gt;" style="rounded=0;whiteSpace=wrap;html=1;fillColor=#fff2cc;strokeColor=#d6b656;" parent="1" vertex="1">
          <mxGeometry x="-3478" y="-5400" width="70" height="60" as="geometry" />
        </mxCell>
        <mxCell id="1CUIqOdQTPRliHLXxzgB-201" value="&lt;span style=&quot;font-size: 50px;&quot;&gt;index1&lt;/span&gt;" style="text;html=1;align=center;verticalAlign=middle;whiteSpace=wrap;rounded=0;" parent="1" vertex="1">
          <mxGeometry x="-5959" y="-5240" width="170" height="70" as="geometry" />
        </mxCell>
        <mxCell id="1CUIqOdQTPRliHLXxzgB-202" value="" style="endArrow=classic;html=1;rounded=0;" parent="1" edge="1">
          <mxGeometry width="50" height="50" relative="1" as="geometry">
            <mxPoint x="-5869" y="-5280" as="sourcePoint" />
            <mxPoint x="-5869" y="-5340" as="targetPoint" />
          </mxGeometry>
        </mxCell>
        <mxCell id="1CUIqOdQTPRliHLXxzgB-205" value="&lt;span style=&quot;font-size: 50px;&quot;&gt;index3&lt;/span&gt;" style="text;html=1;align=center;verticalAlign=middle;whiteSpace=wrap;rounded=0;" parent="1" vertex="1">
          <mxGeometry x="-5049" y="-5240" width="170" height="70" as="geometry" />
        </mxCell>
        <mxCell id="1CUIqOdQTPRliHLXxzgB-206" value="" style="endArrow=classic;html=1;rounded=0;" parent="1" edge="1">
          <mxGeometry width="50" height="50" relative="1" as="geometry">
            <mxPoint x="-4959" y="-5280" as="sourcePoint" />
            <mxPoint x="-4959" y="-5340" as="targetPoint" />
          </mxGeometry>
        </mxCell>
        <mxCell id="1CUIqOdQTPRliHLXxzgB-207" value="&lt;span style=&quot;font-size: 50px;&quot;&gt;index4&lt;/span&gt;" style="text;html=1;align=center;verticalAlign=middle;whiteSpace=wrap;rounded=0;" parent="1" vertex="1">
          <mxGeometry x="-4388" y="-5240" width="170" height="70" as="geometry" />
        </mxCell>
        <mxCell id="1CUIqOdQTPRliHLXxzgB-208" value="" style="endArrow=classic;html=1;rounded=0;" parent="1" edge="1">
          <mxGeometry width="50" height="50" relative="1" as="geometry">
            <mxPoint x="-4298" y="-5280" as="sourcePoint" />
            <mxPoint x="-4298" y="-5340" as="targetPoint" />
          </mxGeometry>
        </mxCell>
        <mxCell id="1CUIqOdQTPRliHLXxzgB-209" value="&lt;span style=&quot;font-size: 50px;&quot;&gt;index5&lt;/span&gt;" style="text;html=1;align=center;verticalAlign=middle;whiteSpace=wrap;rounded=0;" parent="1" vertex="1">
          <mxGeometry x="-3539" y="-5240" width="170" height="70" as="geometry" />
        </mxCell>
        <mxCell id="1CUIqOdQTPRliHLXxzgB-210" value="" style="endArrow=classic;html=1;rounded=0;" parent="1" edge="1">
          <mxGeometry width="50" height="50" relative="1" as="geometry">
            <mxPoint x="-3449" y="-5280" as="sourcePoint" />
            <mxPoint x="-3449" y="-5340" as="targetPoint" />
          </mxGeometry>
        </mxCell>
        <mxCell id="1CUIqOdQTPRliHLXxzgB-211" value="&lt;span style=&quot;font-size: 50px;&quot;&gt;index6&lt;/span&gt;" style="text;html=1;align=center;verticalAlign=middle;whiteSpace=wrap;rounded=0;" parent="1" vertex="1">
          <mxGeometry x="-3253" y="-5240" width="170" height="70" as="geometry" />
        </mxCell>
        <mxCell id="1CUIqOdQTPRliHLXxzgB-212" value="" style="endArrow=classic;html=1;rounded=0;" parent="1" edge="1">
          <mxGeometry width="50" height="50" relative="1" as="geometry">
            <mxPoint x="-3163" y="-5280" as="sourcePoint" />
            <mxPoint x="-3163" y="-5340" as="targetPoint" />
          </mxGeometry>
        </mxCell>
        <mxCell id="1CUIqOdQTPRliHLXxzgB-213" value="&lt;span style=&quot;font-size: 50px;&quot;&gt;index7&lt;/span&gt;" style="text;html=1;align=center;verticalAlign=middle;whiteSpace=wrap;rounded=0;" parent="1" vertex="1">
          <mxGeometry x="-2673" y="-5240" width="170" height="70" as="geometry" />
        </mxCell>
        <mxCell id="1CUIqOdQTPRliHLXxzgB-214" value="" style="endArrow=classic;html=1;rounded=0;" parent="1" edge="1">
          <mxGeometry width="50" height="50" relative="1" as="geometry">
            <mxPoint x="-2583" y="-5280" as="sourcePoint" />
            <mxPoint x="-2583" y="-5340" as="targetPoint" />
          </mxGeometry>
        </mxCell>
        <mxCell id="1CUIqOdQTPRliHLXxzgB-215" value="&lt;span style=&quot;font-size: 50px;&quot;&gt;index8&lt;/span&gt;" style="text;html=1;align=center;verticalAlign=middle;whiteSpace=wrap;rounded=0;" parent="1" vertex="1">
          <mxGeometry x="-2389" y="-5240" width="170" height="70" as="geometry" />
        </mxCell>
        <mxCell id="1CUIqOdQTPRliHLXxzgB-216" value="" style="endArrow=classic;html=1;rounded=0;" parent="1" edge="1">
          <mxGeometry width="50" height="50" relative="1" as="geometry">
            <mxPoint x="-2299" y="-5280" as="sourcePoint" />
            <mxPoint x="-2299" y="-5340" as="targetPoint" />
          </mxGeometry>
        </mxCell>
        <mxCell id="1CUIqOdQTPRliHLXxzgB-217" value="&lt;font style=&quot;font-size: 35px;&quot;&gt;md&lt;/font&gt;" style="rounded=0;whiteSpace=wrap;html=1;fillColor=#0050ef;strokeColor=#001DBC;fontColor=#ffffff;" parent="1" vertex="1">
          <mxGeometry x="-5629" y="-5400" width="70" height="60" as="geometry" />
        </mxCell>
        <mxCell id="1CUIqOdQTPRliHLXxzgB-218" value="&lt;span style=&quot;font-size: 50px;&quot;&gt;Head&lt;/span&gt;&lt;span style=&quot;font-size: 50px;&quot;&gt;&lt;br&gt;y&lt;/span&gt;" style="text;html=1;align=center;verticalAlign=middle;whiteSpace=wrap;rounded=0;fillColor=#0050ef;fontColor=#ffffff;strokeColor=#001DBC;" parent="1" vertex="1">
          <mxGeometry x="-5689" y="-5240" width="180" height="110" as="geometry" />
        </mxCell>
        <mxCell id="1CUIqOdQTPRliHLXxzgB-219" value="" style="endArrow=classic;html=1;rounded=0;" parent="1" edge="1">
          <mxGeometry width="50" height="50" relative="1" as="geometry">
            <mxPoint x="-5599" y="-5280" as="sourcePoint" />
            <mxPoint x="-5599" y="-5340" as="targetPoint" />
          </mxGeometry>
        </mxCell>
        <mxCell id="1CUIqOdQTPRliHLXxzgB-220" value="&lt;span style=&quot;font-size: 35px;&quot;&gt;!&lt;/span&gt;" style="rounded=0;whiteSpace=wrap;html=1;fillColor=#0050ef;strokeColor=#001DBC;fontColor=#ffffff;" parent="1" vertex="1">
          <mxGeometry x="-5559" y="-5400" width="60" height="60" as="geometry" />
        </mxCell>
        <mxCell id="1CUIqOdQTPRliHLXxzgB-221" value="&lt;span style=&quot;font-size: 35px;&quot;&gt;x&lt;/span&gt;" style="rounded=0;whiteSpace=wrap;html=1;fillColor=#0050ef;fontColor=#ffffff;strokeColor=#001DBC;" parent="1" vertex="1">
          <mxGeometry x="-5499" y="-5400" width="60" height="60" as="geometry" />
        </mxCell>
        <mxCell id="1CUIqOdQTPRliHLXxzgB-222" value="" style="rounded=0;whiteSpace=wrap;html=1;" parent="1" vertex="1">
          <mxGeometry x="-5899" y="-4110" width="4090" height="60" as="geometry" />
        </mxCell>
        <mxCell id="1CUIqOdQTPRliHLXxzgB-223" value="" style="rounded=0;whiteSpace=wrap;html=1;fillColor=#008a00;fontColor=#ffffff;strokeColor=#005700;" parent="1" vertex="1">
          <mxGeometry x="-5829" y="-4110" width="200" height="60" as="geometry" />
        </mxCell>
        <mxCell id="1CUIqOdQTPRliHLXxzgB-224" value="&lt;span style=&quot;font-size: 35px;&quot;&gt;!&lt;/span&gt;" style="rounded=0;whiteSpace=wrap;html=1;fillColor=#fff2cc;strokeColor=#d6b656;" parent="1" vertex="1">
          <mxGeometry x="-5299" y="-4110" width="60" height="60" as="geometry" />
        </mxCell>
        <mxCell id="1CUIqOdQTPRliHLXxzgB-225" value="&lt;font style=&quot;font-size: 50px;&quot;&gt;Head&lt;br&gt;y&lt;/font&gt;" style="text;html=1;align=center;verticalAlign=middle;whiteSpace=wrap;rounded=0;" parent="1" vertex="1">
          <mxGeometry x="-5409" y="-3950" width="170" height="70" as="geometry" />
        </mxCell>
        <mxCell id="1CUIqOdQTPRliHLXxzgB-226" value="" style="rounded=0;whiteSpace=wrap;html=1;" parent="1" vertex="1">
          <mxGeometry x="-5179" y="-4110" width="180" height="60" as="geometry" />
        </mxCell>
        <mxCell id="1CUIqOdQTPRliHLXxzgB-227" value="&lt;span style=&quot;font-size: 35px;&quot;&gt;X&lt;/span&gt;" style="rounded=0;whiteSpace=wrap;html=1;fillColor=#fff2cc;strokeColor=#d6b656;" parent="1" vertex="1">
          <mxGeometry x="-5239" y="-4110" width="60" height="60" as="geometry" />
        </mxCell>
        <mxCell id="1CUIqOdQTPRliHLXxzgB-228" value="&lt;span style=&quot;font-size: 35px;&quot;&gt;md&lt;/span&gt;" style="rounded=0;whiteSpace=wrap;html=1;fillColor=#fff2cc;strokeColor=#d6b656;" parent="1" vertex="1">
          <mxGeometry x="-5359" y="-4110" width="60" height="60" as="geometry" />
        </mxCell>
        <mxCell id="1CUIqOdQTPRliHLXxzgB-229" value="" style="endArrow=classic;html=1;rounded=0;" parent="1" edge="1">
          <mxGeometry width="50" height="50" relative="1" as="geometry">
            <mxPoint x="-5319" y="-3990" as="sourcePoint" />
            <mxPoint x="-5319" y="-4050" as="targetPoint" />
          </mxGeometry>
        </mxCell>
        <mxCell id="1CUIqOdQTPRliHLXxzgB-230" value="&lt;span style=&quot;font-size: 50px;&quot;&gt;break&lt;/span&gt;" style="text;html=1;align=center;verticalAlign=middle;whiteSpace=wrap;rounded=0;" parent="1" vertex="1">
          <mxGeometry x="-1969" y="-3960" width="170" height="70" as="geometry" />
        </mxCell>
        <mxCell id="1CUIqOdQTPRliHLXxzgB-231" value="&lt;font style=&quot;font-size: 35px;&quot;&gt;md&lt;/font&gt;" style="rounded=0;whiteSpace=wrap;html=1;fillColor=#fff2cc;strokeColor=#d6b656;" parent="1" vertex="1">
          <mxGeometry x="-5899" y="-4110" width="70" height="60" as="geometry" />
        </mxCell>
        <mxCell id="1CUIqOdQTPRliHLXxzgB-232" value="" style="endArrow=classic;html=1;rounded=0;" parent="1" edge="1">
          <mxGeometry width="50" height="50" relative="1" as="geometry">
            <mxPoint x="-1890" y="-3980" as="sourcePoint" />
            <mxPoint x="-1890" y="-4040" as="targetPoint" />
          </mxGeometry>
        </mxCell>
        <mxCell id="1CUIqOdQTPRliHLXxzgB-233" value="" style="rounded=0;whiteSpace=wrap;html=1;fillColor=#fff2cc;strokeColor=#d6b656;" parent="1" vertex="1">
          <mxGeometry x="-1919" y="-4110" width="60" height="60" as="geometry" />
        </mxCell>
        <mxCell id="1CUIqOdQTPRliHLXxzgB-234" value="" style="rounded=0;whiteSpace=wrap;html=1;fillColor=#008a00;fontColor=#ffffff;strokeColor=#005700;" parent="1" vertex="1">
          <mxGeometry x="-4268" y="-4110" width="200" height="60" as="geometry" />
        </mxCell>
        <mxCell id="1CUIqOdQTPRliHLXxzgB-235" value="&lt;font style=&quot;font-size: 35px;&quot;&gt;md&lt;/font&gt;" style="rounded=0;whiteSpace=wrap;html=1;fillColor=#fff2cc;strokeColor=#d6b656;" parent="1" vertex="1">
          <mxGeometry x="-4338" y="-4110" width="70" height="60" as="geometry" />
        </mxCell>
        <mxCell id="1CUIqOdQTPRliHLXxzgB-236" value="&lt;span style=&quot;font-size: 35px;&quot;&gt;x&lt;/span&gt;" style="rounded=0;whiteSpace=wrap;html=1;fillColor=#fff2cc;strokeColor=#d6b656;" parent="1" vertex="1">
          <mxGeometry x="-4008" y="-4110" width="60" height="60" as="geometry" />
        </mxCell>
        <mxCell id="1CUIqOdQTPRliHLXxzgB-237" value="&lt;span style=&quot;font-size: 35px;&quot;&gt;z&lt;/span&gt;" style="text;html=1;align=center;verticalAlign=middle;whiteSpace=wrap;rounded=0;" parent="1" vertex="1">
          <mxGeometry x="-4118" y="-3950" width="170" height="70" as="geometry" />
        </mxCell>
        <mxCell id="1CUIqOdQTPRliHLXxzgB-238" value="&lt;span style=&quot;font-size: 35px;&quot;&gt;a&lt;/span&gt;" style="rounded=0;whiteSpace=wrap;html=1;fillColor=#fff2cc;strokeColor=#d6b656;" parent="1" vertex="1">
          <mxGeometry x="-3948" y="-4110" width="60" height="60" as="geometry" />
        </mxCell>
        <mxCell id="1CUIqOdQTPRliHLXxzgB-239" value="&lt;span style=&quot;font-size: 35px;&quot;&gt;md&lt;/span&gt;" style="rounded=0;whiteSpace=wrap;html=1;fillColor=#fff2cc;strokeColor=#d6b656;" parent="1" vertex="1">
          <mxGeometry x="-4068" y="-4110" width="60" height="60" as="geometry" />
        </mxCell>
        <mxCell id="1CUIqOdQTPRliHLXxzgB-240" value="" style="endArrow=classic;html=1;rounded=0;" parent="1" edge="1">
          <mxGeometry width="50" height="50" relative="1" as="geometry">
            <mxPoint x="-4028" y="-3990" as="sourcePoint" />
            <mxPoint x="-4028" y="-4050" as="targetPoint" />
          </mxGeometry>
        </mxCell>
        <mxCell id="1CUIqOdQTPRliHLXxzgB-241" value="" style="rounded=0;whiteSpace=wrap;html=1;fillColor=#008a00;fontColor=#ffffff;strokeColor=#005700;" parent="1" vertex="1">
          <mxGeometry x="-3133" y="-4110" width="200" height="60" as="geometry" />
        </mxCell>
        <mxCell id="1CUIqOdQTPRliHLXxzgB-242" value="&lt;font style=&quot;font-size: 35px;&quot;&gt;md&lt;/font&gt;" style="rounded=0;whiteSpace=wrap;html=1;fillColor=#fff2cc;strokeColor=#d6b656;" parent="1" vertex="1">
          <mxGeometry x="-3203" y="-4110" width="70" height="60" as="geometry" />
        </mxCell>
        <mxCell id="1CUIqOdQTPRliHLXxzgB-243" value="&lt;span style=&quot;font-size: 35px;&quot;&gt;z&lt;/span&gt;" style="rounded=0;whiteSpace=wrap;html=1;fillColor=#fff2cc;strokeColor=#d6b656;" parent="1" vertex="1">
          <mxGeometry x="-2869" y="-4110" width="60" height="60" as="geometry" />
        </mxCell>
        <mxCell id="1CUIqOdQTPRliHLXxzgB-244" value="&lt;font style=&quot;font-size: 50px;&quot;&gt;a&lt;/font&gt;" style="text;html=1;align=center;verticalAlign=middle;whiteSpace=wrap;rounded=0;" parent="1" vertex="1">
          <mxGeometry x="-2979" y="-3950" width="170" height="70" as="geometry" />
        </mxCell>
        <mxCell id="1CUIqOdQTPRliHLXxzgB-245" value="" style="rounded=0;whiteSpace=wrap;html=1;" parent="1" vertex="1">
          <mxGeometry x="-2749" y="-4110" width="140" height="60" as="geometry" />
        </mxCell>
        <mxCell id="1CUIqOdQTPRliHLXxzgB-246" value="&lt;span style=&quot;font-size: 35px;&quot;&gt;b&lt;/span&gt;" style="rounded=0;whiteSpace=wrap;html=1;fillColor=#0050ef;strokeColor=#001DBC;fontColor=#ffffff;" parent="1" vertex="1">
          <mxGeometry x="-2809" y="-4110" width="60" height="60" as="geometry" />
        </mxCell>
        <mxCell id="1CUIqOdQTPRliHLXxzgB-247" value="&lt;span style=&quot;font-size: 35px;&quot;&gt;md&lt;/span&gt;" style="rounded=0;whiteSpace=wrap;html=1;fillColor=#fff2cc;strokeColor=#d6b656;" parent="1" vertex="1">
          <mxGeometry x="-2929" y="-4110" width="60" height="60" as="geometry" />
        </mxCell>
        <mxCell id="1CUIqOdQTPRliHLXxzgB-248" value="" style="endArrow=classic;html=1;rounded=0;" parent="1" edge="1">
          <mxGeometry width="50" height="50" relative="1" as="geometry">
            <mxPoint x="-2889" y="-3990" as="sourcePoint" />
            <mxPoint x="-2889" y="-4050" as="targetPoint" />
          </mxGeometry>
        </mxCell>
        <mxCell id="1CUIqOdQTPRliHLXxzgB-249" value="" style="rounded=0;whiteSpace=wrap;html=1;fillColor=#008a00;fontColor=#ffffff;strokeColor=#005700;" parent="1" vertex="1">
          <mxGeometry x="-5559" y="-4110" width="200" height="60" as="geometry" />
        </mxCell>
        <mxCell id="1CUIqOdQTPRliHLXxzgB-250" value="&lt;font style=&quot;font-size: 35px;&quot;&gt;md&lt;/font&gt;" style="rounded=0;whiteSpace=wrap;html=1;fillColor=#fff2cc;strokeColor=#d6b656;" parent="1" vertex="1">
          <mxGeometry x="-5629" y="-4110" width="70" height="60" as="geometry" />
        </mxCell>
        <mxCell id="1CUIqOdQTPRliHLXxzgB-251" value="" style="rounded=0;whiteSpace=wrap;html=1;fillColor=#008a00;fontColor=#ffffff;strokeColor=#005700;" parent="1" vertex="1">
          <mxGeometry x="-2539" y="-4110" width="200" height="60" as="geometry" />
        </mxCell>
        <mxCell id="1CUIqOdQTPRliHLXxzgB-252" value="&lt;font style=&quot;font-size: 35px;&quot;&gt;md&lt;/font&gt;" style="rounded=0;whiteSpace=wrap;html=1;fillColor=#fff2cc;strokeColor=#d6b656;" parent="1" vertex="1">
          <mxGeometry x="-2609" y="-4110" width="70" height="60" as="geometry" />
        </mxCell>
        <mxCell id="1CUIqOdQTPRliHLXxzgB-254" value="&lt;font style=&quot;font-size: 35px;&quot;&gt;md&lt;/font&gt;" style="rounded=0;whiteSpace=wrap;html=1;fillColor=#fff2cc;strokeColor=#d6b656;" parent="1" vertex="1">
          <mxGeometry x="-2339" y="-4110" width="70" height="60" as="geometry" />
        </mxCell>
        <mxCell id="1CUIqOdQTPRliHLXxzgB-255" value="&lt;span style=&quot;font-size: 35px;&quot;&gt;y&lt;/span&gt;" style="rounded=0;whiteSpace=wrap;html=1;fillColor=#fff2cc;strokeColor=#d6b656;" parent="1" vertex="1">
          <mxGeometry x="-4673" y="-4110" width="60" height="60" as="geometry" />
        </mxCell>
        <mxCell id="1CUIqOdQTPRliHLXxzgB-256" value="" style="rounded=0;whiteSpace=wrap;html=1;" parent="1" vertex="1">
          <mxGeometry x="-4553" y="-4110" width="210" height="60" as="geometry" />
        </mxCell>
        <mxCell id="1CUIqOdQTPRliHLXxzgB-257" value="&lt;span style=&quot;font-size: 35px;&quot;&gt;z&lt;/span&gt;" style="rounded=0;whiteSpace=wrap;html=1;fillColor=#fff2cc;strokeColor=#d6b656;" parent="1" vertex="1">
          <mxGeometry x="-4613" y="-4110" width="60" height="60" as="geometry" />
        </mxCell>
        <mxCell id="1CUIqOdQTPRliHLXxzgB-258" value="" style="endArrow=classic;html=1;rounded=0;" parent="1" edge="1">
          <mxGeometry width="50" height="50" relative="1" as="geometry">
            <mxPoint x="-4693" y="-3990" as="sourcePoint" />
            <mxPoint x="-4693" y="-4050" as="targetPoint" />
          </mxGeometry>
        </mxCell>
        <mxCell id="1CUIqOdQTPRliHLXxzgB-259" value="&lt;font style=&quot;font-size: 35px;&quot;&gt;X&lt;/font&gt;" style="text;html=1;align=center;verticalAlign=middle;whiteSpace=wrap;rounded=0;" parent="1" vertex="1">
          <mxGeometry x="-4779" y="-3985" width="170" height="70" as="geometry" />
        </mxCell>
        <mxCell id="1CUIqOdQTPRliHLXxzgB-260" value="&lt;span style=&quot;font-size: 35px;&quot;&gt;md&lt;/span&gt;" style="rounded=0;whiteSpace=wrap;html=1;fillColor=#fff2cc;strokeColor=#d6b656;" parent="1" vertex="1">
          <mxGeometry x="-4733" y="-4110" width="60" height="60" as="geometry" />
        </mxCell>
        <mxCell id="1CUIqOdQTPRliHLXxzgB-261" value="" style="rounded=0;whiteSpace=wrap;html=1;fillColor=#008a00;fontColor=#ffffff;strokeColor=#005700;" parent="1" vertex="1">
          <mxGeometry x="-4929" y="-4110" width="200" height="60" as="geometry" />
        </mxCell>
        <mxCell id="1CUIqOdQTPRliHLXxzgB-262" value="&lt;font style=&quot;font-size: 35px;&quot;&gt;md&lt;/font&gt;" style="rounded=0;whiteSpace=wrap;html=1;fillColor=#fff2cc;strokeColor=#d6b656;" parent="1" vertex="1">
          <mxGeometry x="-4999" y="-4110" width="70" height="60" as="geometry" />
        </mxCell>
        <mxCell id="1CUIqOdQTPRliHLXxzgB-263" value="" style="rounded=0;whiteSpace=wrap;html=1;fillColor=#008a00;fontColor=#ffffff;strokeColor=#005700;" parent="1" vertex="1">
          <mxGeometry x="-3678" y="-4110" width="200" height="60" as="geometry" />
        </mxCell>
        <mxCell id="1CUIqOdQTPRliHLXxzgB-264" value="&lt;font style=&quot;font-size: 35px;&quot;&gt;md&lt;/font&gt;" style="rounded=0;whiteSpace=wrap;html=1;fillColor=#fff2cc;strokeColor=#d6b656;" parent="1" vertex="1">
          <mxGeometry x="-3748" y="-4110" width="70" height="60" as="geometry" />
        </mxCell>
        <mxCell id="1CUIqOdQTPRliHLXxzgB-265" value="" style="rounded=0;whiteSpace=wrap;html=1;fillColor=#008a00;fontColor=#ffffff;strokeColor=#005700;" parent="1" vertex="1">
          <mxGeometry x="-3408" y="-4110" width="200" height="60" as="geometry" />
        </mxCell>
        <mxCell id="1CUIqOdQTPRliHLXxzgB-266" value="&lt;font style=&quot;font-size: 35px;&quot;&gt;md&lt;/font&gt;" style="rounded=0;whiteSpace=wrap;html=1;fillColor=#fff2cc;strokeColor=#d6b656;" parent="1" vertex="1">
          <mxGeometry x="-3478" y="-4110" width="70" height="60" as="geometry" />
        </mxCell>
        <mxCell id="1CUIqOdQTPRliHLXxzgB-267" value="&lt;span style=&quot;font-size: 50px;&quot;&gt;index1&lt;/span&gt;" style="text;html=1;align=center;verticalAlign=middle;whiteSpace=wrap;rounded=0;" parent="1" vertex="1">
          <mxGeometry x="-5959" y="-3950" width="170" height="70" as="geometry" />
        </mxCell>
        <mxCell id="1CUIqOdQTPRliHLXxzgB-268" value="" style="endArrow=classic;html=1;rounded=0;" parent="1" edge="1">
          <mxGeometry width="50" height="50" relative="1" as="geometry">
            <mxPoint x="-5869" y="-3990" as="sourcePoint" />
            <mxPoint x="-5869" y="-4050" as="targetPoint" />
          </mxGeometry>
        </mxCell>
        <mxCell id="1CUIqOdQTPRliHLXxzgB-269" value="&lt;span style=&quot;font-size: 50px;&quot;&gt;index2&lt;/span&gt;" style="text;html=1;align=center;verticalAlign=middle;whiteSpace=wrap;rounded=0;" parent="1" vertex="1">
          <mxGeometry x="-5679" y="-3950" width="170" height="70" as="geometry" />
        </mxCell>
        <mxCell id="1CUIqOdQTPRliHLXxzgB-270" value="" style="endArrow=classic;html=1;rounded=0;" parent="1" edge="1">
          <mxGeometry width="50" height="50" relative="1" as="geometry">
            <mxPoint x="-5589" y="-3990" as="sourcePoint" />
            <mxPoint x="-5589" y="-4050" as="targetPoint" />
          </mxGeometry>
        </mxCell>
        <mxCell id="1CUIqOdQTPRliHLXxzgB-271" value="&lt;span style=&quot;font-size: 50px;&quot;&gt;index3&lt;/span&gt;" style="text;html=1;align=center;verticalAlign=middle;whiteSpace=wrap;rounded=0;" parent="1" vertex="1">
          <mxGeometry x="-5049" y="-3950" width="170" height="70" as="geometry" />
        </mxCell>
        <mxCell id="1CUIqOdQTPRliHLXxzgB-272" value="" style="endArrow=classic;html=1;rounded=0;" parent="1" edge="1">
          <mxGeometry width="50" height="50" relative="1" as="geometry">
            <mxPoint x="-4959" y="-3990" as="sourcePoint" />
            <mxPoint x="-4959" y="-4050" as="targetPoint" />
          </mxGeometry>
        </mxCell>
        <mxCell id="1CUIqOdQTPRliHLXxzgB-273" value="&lt;span style=&quot;font-size: 50px;&quot;&gt;index4&lt;/span&gt;" style="text;html=1;align=center;verticalAlign=middle;whiteSpace=wrap;rounded=0;" parent="1" vertex="1">
          <mxGeometry x="-4388" y="-3950" width="170" height="70" as="geometry" />
        </mxCell>
        <mxCell id="1CUIqOdQTPRliHLXxzgB-274" value="" style="endArrow=classic;html=1;rounded=0;" parent="1" edge="1">
          <mxGeometry width="50" height="50" relative="1" as="geometry">
            <mxPoint x="-4298" y="-3990" as="sourcePoint" />
            <mxPoint x="-4298" y="-4050" as="targetPoint" />
          </mxGeometry>
        </mxCell>
        <mxCell id="1CUIqOdQTPRliHLXxzgB-275" value="&lt;span style=&quot;font-size: 50px;&quot;&gt;index5&lt;/span&gt;" style="text;html=1;align=center;verticalAlign=middle;whiteSpace=wrap;rounded=0;" parent="1" vertex="1">
          <mxGeometry x="-3539" y="-3950" width="170" height="70" as="geometry" />
        </mxCell>
        <mxCell id="1CUIqOdQTPRliHLXxzgB-276" value="" style="endArrow=classic;html=1;rounded=0;" parent="1" edge="1">
          <mxGeometry width="50" height="50" relative="1" as="geometry">
            <mxPoint x="-3449" y="-3990" as="sourcePoint" />
            <mxPoint x="-3449" y="-4050" as="targetPoint" />
          </mxGeometry>
        </mxCell>
        <mxCell id="1CUIqOdQTPRliHLXxzgB-277" value="&lt;span style=&quot;font-size: 50px;&quot;&gt;index6&lt;/span&gt;" style="text;html=1;align=center;verticalAlign=middle;whiteSpace=wrap;rounded=0;" parent="1" vertex="1">
          <mxGeometry x="-3253" y="-3950" width="170" height="70" as="geometry" />
        </mxCell>
        <mxCell id="1CUIqOdQTPRliHLXxzgB-278" value="" style="endArrow=classic;html=1;rounded=0;" parent="1" edge="1">
          <mxGeometry width="50" height="50" relative="1" as="geometry">
            <mxPoint x="-3163" y="-3990" as="sourcePoint" />
            <mxPoint x="-3163" y="-4050" as="targetPoint" />
          </mxGeometry>
        </mxCell>
        <mxCell id="1CUIqOdQTPRliHLXxzgB-279" value="&lt;span style=&quot;font-size: 50px;&quot;&gt;index7&lt;/span&gt;" style="text;html=1;align=center;verticalAlign=middle;whiteSpace=wrap;rounded=0;" parent="1" vertex="1">
          <mxGeometry x="-2673" y="-3950" width="170" height="70" as="geometry" />
        </mxCell>
        <mxCell id="1CUIqOdQTPRliHLXxzgB-280" value="" style="endArrow=classic;html=1;rounded=0;" parent="1" edge="1">
          <mxGeometry width="50" height="50" relative="1" as="geometry">
            <mxPoint x="-2583" y="-3990" as="sourcePoint" />
            <mxPoint x="-2583" y="-4050" as="targetPoint" />
          </mxGeometry>
        </mxCell>
        <mxCell id="1CUIqOdQTPRliHLXxzgB-281" value="&lt;font style=&quot;font-size: 45px;&quot;&gt;Tail&lt;br&gt;&lt;b&gt;b&lt;/b&gt;&lt;/font&gt;" style="text;html=1;align=center;verticalAlign=middle;whiteSpace=wrap;rounded=0;fillColor=#0050ef;fontColor=#ffffff;strokeColor=#001DBC;" parent="1" vertex="1">
          <mxGeometry x="-2389" y="-3950" width="170" height="100" as="geometry" />
        </mxCell>
        <mxCell id="1CUIqOdQTPRliHLXxzgB-282" value="" style="endArrow=classic;html=1;rounded=0;" parent="1" edge="1">
          <mxGeometry width="50" height="50" relative="1" as="geometry">
            <mxPoint x="-2299" y="-3990" as="sourcePoint" />
            <mxPoint x="-2299" y="-4050" as="targetPoint" />
          </mxGeometry>
        </mxCell>
        <mxCell id="1CUIqOdQTPRliHLXxzgB-283" value="&lt;span style=&quot;font-size: 35px;&quot;&gt;a&lt;/span&gt;" style="rounded=0;whiteSpace=wrap;html=1;fillColor=#0050ef;strokeColor=#001DBC;fontColor=#ffffff;" parent="1" vertex="1">
          <mxGeometry x="-2269" y="-4110" width="60" height="60" as="geometry" />
        </mxCell>
        <mxCell id="1CUIqOdQTPRliHLXxzgB-284" value="&lt;span style=&quot;font-size: 35px;&quot;&gt;!&lt;/span&gt;" style="rounded=0;whiteSpace=wrap;html=1;fillColor=#0050ef;strokeColor=#001DBC;fontColor=#ffffff;" parent="1" vertex="1">
          <mxGeometry x="-2209" y="-4110" width="60" height="60" as="geometry" />
        </mxCell>
        <mxCell id="1CUIqOdQTPRliHLXxzgB-285" value="" style="rounded=0;whiteSpace=wrap;html=1;" parent="1" vertex="1">
          <mxGeometry x="-5899" y="-3780" width="4090" height="60" as="geometry" />
        </mxCell>
        <mxCell id="1CUIqOdQTPRliHLXxzgB-286" value="" style="rounded=0;whiteSpace=wrap;html=1;fillColor=#008a00;fontColor=#ffffff;strokeColor=#005700;" parent="1" vertex="1">
          <mxGeometry x="-5829" y="-3780" width="200" height="60" as="geometry" />
        </mxCell>
        <mxCell id="1CUIqOdQTPRliHLXxzgB-287" value="&lt;span style=&quot;font-size: 35px;&quot;&gt;!&lt;/span&gt;" style="rounded=0;whiteSpace=wrap;html=1;fillColor=#fff2cc;strokeColor=#d6b656;" parent="1" vertex="1">
          <mxGeometry x="-5299" y="-3780" width="60" height="60" as="geometry" />
        </mxCell>
        <mxCell id="1CUIqOdQTPRliHLXxzgB-288" value="&lt;font style=&quot;font-size: 50px;&quot;&gt;Head&lt;br&gt;y&lt;/font&gt;" style="text;html=1;align=center;verticalAlign=middle;whiteSpace=wrap;rounded=0;" parent="1" vertex="1">
          <mxGeometry x="-5409" y="-3620" width="170" height="70" as="geometry" />
        </mxCell>
        <mxCell id="1CUIqOdQTPRliHLXxzgB-289" value="" style="rounded=0;whiteSpace=wrap;html=1;" parent="1" vertex="1">
          <mxGeometry x="-5179" y="-3780" width="180" height="60" as="geometry" />
        </mxCell>
        <mxCell id="1CUIqOdQTPRliHLXxzgB-290" value="&lt;span style=&quot;font-size: 35px;&quot;&gt;X&lt;/span&gt;" style="rounded=0;whiteSpace=wrap;html=1;fillColor=#fff2cc;strokeColor=#d6b656;" parent="1" vertex="1">
          <mxGeometry x="-5239" y="-3780" width="60" height="60" as="geometry" />
        </mxCell>
        <mxCell id="1CUIqOdQTPRliHLXxzgB-291" value="&lt;span style=&quot;font-size: 35px;&quot;&gt;md&lt;/span&gt;" style="rounded=0;whiteSpace=wrap;html=1;fillColor=#fff2cc;strokeColor=#d6b656;" parent="1" vertex="1">
          <mxGeometry x="-5359" y="-3780" width="60" height="60" as="geometry" />
        </mxCell>
        <mxCell id="1CUIqOdQTPRliHLXxzgB-292" value="" style="endArrow=classic;html=1;rounded=0;" parent="1" edge="1">
          <mxGeometry width="50" height="50" relative="1" as="geometry">
            <mxPoint x="-5319" y="-3660" as="sourcePoint" />
            <mxPoint x="-5319" y="-3720" as="targetPoint" />
          </mxGeometry>
        </mxCell>
        <mxCell id="1CUIqOdQTPRliHLXxzgB-293" value="&lt;span style=&quot;font-size: 50px;&quot;&gt;break&lt;/span&gt;" style="text;html=1;align=center;verticalAlign=middle;whiteSpace=wrap;rounded=0;" parent="1" vertex="1">
          <mxGeometry x="-1969" y="-3630" width="170" height="70" as="geometry" />
        </mxCell>
        <mxCell id="1CUIqOdQTPRliHLXxzgB-294" value="&lt;font style=&quot;font-size: 35px;&quot;&gt;md&lt;/font&gt;" style="rounded=0;whiteSpace=wrap;html=1;fillColor=#fff2cc;strokeColor=#d6b656;" parent="1" vertex="1">
          <mxGeometry x="-5899" y="-3780" width="70" height="60" as="geometry" />
        </mxCell>
        <mxCell id="1CUIqOdQTPRliHLXxzgB-295" value="" style="endArrow=classic;html=1;rounded=0;" parent="1" edge="1">
          <mxGeometry width="50" height="50" relative="1" as="geometry">
            <mxPoint x="-1890" y="-3650" as="sourcePoint" />
            <mxPoint x="-1890" y="-3710" as="targetPoint" />
          </mxGeometry>
        </mxCell>
        <mxCell id="1CUIqOdQTPRliHLXxzgB-296" value="" style="rounded=0;whiteSpace=wrap;html=1;fillColor=#fff2cc;strokeColor=#d6b656;" parent="1" vertex="1">
          <mxGeometry x="-1919" y="-3780" width="60" height="60" as="geometry" />
        </mxCell>
        <mxCell id="1CUIqOdQTPRliHLXxzgB-297" value="" style="rounded=0;whiteSpace=wrap;html=1;fillColor=#008a00;fontColor=#ffffff;strokeColor=#005700;" parent="1" vertex="1">
          <mxGeometry x="-4268" y="-3780" width="200" height="60" as="geometry" />
        </mxCell>
        <mxCell id="1CUIqOdQTPRliHLXxzgB-298" value="&lt;font style=&quot;font-size: 35px;&quot;&gt;md&lt;/font&gt;" style="rounded=0;whiteSpace=wrap;html=1;fillColor=#fff2cc;strokeColor=#d6b656;" parent="1" vertex="1">
          <mxGeometry x="-4338" y="-3780" width="70" height="60" as="geometry" />
        </mxCell>
        <mxCell id="1CUIqOdQTPRliHLXxzgB-299" value="&lt;span style=&quot;font-size: 35px;&quot;&gt;x&lt;/span&gt;" style="rounded=0;whiteSpace=wrap;html=1;fillColor=#fff2cc;strokeColor=#d6b656;" parent="1" vertex="1">
          <mxGeometry x="-4008" y="-3780" width="60" height="60" as="geometry" />
        </mxCell>
        <mxCell id="1CUIqOdQTPRliHLXxzgB-300" value="&lt;span style=&quot;font-size: 35px;&quot;&gt;z&lt;/span&gt;" style="text;html=1;align=center;verticalAlign=middle;whiteSpace=wrap;rounded=0;" parent="1" vertex="1">
          <mxGeometry x="-4118" y="-3620" width="170" height="70" as="geometry" />
        </mxCell>
        <mxCell id="1CUIqOdQTPRliHLXxzgB-301" value="&lt;span style=&quot;font-size: 35px;&quot;&gt;a&lt;/span&gt;" style="rounded=0;whiteSpace=wrap;html=1;fillColor=#fff2cc;strokeColor=#d6b656;" parent="1" vertex="1">
          <mxGeometry x="-3948" y="-3780" width="60" height="60" as="geometry" />
        </mxCell>
        <mxCell id="1CUIqOdQTPRliHLXxzgB-302" value="&lt;span style=&quot;font-size: 35px;&quot;&gt;md&lt;/span&gt;" style="rounded=0;whiteSpace=wrap;html=1;fillColor=#fff2cc;strokeColor=#d6b656;" parent="1" vertex="1">
          <mxGeometry x="-4068" y="-3780" width="60" height="60" as="geometry" />
        </mxCell>
        <mxCell id="1CUIqOdQTPRliHLXxzgB-303" value="" style="endArrow=classic;html=1;rounded=0;" parent="1" edge="1">
          <mxGeometry width="50" height="50" relative="1" as="geometry">
            <mxPoint x="-4028" y="-3660" as="sourcePoint" />
            <mxPoint x="-4028" y="-3720" as="targetPoint" />
          </mxGeometry>
        </mxCell>
        <mxCell id="1CUIqOdQTPRliHLXxzgB-304" value="" style="rounded=0;whiteSpace=wrap;html=1;fillColor=#008a00;fontColor=#ffffff;strokeColor=#005700;" parent="1" vertex="1">
          <mxGeometry x="-3133" y="-3780" width="200" height="60" as="geometry" />
        </mxCell>
        <mxCell id="1CUIqOdQTPRliHLXxzgB-305" value="&lt;font style=&quot;font-size: 35px;&quot;&gt;md&lt;/font&gt;" style="rounded=0;whiteSpace=wrap;html=1;fillColor=#fff2cc;strokeColor=#d6b656;" parent="1" vertex="1">
          <mxGeometry x="-3203" y="-3780" width="70" height="60" as="geometry" />
        </mxCell>
        <mxCell id="1CUIqOdQTPRliHLXxzgB-306" value="&lt;span style=&quot;font-size: 35px;&quot;&gt;z&lt;/span&gt;" style="rounded=0;whiteSpace=wrap;html=1;fillColor=#fff2cc;strokeColor=#d6b656;" parent="1" vertex="1">
          <mxGeometry x="-2869" y="-3780" width="60" height="60" as="geometry" />
        </mxCell>
        <mxCell id="1CUIqOdQTPRliHLXxzgB-308" value="" style="rounded=0;whiteSpace=wrap;html=1;" parent="1" vertex="1">
          <mxGeometry x="-2749" y="-3780" width="410" height="60" as="geometry" />
        </mxCell>
        <mxCell id="1CUIqOdQTPRliHLXxzgB-309" value="&lt;span style=&quot;font-size: 35px;&quot;&gt;!&lt;/span&gt;" style="rounded=0;whiteSpace=wrap;html=1;" parent="1" vertex="1">
          <mxGeometry x="-2809" y="-3780" width="60" height="60" as="geometry" />
        </mxCell>
        <mxCell id="1CUIqOdQTPRliHLXxzgB-310" value="&lt;span style=&quot;font-size: 35px;&quot;&gt;md&lt;/span&gt;" style="rounded=0;whiteSpace=wrap;html=1;fillColor=#0050ef;strokeColor=#001DBC;fontColor=#ffffff;" parent="1" vertex="1">
          <mxGeometry x="-2929" y="-3780" width="60" height="60" as="geometry" />
        </mxCell>
        <mxCell id="1CUIqOdQTPRliHLXxzgB-311" value="" style="endArrow=classic;html=1;rounded=0;" parent="1" edge="1">
          <mxGeometry width="50" height="50" relative="1" as="geometry">
            <mxPoint x="-2889" y="-3660" as="sourcePoint" />
            <mxPoint x="-2889" y="-3720" as="targetPoint" />
          </mxGeometry>
        </mxCell>
        <mxCell id="1CUIqOdQTPRliHLXxzgB-312" value="" style="rounded=0;whiteSpace=wrap;html=1;fillColor=#008a00;fontColor=#ffffff;strokeColor=#005700;" parent="1" vertex="1">
          <mxGeometry x="-5559" y="-3780" width="200" height="60" as="geometry" />
        </mxCell>
        <mxCell id="1CUIqOdQTPRliHLXxzgB-313" value="&lt;font style=&quot;font-size: 35px;&quot;&gt;md&lt;/font&gt;" style="rounded=0;whiteSpace=wrap;html=1;fillColor=#fff2cc;strokeColor=#d6b656;" parent="1" vertex="1">
          <mxGeometry x="-5629" y="-3780" width="70" height="60" as="geometry" />
        </mxCell>
        <mxCell id="1CUIqOdQTPRliHLXxzgB-316" value="&lt;font style=&quot;font-size: 35px;&quot;&gt;md&lt;/font&gt;" style="rounded=0;whiteSpace=wrap;html=1;fillColor=#fff2cc;strokeColor=#d6b656;" parent="1" vertex="1">
          <mxGeometry x="-2339" y="-3780" width="70" height="60" as="geometry" />
        </mxCell>
        <mxCell id="1CUIqOdQTPRliHLXxzgB-317" value="&lt;span style=&quot;font-size: 35px;&quot;&gt;y&lt;/span&gt;" style="rounded=0;whiteSpace=wrap;html=1;fillColor=#fff2cc;strokeColor=#d6b656;" parent="1" vertex="1">
          <mxGeometry x="-4673" y="-3780" width="60" height="60" as="geometry" />
        </mxCell>
        <mxCell id="1CUIqOdQTPRliHLXxzgB-318" value="" style="rounded=0;whiteSpace=wrap;html=1;" parent="1" vertex="1">
          <mxGeometry x="-4553" y="-3780" width="210" height="60" as="geometry" />
        </mxCell>
        <mxCell id="1CUIqOdQTPRliHLXxzgB-319" value="&lt;span style=&quot;font-size: 35px;&quot;&gt;z&lt;/span&gt;" style="rounded=0;whiteSpace=wrap;html=1;fillColor=#fff2cc;strokeColor=#d6b656;" parent="1" vertex="1">
          <mxGeometry x="-4613" y="-3780" width="60" height="60" as="geometry" />
        </mxCell>
        <mxCell id="1CUIqOdQTPRliHLXxzgB-320" value="" style="endArrow=classic;html=1;rounded=0;" parent="1" edge="1">
          <mxGeometry width="50" height="50" relative="1" as="geometry">
            <mxPoint x="-4693" y="-3660" as="sourcePoint" />
            <mxPoint x="-4693" y="-3720" as="targetPoint" />
          </mxGeometry>
        </mxCell>
        <mxCell id="1CUIqOdQTPRliHLXxzgB-321" value="&lt;font style=&quot;font-size: 35px;&quot;&gt;X&lt;/font&gt;" style="text;html=1;align=center;verticalAlign=middle;whiteSpace=wrap;rounded=0;" parent="1" vertex="1">
          <mxGeometry x="-4779" y="-3655" width="170" height="70" as="geometry" />
        </mxCell>
        <mxCell id="1CUIqOdQTPRliHLXxzgB-322" value="&lt;span style=&quot;font-size: 35px;&quot;&gt;md&lt;/span&gt;" style="rounded=0;whiteSpace=wrap;html=1;fillColor=#fff2cc;strokeColor=#d6b656;" parent="1" vertex="1">
          <mxGeometry x="-4733" y="-3780" width="60" height="60" as="geometry" />
        </mxCell>
        <mxCell id="1CUIqOdQTPRliHLXxzgB-323" value="" style="rounded=0;whiteSpace=wrap;html=1;fillColor=#008a00;fontColor=#ffffff;strokeColor=#005700;" parent="1" vertex="1">
          <mxGeometry x="-4929" y="-3780" width="200" height="60" as="geometry" />
        </mxCell>
        <mxCell id="1CUIqOdQTPRliHLXxzgB-324" value="&lt;font style=&quot;font-size: 35px;&quot;&gt;md&lt;/font&gt;" style="rounded=0;whiteSpace=wrap;html=1;fillColor=#fff2cc;strokeColor=#d6b656;" parent="1" vertex="1">
          <mxGeometry x="-4999" y="-3780" width="70" height="60" as="geometry" />
        </mxCell>
        <mxCell id="1CUIqOdQTPRliHLXxzgB-325" value="" style="rounded=0;whiteSpace=wrap;html=1;fillColor=#008a00;fontColor=#ffffff;strokeColor=#005700;" parent="1" vertex="1">
          <mxGeometry x="-3678" y="-3780" width="200" height="60" as="geometry" />
        </mxCell>
        <mxCell id="1CUIqOdQTPRliHLXxzgB-326" value="&lt;font style=&quot;font-size: 35px;&quot;&gt;md&lt;/font&gt;" style="rounded=0;whiteSpace=wrap;html=1;fillColor=#fff2cc;strokeColor=#d6b656;" parent="1" vertex="1">
          <mxGeometry x="-3748" y="-3780" width="70" height="60" as="geometry" />
        </mxCell>
        <mxCell id="1CUIqOdQTPRliHLXxzgB-327" value="" style="rounded=0;whiteSpace=wrap;html=1;fillColor=#008a00;fontColor=#ffffff;strokeColor=#005700;" parent="1" vertex="1">
          <mxGeometry x="-3408" y="-3780" width="200" height="60" as="geometry" />
        </mxCell>
        <mxCell id="1CUIqOdQTPRliHLXxzgB-328" value="&lt;font style=&quot;font-size: 35px;&quot;&gt;md&lt;/font&gt;" style="rounded=0;whiteSpace=wrap;html=1;fillColor=#fff2cc;strokeColor=#d6b656;" parent="1" vertex="1">
          <mxGeometry x="-3478" y="-3780" width="70" height="60" as="geometry" />
        </mxCell>
        <mxCell id="1CUIqOdQTPRliHLXxzgB-329" value="&lt;span style=&quot;font-size: 50px;&quot;&gt;index1&lt;/span&gt;" style="text;html=1;align=center;verticalAlign=middle;whiteSpace=wrap;rounded=0;" parent="1" vertex="1">
          <mxGeometry x="-5959" y="-3620" width="170" height="70" as="geometry" />
        </mxCell>
        <mxCell id="1CUIqOdQTPRliHLXxzgB-330" value="" style="endArrow=classic;html=1;rounded=0;" parent="1" edge="1">
          <mxGeometry width="50" height="50" relative="1" as="geometry">
            <mxPoint x="-5869" y="-3660" as="sourcePoint" />
            <mxPoint x="-5869" y="-3720" as="targetPoint" />
          </mxGeometry>
        </mxCell>
        <mxCell id="1CUIqOdQTPRliHLXxzgB-331" value="&lt;span style=&quot;font-size: 50px;&quot;&gt;index2&lt;/span&gt;" style="text;html=1;align=center;verticalAlign=middle;whiteSpace=wrap;rounded=0;" parent="1" vertex="1">
          <mxGeometry x="-5679" y="-3620" width="170" height="70" as="geometry" />
        </mxCell>
        <mxCell id="1CUIqOdQTPRliHLXxzgB-332" value="" style="endArrow=classic;html=1;rounded=0;" parent="1" edge="1">
          <mxGeometry width="50" height="50" relative="1" as="geometry">
            <mxPoint x="-5589" y="-3660" as="sourcePoint" />
            <mxPoint x="-5589" y="-3720" as="targetPoint" />
          </mxGeometry>
        </mxCell>
        <mxCell id="1CUIqOdQTPRliHLXxzgB-333" value="&lt;span style=&quot;font-size: 50px;&quot;&gt;index3&lt;/span&gt;" style="text;html=1;align=center;verticalAlign=middle;whiteSpace=wrap;rounded=0;" parent="1" vertex="1">
          <mxGeometry x="-5049" y="-3620" width="170" height="70" as="geometry" />
        </mxCell>
        <mxCell id="1CUIqOdQTPRliHLXxzgB-334" value="" style="endArrow=classic;html=1;rounded=0;" parent="1" edge="1">
          <mxGeometry width="50" height="50" relative="1" as="geometry">
            <mxPoint x="-4959" y="-3660" as="sourcePoint" />
            <mxPoint x="-4959" y="-3720" as="targetPoint" />
          </mxGeometry>
        </mxCell>
        <mxCell id="1CUIqOdQTPRliHLXxzgB-335" value="&lt;span style=&quot;font-size: 50px;&quot;&gt;index4&lt;/span&gt;" style="text;html=1;align=center;verticalAlign=middle;whiteSpace=wrap;rounded=0;" parent="1" vertex="1">
          <mxGeometry x="-4388" y="-3620" width="170" height="70" as="geometry" />
        </mxCell>
        <mxCell id="1CUIqOdQTPRliHLXxzgB-336" value="" style="endArrow=classic;html=1;rounded=0;" parent="1" edge="1">
          <mxGeometry width="50" height="50" relative="1" as="geometry">
            <mxPoint x="-4298" y="-3660" as="sourcePoint" />
            <mxPoint x="-4298" y="-3720" as="targetPoint" />
          </mxGeometry>
        </mxCell>
        <mxCell id="1CUIqOdQTPRliHLXxzgB-337" value="&lt;span style=&quot;font-size: 50px;&quot;&gt;index5&lt;/span&gt;" style="text;html=1;align=center;verticalAlign=middle;whiteSpace=wrap;rounded=0;" parent="1" vertex="1">
          <mxGeometry x="-3539" y="-3620" width="170" height="70" as="geometry" />
        </mxCell>
        <mxCell id="1CUIqOdQTPRliHLXxzgB-338" value="" style="endArrow=classic;html=1;rounded=0;" parent="1" edge="1">
          <mxGeometry width="50" height="50" relative="1" as="geometry">
            <mxPoint x="-3449" y="-3660" as="sourcePoint" />
            <mxPoint x="-3449" y="-3720" as="targetPoint" />
          </mxGeometry>
        </mxCell>
        <mxCell id="1CUIqOdQTPRliHLXxzgB-339" value="&lt;span style=&quot;font-size: 50px;&quot;&gt;index6&lt;/span&gt;" style="text;html=1;align=center;verticalAlign=middle;whiteSpace=wrap;rounded=0;" parent="1" vertex="1">
          <mxGeometry x="-3253" y="-3620" width="170" height="70" as="geometry" />
        </mxCell>
        <mxCell id="1CUIqOdQTPRliHLXxzgB-340" value="" style="endArrow=classic;html=1;rounded=0;" parent="1" edge="1">
          <mxGeometry width="50" height="50" relative="1" as="geometry">
            <mxPoint x="-3163" y="-3660" as="sourcePoint" />
            <mxPoint x="-3163" y="-3720" as="targetPoint" />
          </mxGeometry>
        </mxCell>
        <mxCell id="1CUIqOdQTPRliHLXxzgB-343" value="&lt;font style=&quot;font-size: 45px;&quot;&gt;Tail&lt;br&gt;&lt;b&gt;a&lt;/b&gt;&lt;/font&gt;" style="text;html=1;align=center;verticalAlign=middle;whiteSpace=wrap;rounded=0;" parent="1" vertex="1">
          <mxGeometry x="-2979" y="-3645" width="170" height="100" as="geometry" />
        </mxCell>
        <mxCell id="1CUIqOdQTPRliHLXxzgB-344" value="" style="endArrow=classic;html=1;rounded=0;" parent="1" edge="1">
          <mxGeometry width="50" height="50" relative="1" as="geometry">
            <mxPoint x="-2299" y="-3660" as="sourcePoint" />
            <mxPoint x="-2299" y="-3720" as="targetPoint" />
          </mxGeometry>
        </mxCell>
        <mxCell id="1CUIqOdQTPRliHLXxzgB-345" value="&lt;span style=&quot;font-size: 35px;&quot;&gt;a&lt;/span&gt;" style="rounded=0;whiteSpace=wrap;html=1;fillColor=#0050ef;strokeColor=#001DBC;fontColor=#ffffff;" parent="1" vertex="1">
          <mxGeometry x="-2269" y="-3780" width="60" height="60" as="geometry" />
        </mxCell>
        <mxCell id="1CUIqOdQTPRliHLXxzgB-346" value="&lt;span style=&quot;font-size: 35px;&quot;&gt;!&lt;/span&gt;" style="rounded=0;whiteSpace=wrap;html=1;fillColor=#0050ef;strokeColor=#001DBC;fontColor=#ffffff;" parent="1" vertex="1">
          <mxGeometry x="-2209" y="-3780" width="60" height="60" as="geometry" />
        </mxCell>
        <mxCell id="1CUIqOdQTPRliHLXxzgB-347" value="" style="rounded=0;whiteSpace=wrap;html=1;fillColor=#008a00;fontColor=#ffffff;strokeColor=#005700;" parent="1" vertex="1">
          <mxGeometry x="-2269" y="-3780" width="350" height="60" as="geometry" />
        </mxCell>
        <mxCell id="1CUIqOdQTPRliHLXxzgB-348" value="&lt;font style=&quot;font-size: 35px;&quot;&gt;md&lt;/font&gt;" style="rounded=0;whiteSpace=wrap;html=1;fillColor=#fff2cc;strokeColor=#d6b656;" parent="1" vertex="1">
          <mxGeometry x="-2339" y="-3780" width="70" height="60" as="geometry" />
        </mxCell>
        <mxCell id="1CUIqOdQTPRliHLXxzgB-349" value="&lt;span style=&quot;font-size: 50px;&quot;&gt;index8&lt;/span&gt;" style="text;html=1;align=center;verticalAlign=middle;whiteSpace=wrap;rounded=0;" parent="1" vertex="1">
          <mxGeometry x="-2389" y="-3620" width="170" height="70" as="geometry" />
        </mxCell>
        <mxCell id="1CUIqOdQTPRliHLXxzgB-350" value="" style="endArrow=classic;html=1;rounded=0;" parent="1" edge="1">
          <mxGeometry width="50" height="50" relative="1" as="geometry">
            <mxPoint x="-2299" y="-3660" as="sourcePoint" />
            <mxPoint x="-2299" y="-3720" as="targetPoint" />
          </mxGeometry>
        </mxCell>
        <mxCell id="1CUIqOdQTPRliHLXxzgB-351" value="&lt;span style=&quot;font-size: 35px;&quot;&gt;!&lt;/span&gt;" style="rounded=0;whiteSpace=wrap;html=1;fillColor=#fff2cc;strokeColor=#d6b656;" parent="1" vertex="1">
          <mxGeometry x="-2809" y="-3780" width="60" height="60" as="geometry" />
        </mxCell>
        <mxCell id="1CUIqOdQTPRliHLXxzgB-352" value="" style="rounded=0;whiteSpace=wrap;html=1;" parent="1" vertex="1">
          <mxGeometry x="-6008.5" y="-2710" width="4090" height="60" as="geometry" />
        </mxCell>
        <mxCell id="1CUIqOdQTPRliHLXxzgB-353" value="" style="rounded=0;whiteSpace=wrap;html=1;fillColor=#008a00;fontColor=#ffffff;strokeColor=#005700;" parent="1" vertex="1">
          <mxGeometry x="-5938.5" y="-2710" width="200" height="60" as="geometry" />
        </mxCell>
        <mxCell id="1CUIqOdQTPRliHLXxzgB-354" value="&lt;span style=&quot;font-size: 35px;&quot;&gt;!&lt;/span&gt;" style="rounded=0;whiteSpace=wrap;html=1;fillColor=#fff2cc;strokeColor=#d6b656;" parent="1" vertex="1">
          <mxGeometry x="-5408.5" y="-2710" width="60" height="60" as="geometry" />
        </mxCell>
        <mxCell id="1CUIqOdQTPRliHLXxzgB-355" value="&lt;font style=&quot;font-size: 50px;&quot;&gt;Head&lt;br&gt;y&lt;/font&gt;" style="text;html=1;align=center;verticalAlign=middle;whiteSpace=wrap;rounded=0;" parent="1" vertex="1">
          <mxGeometry x="-5518.5" y="-2550" width="170" height="70" as="geometry" />
        </mxCell>
        <mxCell id="1CUIqOdQTPRliHLXxzgB-356" value="" style="rounded=0;whiteSpace=wrap;html=1;" parent="1" vertex="1">
          <mxGeometry x="-5288.5" y="-2710" width="180" height="60" as="geometry" />
        </mxCell>
        <mxCell id="1CUIqOdQTPRliHLXxzgB-357" value="&lt;span style=&quot;font-size: 35px;&quot;&gt;X&lt;/span&gt;" style="rounded=0;whiteSpace=wrap;html=1;fillColor=#fff2cc;strokeColor=#d6b656;" parent="1" vertex="1">
          <mxGeometry x="-5348.5" y="-2710" width="60" height="60" as="geometry" />
        </mxCell>
        <mxCell id="1CUIqOdQTPRliHLXxzgB-358" value="&lt;span style=&quot;font-size: 35px;&quot;&gt;md&lt;/span&gt;" style="rounded=0;whiteSpace=wrap;html=1;fillColor=#fff2cc;strokeColor=#d6b656;" parent="1" vertex="1">
          <mxGeometry x="-5468.5" y="-2710" width="60" height="60" as="geometry" />
        </mxCell>
        <mxCell id="1CUIqOdQTPRliHLXxzgB-359" value="" style="endArrow=classic;html=1;rounded=0;" parent="1" edge="1">
          <mxGeometry width="50" height="50" relative="1" as="geometry">
            <mxPoint x="-5428.5" y="-2590" as="sourcePoint" />
            <mxPoint x="-5428.5" y="-2650" as="targetPoint" />
          </mxGeometry>
        </mxCell>
        <mxCell id="1CUIqOdQTPRliHLXxzgB-360" value="&lt;span style=&quot;font-size: 50px;&quot;&gt;break&lt;/span&gt;" style="text;html=1;align=center;verticalAlign=middle;whiteSpace=wrap;rounded=0;" parent="1" vertex="1">
          <mxGeometry x="-2078.5" y="-2560" width="170" height="70" as="geometry" />
        </mxCell>
        <mxCell id="1CUIqOdQTPRliHLXxzgB-361" value="&lt;font style=&quot;font-size: 35px;&quot;&gt;md&lt;/font&gt;" style="rounded=0;whiteSpace=wrap;html=1;fillColor=#fff2cc;strokeColor=#d6b656;" parent="1" vertex="1">
          <mxGeometry x="-6008.5" y="-2710" width="70" height="60" as="geometry" />
        </mxCell>
        <mxCell id="1CUIqOdQTPRliHLXxzgB-362" value="" style="endArrow=classic;html=1;rounded=0;" parent="1" edge="1">
          <mxGeometry width="50" height="50" relative="1" as="geometry">
            <mxPoint x="-1999.5" y="-2580" as="sourcePoint" />
            <mxPoint x="-1999.5" y="-2640" as="targetPoint" />
          </mxGeometry>
        </mxCell>
        <mxCell id="1CUIqOdQTPRliHLXxzgB-363" value="" style="rounded=0;whiteSpace=wrap;html=1;fillColor=#fff2cc;strokeColor=#d6b656;" parent="1" vertex="1">
          <mxGeometry x="-2028.5" y="-2710" width="60" height="60" as="geometry" />
        </mxCell>
        <mxCell id="1CUIqOdQTPRliHLXxzgB-364" value="" style="rounded=0;whiteSpace=wrap;html=1;fillColor=#008a00;fontColor=#ffffff;strokeColor=#005700;" parent="1" vertex="1">
          <mxGeometry x="-4377.5" y="-2710" width="200" height="60" as="geometry" />
        </mxCell>
        <mxCell id="1CUIqOdQTPRliHLXxzgB-365" value="&lt;font style=&quot;font-size: 35px;&quot;&gt;md&lt;/font&gt;" style="rounded=0;whiteSpace=wrap;html=1;fillColor=#fff2cc;strokeColor=#d6b656;" parent="1" vertex="1">
          <mxGeometry x="-4447.5" y="-2710" width="70" height="60" as="geometry" />
        </mxCell>
        <mxCell id="1CUIqOdQTPRliHLXxzgB-366" value="&lt;span style=&quot;font-size: 35px;&quot;&gt;x&lt;/span&gt;" style="rounded=0;whiteSpace=wrap;html=1;fillColor=#fff2cc;strokeColor=#d6b656;" parent="1" vertex="1">
          <mxGeometry x="-4117.5" y="-2710" width="60" height="60" as="geometry" />
        </mxCell>
        <mxCell id="1CUIqOdQTPRliHLXxzgB-367" value="&lt;span style=&quot;font-size: 35px;&quot;&gt;z&lt;/span&gt;" style="text;html=1;align=center;verticalAlign=middle;whiteSpace=wrap;rounded=0;" parent="1" vertex="1">
          <mxGeometry x="-4227.5" y="-2550" width="170" height="70" as="geometry" />
        </mxCell>
        <mxCell id="1CUIqOdQTPRliHLXxzgB-368" value="&lt;span style=&quot;font-size: 35px;&quot;&gt;a&lt;/span&gt;" style="rounded=0;whiteSpace=wrap;html=1;fillColor=#fff2cc;strokeColor=#d6b656;" parent="1" vertex="1">
          <mxGeometry x="-4057.5" y="-2710" width="60" height="60" as="geometry" />
        </mxCell>
        <mxCell id="1CUIqOdQTPRliHLXxzgB-369" value="&lt;span style=&quot;font-size: 35px;&quot;&gt;md&lt;/span&gt;" style="rounded=0;whiteSpace=wrap;html=1;fillColor=#0050ef;strokeColor=#001DBC;fontColor=#ffffff;" parent="1" vertex="1">
          <mxGeometry x="-4177.5" y="-2710" width="60" height="60" as="geometry" />
        </mxCell>
        <mxCell id="1CUIqOdQTPRliHLXxzgB-370" value="" style="endArrow=classic;html=1;rounded=0;" parent="1" edge="1">
          <mxGeometry width="50" height="50" relative="1" as="geometry">
            <mxPoint x="-4137.5" y="-2590" as="sourcePoint" />
            <mxPoint x="-4137.5" y="-2650" as="targetPoint" />
          </mxGeometry>
        </mxCell>
        <mxCell id="1CUIqOdQTPRliHLXxzgB-371" value="" style="rounded=0;whiteSpace=wrap;html=1;fillColor=#008a00;fontColor=#ffffff;strokeColor=#005700;" parent="1" vertex="1">
          <mxGeometry x="-3242.5" y="-2710" width="200" height="60" as="geometry" />
        </mxCell>
        <mxCell id="1CUIqOdQTPRliHLXxzgB-372" value="&lt;font style=&quot;font-size: 35px;&quot;&gt;md&lt;/font&gt;" style="rounded=0;whiteSpace=wrap;html=1;fillColor=#fff2cc;strokeColor=#d6b656;" parent="1" vertex="1">
          <mxGeometry x="-3312.5" y="-2710" width="70" height="60" as="geometry" />
        </mxCell>
        <mxCell id="1CUIqOdQTPRliHLXxzgB-373" value="&lt;span style=&quot;font-size: 35px;&quot;&gt;z&lt;/span&gt;" style="rounded=0;whiteSpace=wrap;html=1;fillColor=#fff2cc;strokeColor=#d6b656;" parent="1" vertex="1">
          <mxGeometry x="-2978.5" y="-2710" width="60" height="60" as="geometry" />
        </mxCell>
        <mxCell id="1CUIqOdQTPRliHLXxzgB-374" value="&lt;font style=&quot;font-size: 50px;&quot;&gt;Tail&lt;br&gt;a&lt;/font&gt;" style="text;html=1;align=center;verticalAlign=middle;whiteSpace=wrap;rounded=0;" parent="1" vertex="1">
          <mxGeometry x="-3088.5" y="-2550" width="170" height="70" as="geometry" />
        </mxCell>
        <mxCell id="1CUIqOdQTPRliHLXxzgB-375" value="" style="rounded=0;whiteSpace=wrap;html=1;" parent="1" vertex="1">
          <mxGeometry x="-2858.5" y="-2710" width="140" height="60" as="geometry" />
        </mxCell>
        <mxCell id="1CUIqOdQTPRliHLXxzgB-376" value="&lt;span style=&quot;font-size: 35px;&quot;&gt;!&lt;/span&gt;" style="rounded=0;whiteSpace=wrap;html=1;fillColor=#fff2cc;strokeColor=#d6b656;" parent="1" vertex="1">
          <mxGeometry x="-2918.5" y="-2710" width="60" height="60" as="geometry" />
        </mxCell>
        <mxCell id="1CUIqOdQTPRliHLXxzgB-377" value="&lt;span style=&quot;font-size: 35px;&quot;&gt;md&lt;/span&gt;" style="rounded=0;whiteSpace=wrap;html=1;fillColor=#fff2cc;strokeColor=#d6b656;" parent="1" vertex="1">
          <mxGeometry x="-3038.5" y="-2710" width="60" height="60" as="geometry" />
        </mxCell>
        <mxCell id="1CUIqOdQTPRliHLXxzgB-378" value="" style="endArrow=classic;html=1;rounded=0;" parent="1" edge="1">
          <mxGeometry width="50" height="50" relative="1" as="geometry">
            <mxPoint x="-2998.5" y="-2590" as="sourcePoint" />
            <mxPoint x="-2998.5" y="-2650" as="targetPoint" />
          </mxGeometry>
        </mxCell>
        <mxCell id="1CUIqOdQTPRliHLXxzgB-379" value="" style="rounded=0;whiteSpace=wrap;html=1;fillColor=#008a00;fontColor=#ffffff;strokeColor=#005700;" parent="1" vertex="1">
          <mxGeometry x="-5668.5" y="-2710" width="200" height="60" as="geometry" />
        </mxCell>
        <mxCell id="1CUIqOdQTPRliHLXxzgB-380" value="&lt;font style=&quot;font-size: 35px;&quot;&gt;md&lt;/font&gt;" style="rounded=0;whiteSpace=wrap;html=1;fillColor=#fff2cc;strokeColor=#d6b656;" parent="1" vertex="1">
          <mxGeometry x="-5738.5" y="-2710" width="70" height="60" as="geometry" />
        </mxCell>
        <mxCell id="1CUIqOdQTPRliHLXxzgB-381" value="" style="rounded=0;whiteSpace=wrap;html=1;fillColor=#008a00;fontColor=#ffffff;strokeColor=#005700;" parent="1" vertex="1">
          <mxGeometry x="-2648.5" y="-2710" width="200" height="60" as="geometry" />
        </mxCell>
        <mxCell id="1CUIqOdQTPRliHLXxzgB-382" value="&lt;font style=&quot;font-size: 35px;&quot;&gt;md&lt;/font&gt;" style="rounded=0;whiteSpace=wrap;html=1;fillColor=#fff2cc;strokeColor=#d6b656;" parent="1" vertex="1">
          <mxGeometry x="-2718.5" y="-2710" width="70" height="60" as="geometry" />
        </mxCell>
        <mxCell id="1CUIqOdQTPRliHLXxzgB-383" value="" style="rounded=0;whiteSpace=wrap;html=1;fillColor=#008a00;fontColor=#ffffff;strokeColor=#005700;" parent="1" vertex="1">
          <mxGeometry x="-2378.5" y="-2710" width="350" height="60" as="geometry" />
        </mxCell>
        <mxCell id="1CUIqOdQTPRliHLXxzgB-384" value="&lt;font style=&quot;font-size: 35px;&quot;&gt;md&lt;/font&gt;" style="rounded=0;whiteSpace=wrap;html=1;fillColor=#fff2cc;strokeColor=#d6b656;" parent="1" vertex="1">
          <mxGeometry x="-2448.5" y="-2710" width="70" height="60" as="geometry" />
        </mxCell>
        <mxCell id="1CUIqOdQTPRliHLXxzgB-385" value="&lt;span style=&quot;font-size: 35px;&quot;&gt;y&lt;/span&gt;" style="rounded=0;whiteSpace=wrap;html=1;fillColor=#fff2cc;strokeColor=#d6b656;" parent="1" vertex="1">
          <mxGeometry x="-4782.5" y="-2710" width="60" height="60" as="geometry" />
        </mxCell>
        <mxCell id="1CUIqOdQTPRliHLXxzgB-386" value="" style="rounded=0;whiteSpace=wrap;html=1;" parent="1" vertex="1">
          <mxGeometry x="-4662.5" y="-2710" width="210" height="60" as="geometry" />
        </mxCell>
        <mxCell id="1CUIqOdQTPRliHLXxzgB-387" value="&lt;span style=&quot;font-size: 35px;&quot;&gt;z&lt;/span&gt;" style="rounded=0;whiteSpace=wrap;html=1;fillColor=#fff2cc;strokeColor=#d6b656;" parent="1" vertex="1">
          <mxGeometry x="-4722.5" y="-2710" width="60" height="60" as="geometry" />
        </mxCell>
        <mxCell id="1CUIqOdQTPRliHLXxzgB-388" value="" style="endArrow=classic;html=1;rounded=0;" parent="1" edge="1">
          <mxGeometry width="50" height="50" relative="1" as="geometry">
            <mxPoint x="-4802.5" y="-2590" as="sourcePoint" />
            <mxPoint x="-4802.5" y="-2650" as="targetPoint" />
          </mxGeometry>
        </mxCell>
        <mxCell id="1CUIqOdQTPRliHLXxzgB-389" value="&lt;font style=&quot;font-size: 35px;&quot;&gt;X&lt;/font&gt;" style="text;html=1;align=center;verticalAlign=middle;whiteSpace=wrap;rounded=0;" parent="1" vertex="1">
          <mxGeometry x="-4888.5" y="-2585" width="170" height="70" as="geometry" />
        </mxCell>
        <mxCell id="1CUIqOdQTPRliHLXxzgB-390" value="&lt;span style=&quot;font-size: 35px;&quot;&gt;md&lt;/span&gt;" style="rounded=0;whiteSpace=wrap;html=1;fillColor=#fff2cc;strokeColor=#d6b656;" parent="1" vertex="1">
          <mxGeometry x="-4842.5" y="-2710" width="60" height="60" as="geometry" />
        </mxCell>
        <mxCell id="1CUIqOdQTPRliHLXxzgB-391" value="" style="rounded=0;whiteSpace=wrap;html=1;fillColor=#008a00;fontColor=#ffffff;strokeColor=#005700;" parent="1" vertex="1">
          <mxGeometry x="-5038.5" y="-2710" width="200" height="60" as="geometry" />
        </mxCell>
        <mxCell id="1CUIqOdQTPRliHLXxzgB-392" value="&lt;font style=&quot;font-size: 35px;&quot;&gt;md&lt;/font&gt;" style="rounded=0;whiteSpace=wrap;html=1;fillColor=#fff2cc;strokeColor=#d6b656;" parent="1" vertex="1">
          <mxGeometry x="-5108.5" y="-2710" width="70" height="60" as="geometry" />
        </mxCell>
        <mxCell id="1CUIqOdQTPRliHLXxzgB-395" value="" style="rounded=0;whiteSpace=wrap;html=1;fillColor=#008a00;fontColor=#ffffff;strokeColor=#005700;" parent="1" vertex="1">
          <mxGeometry x="-3517.5" y="-2710" width="200" height="60" as="geometry" />
        </mxCell>
        <mxCell id="1CUIqOdQTPRliHLXxzgB-396" value="&lt;font style=&quot;font-size: 35px;&quot;&gt;md&lt;/font&gt;" style="rounded=0;whiteSpace=wrap;html=1;fillColor=#fff2cc;strokeColor=#d6b656;" parent="1" vertex="1">
          <mxGeometry x="-3587.5" y="-2710" width="70" height="60" as="geometry" />
        </mxCell>
        <mxCell id="1CUIqOdQTPRliHLXxzgB-397" value="&lt;span style=&quot;font-size: 50px;&quot;&gt;index1&lt;/span&gt;" style="text;html=1;align=center;verticalAlign=middle;whiteSpace=wrap;rounded=0;" parent="1" vertex="1">
          <mxGeometry x="-6068.5" y="-2550" width="170" height="70" as="geometry" />
        </mxCell>
        <mxCell id="1CUIqOdQTPRliHLXxzgB-398" value="" style="endArrow=classic;html=1;rounded=0;" parent="1" edge="1">
          <mxGeometry width="50" height="50" relative="1" as="geometry">
            <mxPoint x="-5978.5" y="-2590" as="sourcePoint" />
            <mxPoint x="-5978.5" y="-2650" as="targetPoint" />
          </mxGeometry>
        </mxCell>
        <mxCell id="1CUIqOdQTPRliHLXxzgB-399" value="&lt;span style=&quot;font-size: 50px;&quot;&gt;index2&lt;/span&gt;" style="text;html=1;align=center;verticalAlign=middle;whiteSpace=wrap;rounded=0;" parent="1" vertex="1">
          <mxGeometry x="-5788.5" y="-2550" width="170" height="70" as="geometry" />
        </mxCell>
        <mxCell id="1CUIqOdQTPRliHLXxzgB-400" value="" style="endArrow=classic;html=1;rounded=0;" parent="1" edge="1">
          <mxGeometry width="50" height="50" relative="1" as="geometry">
            <mxPoint x="-5698.5" y="-2590" as="sourcePoint" />
            <mxPoint x="-5698.5" y="-2650" as="targetPoint" />
          </mxGeometry>
        </mxCell>
        <mxCell id="1CUIqOdQTPRliHLXxzgB-401" value="&lt;span style=&quot;font-size: 50px;&quot;&gt;index3&lt;/span&gt;" style="text;html=1;align=center;verticalAlign=middle;whiteSpace=wrap;rounded=0;" parent="1" vertex="1">
          <mxGeometry x="-5158.5" y="-2550" width="170" height="70" as="geometry" />
        </mxCell>
        <mxCell id="1CUIqOdQTPRliHLXxzgB-402" value="" style="endArrow=classic;html=1;rounded=0;" parent="1" edge="1">
          <mxGeometry width="50" height="50" relative="1" as="geometry">
            <mxPoint x="-5068.5" y="-2590" as="sourcePoint" />
            <mxPoint x="-5068.5" y="-2650" as="targetPoint" />
          </mxGeometry>
        </mxCell>
        <mxCell id="1CUIqOdQTPRliHLXxzgB-403" value="&lt;span style=&quot;font-size: 50px;&quot;&gt;index4&lt;/span&gt;" style="text;html=1;align=center;verticalAlign=middle;whiteSpace=wrap;rounded=0;" parent="1" vertex="1">
          <mxGeometry x="-4497.5" y="-2550" width="170" height="70" as="geometry" />
        </mxCell>
        <mxCell id="1CUIqOdQTPRliHLXxzgB-404" value="" style="endArrow=classic;html=1;rounded=0;" parent="1" edge="1">
          <mxGeometry width="50" height="50" relative="1" as="geometry">
            <mxPoint x="-4407.5" y="-2590" as="sourcePoint" />
            <mxPoint x="-4407.5" y="-2650" as="targetPoint" />
          </mxGeometry>
        </mxCell>
        <mxCell id="1CUIqOdQTPRliHLXxzgB-405" value="&lt;span style=&quot;font-size: 50px;&quot;&gt;index6&lt;/span&gt;" style="text;html=1;align=center;verticalAlign=middle;whiteSpace=wrap;rounded=0;" parent="1" vertex="1">
          <mxGeometry x="-3648.5" y="-2550" width="170" height="70" as="geometry" />
        </mxCell>
        <mxCell id="1CUIqOdQTPRliHLXxzgB-406" value="" style="endArrow=classic;html=1;rounded=0;" parent="1" edge="1">
          <mxGeometry width="50" height="50" relative="1" as="geometry">
            <mxPoint x="-3558.5" y="-2590" as="sourcePoint" />
            <mxPoint x="-3558.5" y="-2650" as="targetPoint" />
          </mxGeometry>
        </mxCell>
        <mxCell id="1CUIqOdQTPRliHLXxzgB-407" value="&lt;span style=&quot;font-size: 50px;&quot;&gt;index7&lt;/span&gt;" style="text;html=1;align=center;verticalAlign=middle;whiteSpace=wrap;rounded=0;" parent="1" vertex="1">
          <mxGeometry x="-3362.5" y="-2550" width="170" height="70" as="geometry" />
        </mxCell>
        <mxCell id="1CUIqOdQTPRliHLXxzgB-408" value="" style="endArrow=classic;html=1;rounded=0;" parent="1" edge="1">
          <mxGeometry width="50" height="50" relative="1" as="geometry">
            <mxPoint x="-3272.5" y="-2590" as="sourcePoint" />
            <mxPoint x="-3272.5" y="-2650" as="targetPoint" />
          </mxGeometry>
        </mxCell>
        <mxCell id="1CUIqOdQTPRliHLXxzgB-409" value="&lt;span style=&quot;font-size: 50px;&quot;&gt;index8&lt;/span&gt;" style="text;html=1;align=center;verticalAlign=middle;whiteSpace=wrap;rounded=0;" parent="1" vertex="1">
          <mxGeometry x="-2782.5" y="-2550" width="170" height="70" as="geometry" />
        </mxCell>
        <mxCell id="1CUIqOdQTPRliHLXxzgB-410" value="" style="endArrow=classic;html=1;rounded=0;" parent="1" edge="1">
          <mxGeometry width="50" height="50" relative="1" as="geometry">
            <mxPoint x="-2692.5" y="-2590" as="sourcePoint" />
            <mxPoint x="-2692.5" y="-2650" as="targetPoint" />
          </mxGeometry>
        </mxCell>
        <mxCell id="1CUIqOdQTPRliHLXxzgB-411" value="&lt;span style=&quot;font-size: 50px;&quot;&gt;index9&lt;/span&gt;" style="text;html=1;align=center;verticalAlign=middle;whiteSpace=wrap;rounded=0;" parent="1" vertex="1">
          <mxGeometry x="-2498.5" y="-2550" width="170" height="70" as="geometry" />
        </mxCell>
        <mxCell id="1CUIqOdQTPRliHLXxzgB-412" value="" style="endArrow=classic;html=1;rounded=0;" parent="1" edge="1">
          <mxGeometry width="50" height="50" relative="1" as="geometry">
            <mxPoint x="-2408.5" y="-2590" as="sourcePoint" />
            <mxPoint x="-2408.5" y="-2650" as="targetPoint" />
          </mxGeometry>
        </mxCell>
        <mxCell id="1CUIqOdQTPRliHLXxzgB-415" value="" style="rounded=0;whiteSpace=wrap;html=1;" parent="1" vertex="1">
          <mxGeometry x="-5530" y="-6530" width="4090" height="60" as="geometry" />
        </mxCell>
        <mxCell id="1CUIqOdQTPRliHLXxzgB-416" value="" style="rounded=0;whiteSpace=wrap;html=1;fillColor=#008a00;fontColor=#ffffff;strokeColor=#005700;" parent="1" vertex="1">
          <mxGeometry x="-5460" y="-6530" width="200" height="60" as="geometry" />
        </mxCell>
        <mxCell id="1CUIqOdQTPRliHLXxzgB-417" value="&lt;span style=&quot;font-size: 35px;&quot;&gt;!&lt;/span&gt;" style="rounded=0;whiteSpace=wrap;html=1;fillColor=#fff2cc;strokeColor=#d6b656;" parent="1" vertex="1">
          <mxGeometry x="-4930" y="-6530" width="60" height="60" as="geometry" />
        </mxCell>
        <mxCell id="1CUIqOdQTPRliHLXxzgB-418" value="&lt;font style=&quot;font-size: 50px;&quot;&gt;Head&lt;br&gt;y&lt;/font&gt;" style="text;html=1;align=center;verticalAlign=middle;whiteSpace=wrap;rounded=0;" parent="1" vertex="1">
          <mxGeometry x="-5040" y="-6370" width="170" height="70" as="geometry" />
        </mxCell>
        <mxCell id="1CUIqOdQTPRliHLXxzgB-419" value="" style="rounded=0;whiteSpace=wrap;html=1;" parent="1" vertex="1">
          <mxGeometry x="-4810" y="-6530" width="180" height="60" as="geometry" />
        </mxCell>
        <mxCell id="1CUIqOdQTPRliHLXxzgB-420" value="&lt;span style=&quot;font-size: 35px;&quot;&gt;X&lt;/span&gt;" style="rounded=0;whiteSpace=wrap;html=1;fillColor=#fff2cc;strokeColor=#d6b656;" parent="1" vertex="1">
          <mxGeometry x="-4870" y="-6530" width="60" height="60" as="geometry" />
        </mxCell>
        <mxCell id="1CUIqOdQTPRliHLXxzgB-421" value="&lt;span style=&quot;font-size: 35px;&quot;&gt;md&lt;/span&gt;" style="rounded=0;whiteSpace=wrap;html=1;fillColor=#fff2cc;strokeColor=#d6b656;" parent="1" vertex="1">
          <mxGeometry x="-4990" y="-6530" width="60" height="60" as="geometry" />
        </mxCell>
        <mxCell id="1CUIqOdQTPRliHLXxzgB-422" value="" style="endArrow=classic;html=1;rounded=0;" parent="1" edge="1">
          <mxGeometry width="50" height="50" relative="1" as="geometry">
            <mxPoint x="-4950" y="-6410" as="sourcePoint" />
            <mxPoint x="-4950" y="-6470" as="targetPoint" />
          </mxGeometry>
        </mxCell>
        <mxCell id="1CUIqOdQTPRliHLXxzgB-423" value="&lt;span style=&quot;font-size: 50px;&quot;&gt;break&lt;/span&gt;" style="text;html=1;align=center;verticalAlign=middle;whiteSpace=wrap;rounded=0;" parent="1" vertex="1">
          <mxGeometry x="-1600" y="-6380" width="170" height="70" as="geometry" />
        </mxCell>
        <mxCell id="1CUIqOdQTPRliHLXxzgB-424" value="&lt;font style=&quot;font-size: 35px;&quot;&gt;md&lt;/font&gt;" style="rounded=0;whiteSpace=wrap;html=1;fillColor=#fff2cc;strokeColor=#d6b656;" parent="1" vertex="1">
          <mxGeometry x="-5530" y="-6530" width="70" height="60" as="geometry" />
        </mxCell>
        <mxCell id="1CUIqOdQTPRliHLXxzgB-425" value="" style="endArrow=classic;html=1;rounded=0;" parent="1" edge="1">
          <mxGeometry width="50" height="50" relative="1" as="geometry">
            <mxPoint x="-1521" y="-6400" as="sourcePoint" />
            <mxPoint x="-1521" y="-6460" as="targetPoint" />
          </mxGeometry>
        </mxCell>
        <mxCell id="1CUIqOdQTPRliHLXxzgB-426" value="" style="rounded=0;whiteSpace=wrap;html=1;fillColor=#fff2cc;strokeColor=#d6b656;" parent="1" vertex="1">
          <mxGeometry x="-1550" y="-6530" width="60" height="60" as="geometry" />
        </mxCell>
        <mxCell id="1CUIqOdQTPRliHLXxzgB-427" value="" style="rounded=0;whiteSpace=wrap;html=1;fillColor=#008a00;fontColor=#ffffff;strokeColor=#005700;" parent="1" vertex="1">
          <mxGeometry x="-3899" y="-6530" width="200" height="60" as="geometry" />
        </mxCell>
        <mxCell id="1CUIqOdQTPRliHLXxzgB-428" value="&lt;font style=&quot;font-size: 35px;&quot;&gt;md&lt;/font&gt;" style="rounded=0;whiteSpace=wrap;html=1;fillColor=#fff2cc;strokeColor=#d6b656;" parent="1" vertex="1">
          <mxGeometry x="-3969" y="-6530" width="70" height="60" as="geometry" />
        </mxCell>
        <mxCell id="1CUIqOdQTPRliHLXxzgB-429" value="&lt;span style=&quot;font-size: 35px;&quot;&gt;x&lt;/span&gt;" style="rounded=0;whiteSpace=wrap;html=1;fillColor=#fff2cc;strokeColor=#d6b656;" parent="1" vertex="1">
          <mxGeometry x="-3639" y="-6530" width="60" height="60" as="geometry" />
        </mxCell>
        <mxCell id="1CUIqOdQTPRliHLXxzgB-430" value="&lt;span style=&quot;font-size: 35px;&quot;&gt;z&lt;/span&gt;" style="text;html=1;align=center;verticalAlign=middle;whiteSpace=wrap;rounded=0;" parent="1" vertex="1">
          <mxGeometry x="-3749" y="-6370" width="170" height="70" as="geometry" />
        </mxCell>
        <mxCell id="1CUIqOdQTPRliHLXxzgB-431" value="&lt;span style=&quot;font-size: 35px;&quot;&gt;a&lt;/span&gt;" style="rounded=0;whiteSpace=wrap;html=1;fillColor=#fff2cc;strokeColor=#d6b656;" parent="1" vertex="1">
          <mxGeometry x="-3579" y="-6530" width="60" height="60" as="geometry" />
        </mxCell>
        <mxCell id="1CUIqOdQTPRliHLXxzgB-432" value="&lt;span style=&quot;font-size: 35px;&quot;&gt;md&lt;/span&gt;" style="rounded=0;whiteSpace=wrap;html=1;fillColor=#fff2cc;strokeColor=#d6b656;" parent="1" vertex="1">
          <mxGeometry x="-3699" y="-6530" width="60" height="60" as="geometry" />
        </mxCell>
        <mxCell id="1CUIqOdQTPRliHLXxzgB-433" value="" style="endArrow=classic;html=1;rounded=0;" parent="1" edge="1">
          <mxGeometry width="50" height="50" relative="1" as="geometry">
            <mxPoint x="-3659" y="-6410" as="sourcePoint" />
            <mxPoint x="-3659" y="-6470" as="targetPoint" />
          </mxGeometry>
        </mxCell>
        <mxCell id="1CUIqOdQTPRliHLXxzgB-434" value="" style="rounded=0;whiteSpace=wrap;html=1;fillColor=#008a00;fontColor=#ffffff;strokeColor=#005700;" parent="1" vertex="1">
          <mxGeometry x="-2764" y="-6530" width="200" height="60" as="geometry" />
        </mxCell>
        <mxCell id="1CUIqOdQTPRliHLXxzgB-435" value="&lt;font style=&quot;font-size: 35px;&quot;&gt;md&lt;/font&gt;" style="rounded=0;whiteSpace=wrap;html=1;fillColor=#fff2cc;strokeColor=#d6b656;" parent="1" vertex="1">
          <mxGeometry x="-2834" y="-6530" width="70" height="60" as="geometry" />
        </mxCell>
        <mxCell id="1CUIqOdQTPRliHLXxzgB-436" value="&lt;span style=&quot;font-size: 35px;&quot;&gt;z&lt;/span&gt;" style="rounded=0;whiteSpace=wrap;html=1;fillColor=#fff2cc;strokeColor=#d6b656;" parent="1" vertex="1">
          <mxGeometry x="-2500" y="-6530" width="60" height="60" as="geometry" />
        </mxCell>
        <mxCell id="1CUIqOdQTPRliHLXxzgB-437" value="&lt;font style=&quot;font-size: 50px;&quot;&gt;Tail&lt;br&gt;a&lt;/font&gt;" style="text;html=1;align=center;verticalAlign=middle;whiteSpace=wrap;rounded=0;" parent="1" vertex="1">
          <mxGeometry x="-2610" y="-6370" width="170" height="70" as="geometry" />
        </mxCell>
        <mxCell id="1CUIqOdQTPRliHLXxzgB-438" value="" style="rounded=0;whiteSpace=wrap;html=1;" parent="1" vertex="1">
          <mxGeometry x="-2380" y="-6530" width="140" height="60" as="geometry" />
        </mxCell>
        <mxCell id="1CUIqOdQTPRliHLXxzgB-439" value="&lt;span style=&quot;font-size: 35px;&quot;&gt;!&lt;/span&gt;" style="rounded=0;whiteSpace=wrap;html=1;fillColor=#fff2cc;strokeColor=#d6b656;" parent="1" vertex="1">
          <mxGeometry x="-2440" y="-6530" width="60" height="60" as="geometry" />
        </mxCell>
        <mxCell id="1CUIqOdQTPRliHLXxzgB-440" value="&lt;span style=&quot;font-size: 35px;&quot;&gt;md&lt;/span&gt;" style="rounded=0;whiteSpace=wrap;html=1;fillColor=#fff2cc;strokeColor=#d6b656;" parent="1" vertex="1">
          <mxGeometry x="-2560" y="-6530" width="60" height="60" as="geometry" />
        </mxCell>
        <mxCell id="1CUIqOdQTPRliHLXxzgB-441" value="" style="endArrow=classic;html=1;rounded=0;" parent="1" edge="1">
          <mxGeometry width="50" height="50" relative="1" as="geometry">
            <mxPoint x="-2520" y="-6410" as="sourcePoint" />
            <mxPoint x="-2520" y="-6470" as="targetPoint" />
          </mxGeometry>
        </mxCell>
        <mxCell id="1CUIqOdQTPRliHLXxzgB-442" value="" style="rounded=0;whiteSpace=wrap;html=1;fillColor=#008a00;fontColor=#ffffff;strokeColor=#005700;" parent="1" vertex="1">
          <mxGeometry x="-5190" y="-6530" width="200" height="60" as="geometry" />
        </mxCell>
        <mxCell id="1CUIqOdQTPRliHLXxzgB-443" value="&lt;font style=&quot;font-size: 35px;&quot;&gt;md&lt;/font&gt;" style="rounded=0;whiteSpace=wrap;html=1;fillColor=#fff2cc;strokeColor=#d6b656;" parent="1" vertex="1">
          <mxGeometry x="-5260" y="-6530" width="70" height="60" as="geometry" />
        </mxCell>
        <mxCell id="1CUIqOdQTPRliHLXxzgB-444" value="" style="rounded=0;whiteSpace=wrap;html=1;fillColor=#008a00;fontColor=#ffffff;strokeColor=#005700;" parent="1" vertex="1">
          <mxGeometry x="-2170" y="-6530" width="200" height="60" as="geometry" />
        </mxCell>
        <mxCell id="1CUIqOdQTPRliHLXxzgB-445" value="&lt;font style=&quot;font-size: 35px;&quot;&gt;md&lt;/font&gt;" style="rounded=0;whiteSpace=wrap;html=1;fillColor=#fff2cc;strokeColor=#d6b656;" parent="1" vertex="1">
          <mxGeometry x="-2240" y="-6530" width="70" height="60" as="geometry" />
        </mxCell>
        <mxCell id="1CUIqOdQTPRliHLXxzgB-446" value="" style="rounded=0;whiteSpace=wrap;html=1;fillColor=#008a00;fontColor=#ffffff;strokeColor=#005700;" parent="1" vertex="1">
          <mxGeometry x="-1900" y="-6530" width="350" height="60" as="geometry" />
        </mxCell>
        <mxCell id="1CUIqOdQTPRliHLXxzgB-447" value="&lt;font style=&quot;font-size: 35px;&quot;&gt;md&lt;/font&gt;" style="rounded=0;whiteSpace=wrap;html=1;fillColor=#fff2cc;strokeColor=#d6b656;" parent="1" vertex="1">
          <mxGeometry x="-1970" y="-6530" width="70" height="60" as="geometry" />
        </mxCell>
        <mxCell id="1CUIqOdQTPRliHLXxzgB-448" value="&lt;span style=&quot;font-size: 35px;&quot;&gt;y&lt;/span&gt;" style="rounded=0;whiteSpace=wrap;html=1;fillColor=#fff2cc;strokeColor=#d6b656;" parent="1" vertex="1">
          <mxGeometry x="-4304" y="-6530" width="60" height="60" as="geometry" />
        </mxCell>
        <mxCell id="1CUIqOdQTPRliHLXxzgB-449" value="" style="rounded=0;whiteSpace=wrap;html=1;" parent="1" vertex="1">
          <mxGeometry x="-4184" y="-6530" width="210" height="60" as="geometry" />
        </mxCell>
        <mxCell id="1CUIqOdQTPRliHLXxzgB-450" value="&lt;span style=&quot;font-size: 35px;&quot;&gt;z&lt;/span&gt;" style="rounded=0;whiteSpace=wrap;html=1;fillColor=#fff2cc;strokeColor=#d6b656;" parent="1" vertex="1">
          <mxGeometry x="-4244" y="-6530" width="60" height="60" as="geometry" />
        </mxCell>
        <mxCell id="1CUIqOdQTPRliHLXxzgB-451" value="" style="endArrow=classic;html=1;rounded=0;" parent="1" edge="1">
          <mxGeometry width="50" height="50" relative="1" as="geometry">
            <mxPoint x="-4324" y="-6410" as="sourcePoint" />
            <mxPoint x="-4324" y="-6470" as="targetPoint" />
          </mxGeometry>
        </mxCell>
        <mxCell id="1CUIqOdQTPRliHLXxzgB-452" value="&lt;font style=&quot;font-size: 35px;&quot;&gt;X&lt;/font&gt;" style="text;html=1;align=center;verticalAlign=middle;whiteSpace=wrap;rounded=0;" parent="1" vertex="1">
          <mxGeometry x="-4410" y="-6405" width="170" height="70" as="geometry" />
        </mxCell>
        <mxCell id="1CUIqOdQTPRliHLXxzgB-453" value="&lt;span style=&quot;font-size: 35px;&quot;&gt;md&lt;/span&gt;" style="rounded=0;whiteSpace=wrap;html=1;fillColor=#fff2cc;strokeColor=#d6b656;" parent="1" vertex="1">
          <mxGeometry x="-4364" y="-6530" width="60" height="60" as="geometry" />
        </mxCell>
        <mxCell id="1CUIqOdQTPRliHLXxzgB-454" value="" style="rounded=0;whiteSpace=wrap;html=1;fillColor=#008a00;fontColor=#ffffff;strokeColor=#005700;" parent="1" vertex="1">
          <mxGeometry x="-4560" y="-6530" width="200" height="60" as="geometry" />
        </mxCell>
        <mxCell id="1CUIqOdQTPRliHLXxzgB-455" value="&lt;font style=&quot;font-size: 35px;&quot;&gt;md&lt;/font&gt;" style="rounded=0;whiteSpace=wrap;html=1;fillColor=#fff2cc;strokeColor=#d6b656;" parent="1" vertex="1">
          <mxGeometry x="-4630" y="-6530" width="70" height="60" as="geometry" />
        </mxCell>
        <mxCell id="1CUIqOdQTPRliHLXxzgB-456" value="" style="rounded=0;whiteSpace=wrap;html=1;fillColor=#008a00;fontColor=#ffffff;strokeColor=#005700;" parent="1" vertex="1">
          <mxGeometry x="-3309" y="-6530" width="200" height="60" as="geometry" />
        </mxCell>
        <mxCell id="1CUIqOdQTPRliHLXxzgB-457" value="&lt;font style=&quot;font-size: 35px;&quot;&gt;md&lt;/font&gt;" style="rounded=0;whiteSpace=wrap;html=1;fillColor=#fff2cc;strokeColor=#d6b656;" parent="1" vertex="1">
          <mxGeometry x="-3379" y="-6530" width="70" height="60" as="geometry" />
        </mxCell>
        <mxCell id="1CUIqOdQTPRliHLXxzgB-458" value="" style="rounded=0;whiteSpace=wrap;html=1;fillColor=#008a00;fontColor=#ffffff;strokeColor=#005700;" parent="1" vertex="1">
          <mxGeometry x="-3039" y="-6530" width="200" height="60" as="geometry" />
        </mxCell>
        <mxCell id="1CUIqOdQTPRliHLXxzgB-459" value="&lt;font style=&quot;font-size: 35px;&quot;&gt;md&lt;/font&gt;" style="rounded=0;whiteSpace=wrap;html=1;fillColor=#fff2cc;strokeColor=#d6b656;" parent="1" vertex="1">
          <mxGeometry x="-3109" y="-6530" width="70" height="60" as="geometry" />
        </mxCell>
        <mxCell id="1CUIqOdQTPRliHLXxzgB-460" value="&lt;span style=&quot;font-size: 50px;&quot;&gt;index1&lt;/span&gt;" style="text;html=1;align=center;verticalAlign=middle;whiteSpace=wrap;rounded=0;" parent="1" vertex="1">
          <mxGeometry x="-5590" y="-6370" width="170" height="70" as="geometry" />
        </mxCell>
        <mxCell id="1CUIqOdQTPRliHLXxzgB-461" value="" style="endArrow=classic;html=1;rounded=0;" parent="1" edge="1">
          <mxGeometry width="50" height="50" relative="1" as="geometry">
            <mxPoint x="-5500" y="-6410" as="sourcePoint" />
            <mxPoint x="-5500" y="-6470" as="targetPoint" />
          </mxGeometry>
        </mxCell>
        <mxCell id="1CUIqOdQTPRliHLXxzgB-462" value="&lt;span style=&quot;font-size: 50px;&quot;&gt;index2&lt;/span&gt;" style="text;html=1;align=center;verticalAlign=middle;whiteSpace=wrap;rounded=0;" parent="1" vertex="1">
          <mxGeometry x="-5310" y="-6370" width="170" height="70" as="geometry" />
        </mxCell>
        <mxCell id="1CUIqOdQTPRliHLXxzgB-463" value="" style="endArrow=classic;html=1;rounded=0;" parent="1" edge="1">
          <mxGeometry width="50" height="50" relative="1" as="geometry">
            <mxPoint x="-5220" y="-6410" as="sourcePoint" />
            <mxPoint x="-5220" y="-6470" as="targetPoint" />
          </mxGeometry>
        </mxCell>
        <mxCell id="1CUIqOdQTPRliHLXxzgB-464" value="&lt;span style=&quot;font-size: 50px;&quot;&gt;index3&lt;/span&gt;" style="text;html=1;align=center;verticalAlign=middle;whiteSpace=wrap;rounded=0;" parent="1" vertex="1">
          <mxGeometry x="-4680" y="-6370" width="170" height="70" as="geometry" />
        </mxCell>
        <mxCell id="1CUIqOdQTPRliHLXxzgB-465" value="" style="endArrow=classic;html=1;rounded=0;" parent="1" edge="1">
          <mxGeometry width="50" height="50" relative="1" as="geometry">
            <mxPoint x="-4590" y="-6410" as="sourcePoint" />
            <mxPoint x="-4590" y="-6470" as="targetPoint" />
          </mxGeometry>
        </mxCell>
        <mxCell id="1CUIqOdQTPRliHLXxzgB-466" value="&lt;span style=&quot;font-size: 50px;&quot;&gt;index4&lt;/span&gt;" style="text;html=1;align=center;verticalAlign=middle;whiteSpace=wrap;rounded=0;" parent="1" vertex="1">
          <mxGeometry x="-4019" y="-6370" width="170" height="70" as="geometry" />
        </mxCell>
        <mxCell id="1CUIqOdQTPRliHLXxzgB-467" value="" style="endArrow=classic;html=1;rounded=0;" parent="1" edge="1">
          <mxGeometry width="50" height="50" relative="1" as="geometry">
            <mxPoint x="-3929" y="-6410" as="sourcePoint" />
            <mxPoint x="-3929" y="-6470" as="targetPoint" />
          </mxGeometry>
        </mxCell>
        <mxCell id="1CUIqOdQTPRliHLXxzgB-468" value="&lt;span style=&quot;font-size: 50px;&quot;&gt;index6&lt;/span&gt;" style="text;html=1;align=center;verticalAlign=middle;whiteSpace=wrap;rounded=0;" parent="1" vertex="1">
          <mxGeometry x="-3170" y="-6370" width="170" height="70" as="geometry" />
        </mxCell>
        <mxCell id="1CUIqOdQTPRliHLXxzgB-469" value="" style="endArrow=classic;html=1;rounded=0;" parent="1" edge="1">
          <mxGeometry width="50" height="50" relative="1" as="geometry">
            <mxPoint x="-3080" y="-6410" as="sourcePoint" />
            <mxPoint x="-3080" y="-6470" as="targetPoint" />
          </mxGeometry>
        </mxCell>
        <mxCell id="1CUIqOdQTPRliHLXxzgB-470" value="&lt;span style=&quot;font-size: 50px;&quot;&gt;index7&lt;/span&gt;" style="text;html=1;align=center;verticalAlign=middle;whiteSpace=wrap;rounded=0;" parent="1" vertex="1">
          <mxGeometry x="-2884" y="-6370" width="170" height="70" as="geometry" />
        </mxCell>
        <mxCell id="1CUIqOdQTPRliHLXxzgB-471" value="" style="endArrow=classic;html=1;rounded=0;" parent="1" edge="1">
          <mxGeometry width="50" height="50" relative="1" as="geometry">
            <mxPoint x="-2794" y="-6410" as="sourcePoint" />
            <mxPoint x="-2794" y="-6470" as="targetPoint" />
          </mxGeometry>
        </mxCell>
        <mxCell id="1CUIqOdQTPRliHLXxzgB-472" value="&lt;span style=&quot;font-size: 50px;&quot;&gt;index8&lt;/span&gt;" style="text;html=1;align=center;verticalAlign=middle;whiteSpace=wrap;rounded=0;" parent="1" vertex="1">
          <mxGeometry x="-2304" y="-6370" width="170" height="70" as="geometry" />
        </mxCell>
        <mxCell id="1CUIqOdQTPRliHLXxzgB-473" value="" style="endArrow=classic;html=1;rounded=0;" parent="1" edge="1">
          <mxGeometry width="50" height="50" relative="1" as="geometry">
            <mxPoint x="-2214" y="-6410" as="sourcePoint" />
            <mxPoint x="-2214" y="-6470" as="targetPoint" />
          </mxGeometry>
        </mxCell>
        <mxCell id="1CUIqOdQTPRliHLXxzgB-474" value="&lt;span style=&quot;font-size: 50px;&quot;&gt;index9&lt;/span&gt;" style="text;html=1;align=center;verticalAlign=middle;whiteSpace=wrap;rounded=0;" parent="1" vertex="1">
          <mxGeometry x="-2020" y="-6370" width="170" height="70" as="geometry" />
        </mxCell>
        <mxCell id="1CUIqOdQTPRliHLXxzgB-475" value="" style="endArrow=classic;html=1;rounded=0;" parent="1" edge="1">
          <mxGeometry width="50" height="50" relative="1" as="geometry">
            <mxPoint x="-1930" y="-6410" as="sourcePoint" />
            <mxPoint x="-1930" y="-6470" as="targetPoint" />
          </mxGeometry>
        </mxCell>
        <mxCell id="1CUIqOdQTPRliHLXxzgB-476" value="&lt;span style=&quot;font-size: 50px;&quot;&gt;index5&lt;/span&gt;" style="text;html=1;align=center;verticalAlign=middle;whiteSpace=wrap;rounded=0;" parent="1" vertex="1">
          <mxGeometry x="-3438" y="-6365" width="170" height="70" as="geometry" />
        </mxCell>
        <mxCell id="1CUIqOdQTPRliHLXxzgB-477" value="" style="endArrow=classic;html=1;rounded=0;" parent="1" edge="1">
          <mxGeometry width="50" height="50" relative="1" as="geometry">
            <mxPoint x="-3348" y="-6405" as="sourcePoint" />
            <mxPoint x="-3348" y="-6465" as="targetPoint" />
          </mxGeometry>
        </mxCell>
        <mxCell id="1CUIqOdQTPRliHLXxzgB-478" value="" style="rounded=0;whiteSpace=wrap;html=1;" parent="1" vertex="1">
          <mxGeometry x="-6047.5" y="-2335" width="4090" height="60" as="geometry" />
        </mxCell>
        <mxCell id="1CUIqOdQTPRliHLXxzgB-479" value="" style="rounded=0;whiteSpace=wrap;html=1;fillColor=#008a00;fontColor=#ffffff;strokeColor=#005700;" parent="1" vertex="1">
          <mxGeometry x="-5977.5" y="-2335" width="200" height="60" as="geometry" />
        </mxCell>
        <mxCell id="1CUIqOdQTPRliHLXxzgB-480" value="&lt;span style=&quot;font-size: 35px;&quot;&gt;!&lt;/span&gt;" style="rounded=0;whiteSpace=wrap;html=1;fillColor=#fff2cc;strokeColor=#d6b656;" parent="1" vertex="1">
          <mxGeometry x="-5447.5" y="-2335" width="60" height="60" as="geometry" />
        </mxCell>
        <mxCell id="1CUIqOdQTPRliHLXxzgB-481" value="&lt;font style=&quot;font-size: 50px;&quot;&gt;Head&lt;br&gt;y&lt;/font&gt;" style="text;html=1;align=center;verticalAlign=middle;whiteSpace=wrap;rounded=0;" parent="1" vertex="1">
          <mxGeometry x="-5557.5" y="-2175" width="170" height="70" as="geometry" />
        </mxCell>
        <mxCell id="1CUIqOdQTPRliHLXxzgB-482" value="" style="rounded=0;whiteSpace=wrap;html=1;" parent="1" vertex="1">
          <mxGeometry x="-5327.5" y="-2335" width="180" height="60" as="geometry" />
        </mxCell>
        <mxCell id="1CUIqOdQTPRliHLXxzgB-483" value="&lt;span style=&quot;font-size: 35px;&quot;&gt;X&lt;/span&gt;" style="rounded=0;whiteSpace=wrap;html=1;fillColor=#fff2cc;strokeColor=#d6b656;" parent="1" vertex="1">
          <mxGeometry x="-5387.5" y="-2335" width="60" height="60" as="geometry" />
        </mxCell>
        <mxCell id="1CUIqOdQTPRliHLXxzgB-484" value="&lt;span style=&quot;font-size: 35px;&quot;&gt;md&lt;/span&gt;" style="rounded=0;whiteSpace=wrap;html=1;fillColor=#fff2cc;strokeColor=#d6b656;" parent="1" vertex="1">
          <mxGeometry x="-5507.5" y="-2335" width="60" height="60" as="geometry" />
        </mxCell>
        <mxCell id="1CUIqOdQTPRliHLXxzgB-485" value="" style="endArrow=classic;html=1;rounded=0;" parent="1" edge="1">
          <mxGeometry width="50" height="50" relative="1" as="geometry">
            <mxPoint x="-5467.5" y="-2215" as="sourcePoint" />
            <mxPoint x="-5467.5" y="-2275" as="targetPoint" />
          </mxGeometry>
        </mxCell>
        <mxCell id="1CUIqOdQTPRliHLXxzgB-486" value="&lt;span style=&quot;font-size: 50px;&quot;&gt;break&lt;/span&gt;" style="text;html=1;align=center;verticalAlign=middle;whiteSpace=wrap;rounded=0;" parent="1" vertex="1">
          <mxGeometry x="-2117.5" y="-2185" width="170" height="70" as="geometry" />
        </mxCell>
        <mxCell id="1CUIqOdQTPRliHLXxzgB-487" value="&lt;font style=&quot;font-size: 35px;&quot;&gt;md&lt;/font&gt;" style="rounded=0;whiteSpace=wrap;html=1;fillColor=#fff2cc;strokeColor=#d6b656;" parent="1" vertex="1">
          <mxGeometry x="-6047.5" y="-2335" width="70" height="60" as="geometry" />
        </mxCell>
        <mxCell id="1CUIqOdQTPRliHLXxzgB-488" value="" style="endArrow=classic;html=1;rounded=0;" parent="1" edge="1">
          <mxGeometry width="50" height="50" relative="1" as="geometry">
            <mxPoint x="-2038.5" y="-2205" as="sourcePoint" />
            <mxPoint x="-2038.5" y="-2265" as="targetPoint" />
          </mxGeometry>
        </mxCell>
        <mxCell id="1CUIqOdQTPRliHLXxzgB-489" value="" style="rounded=0;whiteSpace=wrap;html=1;fillColor=#fff2cc;strokeColor=#d6b656;" parent="1" vertex="1">
          <mxGeometry x="-2067.5" y="-2335" width="60" height="60" as="geometry" />
        </mxCell>
        <mxCell id="1CUIqOdQTPRliHLXxzgB-490" value="" style="rounded=0;whiteSpace=wrap;html=1;fillColor=#008a00;fontColor=#ffffff;strokeColor=#005700;" parent="1" vertex="1">
          <mxGeometry x="-4416.5" y="-2335" width="200" height="60" as="geometry" />
        </mxCell>
        <mxCell id="1CUIqOdQTPRliHLXxzgB-491" value="&lt;font style=&quot;font-size: 35px;&quot;&gt;md&lt;/font&gt;" style="rounded=0;whiteSpace=wrap;html=1;fillColor=#fff2cc;strokeColor=#d6b656;" parent="1" vertex="1">
          <mxGeometry x="-4486.5" y="-2335" width="70" height="60" as="geometry" />
        </mxCell>
        <mxCell id="1CUIqOdQTPRliHLXxzgB-492" value="&lt;span style=&quot;font-size: 35px;&quot;&gt;x&lt;/span&gt;" style="rounded=0;whiteSpace=wrap;html=1;fillColor=#fff2cc;strokeColor=#d6b656;" parent="1" vertex="1">
          <mxGeometry x="-4156.5" y="-2335" width="60" height="60" as="geometry" />
        </mxCell>
        <mxCell id="1CUIqOdQTPRliHLXxzgB-493" value="&lt;span style=&quot;font-size: 35px;&quot;&gt;z&lt;/span&gt;" style="text;html=1;align=center;verticalAlign=middle;whiteSpace=wrap;rounded=0;" parent="1" vertex="1">
          <mxGeometry x="-4266.5" y="-2175" width="170" height="70" as="geometry" />
        </mxCell>
        <mxCell id="1CUIqOdQTPRliHLXxzgB-494" value="&lt;span style=&quot;font-size: 35px;&quot;&gt;a&lt;/span&gt;" style="rounded=0;whiteSpace=wrap;html=1;fillColor=#0050ef;strokeColor=#001DBC;fontColor=#ffffff;" parent="1" vertex="1">
          <mxGeometry x="-4096.5" y="-2335" width="60" height="60" as="geometry" />
        </mxCell>
        <mxCell id="1CUIqOdQTPRliHLXxzgB-495" value="&lt;span style=&quot;font-size: 35px;&quot;&gt;md&lt;/span&gt;" style="rounded=0;whiteSpace=wrap;html=1;fillColor=#fff2cc;strokeColor=#d6b656;" parent="1" vertex="1">
          <mxGeometry x="-4216.5" y="-2335" width="60" height="60" as="geometry" />
        </mxCell>
        <mxCell id="1CUIqOdQTPRliHLXxzgB-496" value="" style="endArrow=classic;html=1;rounded=0;" parent="1" edge="1">
          <mxGeometry width="50" height="50" relative="1" as="geometry">
            <mxPoint x="-4176.5" y="-2215" as="sourcePoint" />
            <mxPoint x="-4176.5" y="-2275" as="targetPoint" />
          </mxGeometry>
        </mxCell>
        <mxCell id="1CUIqOdQTPRliHLXxzgB-498" value="&lt;font style=&quot;font-size: 35px;&quot;&gt;md&lt;/font&gt;" style="rounded=0;whiteSpace=wrap;html=1;fillColor=#0050ef;strokeColor=#001DBC;fontColor=#ffffff;" parent="1" vertex="1">
          <mxGeometry x="-3362.5" y="-2335" width="70" height="60" as="geometry" />
        </mxCell>
        <mxCell id="1CUIqOdQTPRliHLXxzgB-500" value="&lt;font style=&quot;font-size: 50px;&quot;&gt;Tail&lt;br&gt;a&lt;/font&gt;" style="text;html=1;align=center;verticalAlign=middle;whiteSpace=wrap;rounded=0;fillColor=#0050ef;fontColor=#ffffff;strokeColor=#001DBC;" parent="1" vertex="1">
          <mxGeometry x="-3401.5" y="-2170" width="153" height="105" as="geometry" />
        </mxCell>
        <mxCell id="1CUIqOdQTPRliHLXxzgB-505" value="" style="rounded=0;whiteSpace=wrap;html=1;fillColor=#008a00;fontColor=#ffffff;strokeColor=#005700;" parent="1" vertex="1">
          <mxGeometry x="-5707.5" y="-2335" width="200" height="60" as="geometry" />
        </mxCell>
        <mxCell id="1CUIqOdQTPRliHLXxzgB-506" value="&lt;font style=&quot;font-size: 35px;&quot;&gt;md&lt;/font&gt;" style="rounded=0;whiteSpace=wrap;html=1;fillColor=#fff2cc;strokeColor=#d6b656;" parent="1" vertex="1">
          <mxGeometry x="-5777.5" y="-2335" width="70" height="60" as="geometry" />
        </mxCell>
        <mxCell id="1CUIqOdQTPRliHLXxzgB-507" value="" style="rounded=0;whiteSpace=wrap;html=1;fillColor=#008a00;fontColor=#ffffff;strokeColor=#005700;" parent="1" vertex="1">
          <mxGeometry x="-2687.5" y="-2335" width="200" height="60" as="geometry" />
        </mxCell>
        <mxCell id="1CUIqOdQTPRliHLXxzgB-508" value="&lt;font style=&quot;font-size: 35px;&quot;&gt;md&lt;/font&gt;" style="rounded=0;whiteSpace=wrap;html=1;fillColor=#fff2cc;strokeColor=#d6b656;" parent="1" vertex="1">
          <mxGeometry x="-2757.5" y="-2335" width="70" height="60" as="geometry" />
        </mxCell>
        <mxCell id="1CUIqOdQTPRliHLXxzgB-509" value="" style="rounded=0;whiteSpace=wrap;html=1;fillColor=#008a00;fontColor=#ffffff;strokeColor=#005700;" parent="1" vertex="1">
          <mxGeometry x="-2417.5" y="-2335" width="350" height="60" as="geometry" />
        </mxCell>
        <mxCell id="1CUIqOdQTPRliHLXxzgB-510" value="&lt;font style=&quot;font-size: 35px;&quot;&gt;md&lt;/font&gt;" style="rounded=0;whiteSpace=wrap;html=1;fillColor=#fff2cc;strokeColor=#d6b656;" parent="1" vertex="1">
          <mxGeometry x="-2487.5" y="-2335" width="70" height="60" as="geometry" />
        </mxCell>
        <mxCell id="1CUIqOdQTPRliHLXxzgB-511" value="&lt;span style=&quot;font-size: 35px;&quot;&gt;y&lt;/span&gt;" style="rounded=0;whiteSpace=wrap;html=1;fillColor=#fff2cc;strokeColor=#d6b656;" parent="1" vertex="1">
          <mxGeometry x="-4821.5" y="-2335" width="60" height="60" as="geometry" />
        </mxCell>
        <mxCell id="1CUIqOdQTPRliHLXxzgB-512" value="" style="rounded=0;whiteSpace=wrap;html=1;" parent="1" vertex="1">
          <mxGeometry x="-4701.5" y="-2335" width="210" height="60" as="geometry" />
        </mxCell>
        <mxCell id="1CUIqOdQTPRliHLXxzgB-513" value="&lt;span style=&quot;font-size: 35px;&quot;&gt;z&lt;/span&gt;" style="rounded=0;whiteSpace=wrap;html=1;fillColor=#fff2cc;strokeColor=#d6b656;" parent="1" vertex="1">
          <mxGeometry x="-4761.5" y="-2335" width="60" height="60" as="geometry" />
        </mxCell>
        <mxCell id="1CUIqOdQTPRliHLXxzgB-514" value="" style="endArrow=classic;html=1;rounded=0;" parent="1" edge="1">
          <mxGeometry width="50" height="50" relative="1" as="geometry">
            <mxPoint x="-4841.5" y="-2215" as="sourcePoint" />
            <mxPoint x="-4841.5" y="-2275" as="targetPoint" />
          </mxGeometry>
        </mxCell>
        <mxCell id="1CUIqOdQTPRliHLXxzgB-515" value="&lt;font style=&quot;font-size: 35px;&quot;&gt;X&lt;/font&gt;" style="text;html=1;align=center;verticalAlign=middle;whiteSpace=wrap;rounded=0;" parent="1" vertex="1">
          <mxGeometry x="-4927.5" y="-2210" width="170" height="70" as="geometry" />
        </mxCell>
        <mxCell id="1CUIqOdQTPRliHLXxzgB-516" value="&lt;span style=&quot;font-size: 35px;&quot;&gt;md&lt;/span&gt;" style="rounded=0;whiteSpace=wrap;html=1;fillColor=#fff2cc;strokeColor=#d6b656;" parent="1" vertex="1">
          <mxGeometry x="-4881.5" y="-2335" width="60" height="60" as="geometry" />
        </mxCell>
        <mxCell id="1CUIqOdQTPRliHLXxzgB-517" value="" style="rounded=0;whiteSpace=wrap;html=1;fillColor=#008a00;fontColor=#ffffff;strokeColor=#005700;" parent="1" vertex="1">
          <mxGeometry x="-5077.5" y="-2335" width="200" height="60" as="geometry" />
        </mxCell>
        <mxCell id="1CUIqOdQTPRliHLXxzgB-518" value="&lt;font style=&quot;font-size: 35px;&quot;&gt;md&lt;/font&gt;" style="rounded=0;whiteSpace=wrap;html=1;fillColor=#fff2cc;strokeColor=#d6b656;" parent="1" vertex="1">
          <mxGeometry x="-5147.5" y="-2335" width="70" height="60" as="geometry" />
        </mxCell>
        <mxCell id="1CUIqOdQTPRliHLXxzgB-519" value="" style="rounded=0;whiteSpace=wrap;html=1;fillColor=#008a00;fontColor=#ffffff;strokeColor=#005700;" parent="1" vertex="1">
          <mxGeometry x="-3826.5" y="-2335" width="200" height="60" as="geometry" />
        </mxCell>
        <mxCell id="1CUIqOdQTPRliHLXxzgB-520" value="&lt;font style=&quot;font-size: 35px;&quot;&gt;md&lt;/font&gt;" style="rounded=0;whiteSpace=wrap;html=1;fillColor=#fff2cc;strokeColor=#d6b656;" parent="1" vertex="1">
          <mxGeometry x="-3896.5" y="-2335" width="70" height="60" as="geometry" />
        </mxCell>
        <mxCell id="1CUIqOdQTPRliHLXxzgB-521" value="" style="rounded=0;whiteSpace=wrap;html=1;fillColor=#008a00;fontColor=#ffffff;strokeColor=#005700;" parent="1" vertex="1">
          <mxGeometry x="-3556.5" y="-2335" width="200" height="60" as="geometry" />
        </mxCell>
        <mxCell id="1CUIqOdQTPRliHLXxzgB-522" value="&lt;font style=&quot;font-size: 35px;&quot;&gt;md&lt;/font&gt;" style="rounded=0;whiteSpace=wrap;html=1;fillColor=#fff2cc;strokeColor=#d6b656;" parent="1" vertex="1">
          <mxGeometry x="-3626.5" y="-2335" width="70" height="60" as="geometry" />
        </mxCell>
        <mxCell id="1CUIqOdQTPRliHLXxzgB-523" value="&lt;span style=&quot;font-size: 50px;&quot;&gt;index1&lt;/span&gt;" style="text;html=1;align=center;verticalAlign=middle;whiteSpace=wrap;rounded=0;" parent="1" vertex="1">
          <mxGeometry x="-6107.5" y="-2175" width="170" height="70" as="geometry" />
        </mxCell>
        <mxCell id="1CUIqOdQTPRliHLXxzgB-524" value="" style="endArrow=classic;html=1;rounded=0;" parent="1" edge="1">
          <mxGeometry width="50" height="50" relative="1" as="geometry">
            <mxPoint x="-6017.5" y="-2215" as="sourcePoint" />
            <mxPoint x="-6017.5" y="-2275" as="targetPoint" />
          </mxGeometry>
        </mxCell>
        <mxCell id="1CUIqOdQTPRliHLXxzgB-525" value="&lt;span style=&quot;font-size: 50px;&quot;&gt;index2&lt;/span&gt;" style="text;html=1;align=center;verticalAlign=middle;whiteSpace=wrap;rounded=0;" parent="1" vertex="1">
          <mxGeometry x="-5827.5" y="-2175" width="170" height="70" as="geometry" />
        </mxCell>
        <mxCell id="1CUIqOdQTPRliHLXxzgB-526" value="" style="endArrow=classic;html=1;rounded=0;" parent="1" edge="1">
          <mxGeometry width="50" height="50" relative="1" as="geometry">
            <mxPoint x="-5737.5" y="-2215" as="sourcePoint" />
            <mxPoint x="-5737.5" y="-2275" as="targetPoint" />
          </mxGeometry>
        </mxCell>
        <mxCell id="1CUIqOdQTPRliHLXxzgB-527" value="&lt;span style=&quot;font-size: 50px;&quot;&gt;index3&lt;/span&gt;" style="text;html=1;align=center;verticalAlign=middle;whiteSpace=wrap;rounded=0;" parent="1" vertex="1">
          <mxGeometry x="-5197.5" y="-2175" width="170" height="70" as="geometry" />
        </mxCell>
        <mxCell id="1CUIqOdQTPRliHLXxzgB-528" value="" style="endArrow=classic;html=1;rounded=0;" parent="1" edge="1">
          <mxGeometry width="50" height="50" relative="1" as="geometry">
            <mxPoint x="-5107.5" y="-2215" as="sourcePoint" />
            <mxPoint x="-5107.5" y="-2275" as="targetPoint" />
          </mxGeometry>
        </mxCell>
        <mxCell id="1CUIqOdQTPRliHLXxzgB-529" value="&lt;span style=&quot;font-size: 50px;&quot;&gt;index4&lt;/span&gt;" style="text;html=1;align=center;verticalAlign=middle;whiteSpace=wrap;rounded=0;" parent="1" vertex="1">
          <mxGeometry x="-4536.5" y="-2175" width="170" height="70" as="geometry" />
        </mxCell>
        <mxCell id="1CUIqOdQTPRliHLXxzgB-530" value="" style="endArrow=classic;html=1;rounded=0;" parent="1" edge="1">
          <mxGeometry width="50" height="50" relative="1" as="geometry">
            <mxPoint x="-4446.5" y="-2215" as="sourcePoint" />
            <mxPoint x="-4446.5" y="-2275" as="targetPoint" />
          </mxGeometry>
        </mxCell>
        <mxCell id="1CUIqOdQTPRliHLXxzgB-531" value="&lt;span style=&quot;font-size: 50px;&quot;&gt;index6&lt;/span&gt;" style="text;html=1;align=center;verticalAlign=middle;whiteSpace=wrap;rounded=0;" parent="1" vertex="1">
          <mxGeometry x="-3687.5" y="-2175" width="170" height="70" as="geometry" />
        </mxCell>
        <mxCell id="1CUIqOdQTPRliHLXxzgB-532" value="" style="endArrow=classic;html=1;rounded=0;" parent="1" edge="1">
          <mxGeometry width="50" height="50" relative="1" as="geometry">
            <mxPoint x="-3597.5" y="-2215" as="sourcePoint" />
            <mxPoint x="-3597.5" y="-2275" as="targetPoint" />
          </mxGeometry>
        </mxCell>
        <mxCell id="1CUIqOdQTPRliHLXxzgB-534" value="" style="endArrow=classic;html=1;rounded=0;" parent="1" edge="1">
          <mxGeometry width="50" height="50" relative="1" as="geometry">
            <mxPoint x="-3322.5" y="-2215" as="sourcePoint" />
            <mxPoint x="-3322.5" y="-2275" as="targetPoint" />
          </mxGeometry>
        </mxCell>
        <mxCell id="1CUIqOdQTPRliHLXxzgB-535" value="&lt;span style=&quot;font-size: 50px;&quot;&gt;index8&lt;/span&gt;" style="text;html=1;align=center;verticalAlign=middle;whiteSpace=wrap;rounded=0;" parent="1" vertex="1">
          <mxGeometry x="-2821.5" y="-2175" width="170" height="70" as="geometry" />
        </mxCell>
        <mxCell id="1CUIqOdQTPRliHLXxzgB-536" value="" style="endArrow=classic;html=1;rounded=0;" parent="1" edge="1">
          <mxGeometry width="50" height="50" relative="1" as="geometry">
            <mxPoint x="-2731.5" y="-2215" as="sourcePoint" />
            <mxPoint x="-2731.5" y="-2275" as="targetPoint" />
          </mxGeometry>
        </mxCell>
        <mxCell id="1CUIqOdQTPRliHLXxzgB-537" value="&lt;span style=&quot;font-size: 50px;&quot;&gt;index9&lt;/span&gt;" style="text;html=1;align=center;verticalAlign=middle;whiteSpace=wrap;rounded=0;" parent="1" vertex="1">
          <mxGeometry x="-2537.5" y="-2175" width="170" height="70" as="geometry" />
        </mxCell>
        <mxCell id="1CUIqOdQTPRliHLXxzgB-538" value="" style="endArrow=classic;html=1;rounded=0;" parent="1" edge="1">
          <mxGeometry width="50" height="50" relative="1" as="geometry">
            <mxPoint x="-2447.5" y="-2215" as="sourcePoint" />
            <mxPoint x="-2447.5" y="-2275" as="targetPoint" />
          </mxGeometry>
        </mxCell>
        <mxCell id="1CUIqOdQTPRliHLXxzgB-539" value="&lt;span style=&quot;font-size: 50px;&quot;&gt;index5&lt;/span&gt;" style="text;html=1;align=center;verticalAlign=middle;whiteSpace=wrap;rounded=0;" parent="1" vertex="1">
          <mxGeometry x="-3955.5" y="-2170" width="170" height="70" as="geometry" />
        </mxCell>
        <mxCell id="1CUIqOdQTPRliHLXxzgB-540" value="" style="endArrow=classic;html=1;rounded=0;" parent="1" edge="1">
          <mxGeometry width="50" height="50" relative="1" as="geometry">
            <mxPoint x="-3865.5" y="-2210" as="sourcePoint" />
            <mxPoint x="-3865.5" y="-2270" as="targetPoint" />
          </mxGeometry>
        </mxCell>
        <mxCell id="1CUIqOdQTPRliHLXxzgB-541" value="&lt;span style=&quot;font-size: 35px;&quot;&gt;z&lt;/span&gt;" style="rounded=0;whiteSpace=wrap;html=1;fillColor=#0050ef;strokeColor=#001DBC;fontColor=#ffffff;" parent="1" vertex="1">
          <mxGeometry x="-3292.5" y="-2335" width="60" height="60" as="geometry" />
        </mxCell>
        <mxCell id="1CUIqOdQTPRliHLXxzgB-542" value="&lt;span style=&quot;font-size: 35px;&quot;&gt;!&lt;/span&gt;" style="rounded=0;whiteSpace=wrap;html=1;fillColor=#0050ef;strokeColor=#001DBC;fontColor=#ffffff;" parent="1" vertex="1">
          <mxGeometry x="-3232.5" y="-2335" width="60" height="60" as="geometry" />
        </mxCell>
        <mxCell id="1CUIqOdQTPRliHLXxzgB-543" value="" style="rounded=0;whiteSpace=wrap;html=1;" parent="1" vertex="1">
          <mxGeometry x="-6107.5" y="-1965" width="4090" height="60" as="geometry" />
        </mxCell>
        <mxCell id="1CUIqOdQTPRliHLXxzgB-544" value="" style="rounded=0;whiteSpace=wrap;html=1;fillColor=#008a00;fontColor=#ffffff;strokeColor=#005700;" parent="1" vertex="1">
          <mxGeometry x="-6037.5" y="-1965" width="200" height="60" as="geometry" />
        </mxCell>
        <mxCell id="1CUIqOdQTPRliHLXxzgB-545" value="&lt;span style=&quot;font-size: 35px;&quot;&gt;!&lt;/span&gt;" style="rounded=0;whiteSpace=wrap;html=1;fillColor=#fff2cc;strokeColor=#d6b656;" parent="1" vertex="1">
          <mxGeometry x="-5507.5" y="-1965" width="60" height="60" as="geometry" />
        </mxCell>
        <mxCell id="1CUIqOdQTPRliHLXxzgB-546" value="&lt;font style=&quot;font-size: 50px;&quot;&gt;Head&lt;br&gt;y&lt;/font&gt;" style="text;html=1;align=center;verticalAlign=middle;whiteSpace=wrap;rounded=0;" parent="1" vertex="1">
          <mxGeometry x="-5617.5" y="-1805" width="170" height="70" as="geometry" />
        </mxCell>
        <mxCell id="1CUIqOdQTPRliHLXxzgB-547" value="" style="rounded=0;whiteSpace=wrap;html=1;" parent="1" vertex="1">
          <mxGeometry x="-5387.5" y="-1965" width="180" height="60" as="geometry" />
        </mxCell>
        <mxCell id="1CUIqOdQTPRliHLXxzgB-548" value="&lt;span style=&quot;font-size: 35px;&quot;&gt;X&lt;/span&gt;" style="rounded=0;whiteSpace=wrap;html=1;fillColor=#fff2cc;strokeColor=#d6b656;" parent="1" vertex="1">
          <mxGeometry x="-5447.5" y="-1965" width="60" height="60" as="geometry" />
        </mxCell>
        <mxCell id="1CUIqOdQTPRliHLXxzgB-549" value="&lt;span style=&quot;font-size: 35px;&quot;&gt;md&lt;/span&gt;" style="rounded=0;whiteSpace=wrap;html=1;fillColor=#fff2cc;strokeColor=#d6b656;" parent="1" vertex="1">
          <mxGeometry x="-5567.5" y="-1965" width="60" height="60" as="geometry" />
        </mxCell>
        <mxCell id="1CUIqOdQTPRliHLXxzgB-550" value="" style="endArrow=classic;html=1;rounded=0;" parent="1" edge="1">
          <mxGeometry width="50" height="50" relative="1" as="geometry">
            <mxPoint x="-5527.5" y="-1845" as="sourcePoint" />
            <mxPoint x="-5527.5" y="-1905" as="targetPoint" />
          </mxGeometry>
        </mxCell>
        <mxCell id="1CUIqOdQTPRliHLXxzgB-551" value="&lt;span style=&quot;font-size: 50px;&quot;&gt;break&lt;/span&gt;" style="text;html=1;align=center;verticalAlign=middle;whiteSpace=wrap;rounded=0;" parent="1" vertex="1">
          <mxGeometry x="-2177.5" y="-1815" width="170" height="70" as="geometry" />
        </mxCell>
        <mxCell id="1CUIqOdQTPRliHLXxzgB-552" value="&lt;font style=&quot;font-size: 35px;&quot;&gt;md&lt;/font&gt;" style="rounded=0;whiteSpace=wrap;html=1;fillColor=#fff2cc;strokeColor=#d6b656;" parent="1" vertex="1">
          <mxGeometry x="-6107.5" y="-1965" width="70" height="60" as="geometry" />
        </mxCell>
        <mxCell id="1CUIqOdQTPRliHLXxzgB-553" value="" style="endArrow=classic;html=1;rounded=0;" parent="1" edge="1">
          <mxGeometry width="50" height="50" relative="1" as="geometry">
            <mxPoint x="-2098.5" y="-1835" as="sourcePoint" />
            <mxPoint x="-2098.5" y="-1895" as="targetPoint" />
          </mxGeometry>
        </mxCell>
        <mxCell id="1CUIqOdQTPRliHLXxzgB-554" value="" style="rounded=0;whiteSpace=wrap;html=1;fillColor=#fff2cc;strokeColor=#d6b656;" parent="1" vertex="1">
          <mxGeometry x="-2127.5" y="-1965" width="60" height="60" as="geometry" />
        </mxCell>
        <mxCell id="1CUIqOdQTPRliHLXxzgB-562" value="" style="rounded=0;whiteSpace=wrap;html=1;fillColor=#008a00;fontColor=#ffffff;strokeColor=#005700;" parent="1" vertex="1">
          <mxGeometry x="-3341.5" y="-1965" width="200" height="60" as="geometry" />
        </mxCell>
        <mxCell id="1CUIqOdQTPRliHLXxzgB-563" value="&lt;font style=&quot;font-size: 35px;&quot;&gt;md&lt;/font&gt;" style="rounded=0;whiteSpace=wrap;html=1;fillColor=#fff2cc;strokeColor=#d6b656;" parent="1" vertex="1">
          <mxGeometry x="-3411.5" y="-1965" width="70" height="60" as="geometry" />
        </mxCell>
        <mxCell id="1CUIqOdQTPRliHLXxzgB-564" value="&lt;span style=&quot;font-size: 35px;&quot;&gt;x&lt;/span&gt;" style="rounded=0;whiteSpace=wrap;html=1;fillColor=#0050ef;strokeColor=#001DBC;fontColor=#ffffff;" parent="1" vertex="1">
          <mxGeometry x="-3077.5" y="-1965" width="60" height="60" as="geometry" />
        </mxCell>
        <mxCell id="1CUIqOdQTPRliHLXxzgB-565" value="&lt;font style=&quot;font-size: 50px;&quot;&gt;Tail&lt;br&gt;a&lt;/font&gt;" style="text;html=1;align=center;verticalAlign=middle;whiteSpace=wrap;rounded=0;" parent="1" vertex="1">
          <mxGeometry x="-3187.5" y="-1805" width="170" height="70" as="geometry" />
        </mxCell>
        <mxCell id="1CUIqOdQTPRliHLXxzgB-566" value="" style="rounded=0;whiteSpace=wrap;html=1;" parent="1" vertex="1">
          <mxGeometry x="-2957.5" y="-1965" width="140" height="60" as="geometry" />
        </mxCell>
        <mxCell id="1CUIqOdQTPRliHLXxzgB-567" value="&lt;span style=&quot;font-size: 35px;&quot;&gt;!&lt;/span&gt;" style="rounded=0;whiteSpace=wrap;html=1;fillColor=#fff2cc;strokeColor=#d6b656;" parent="1" vertex="1">
          <mxGeometry x="-3017.5" y="-1965" width="60" height="60" as="geometry" />
        </mxCell>
        <mxCell id="1CUIqOdQTPRliHLXxzgB-568" value="&lt;span style=&quot;font-size: 35px;&quot;&gt;md&lt;/span&gt;" style="rounded=0;whiteSpace=wrap;html=1;fillColor=#fff2cc;strokeColor=#d6b656;" parent="1" vertex="1">
          <mxGeometry x="-3137.5" y="-1965" width="60" height="60" as="geometry" />
        </mxCell>
        <mxCell id="1CUIqOdQTPRliHLXxzgB-569" value="" style="endArrow=classic;html=1;rounded=0;" parent="1" edge="1">
          <mxGeometry width="50" height="50" relative="1" as="geometry">
            <mxPoint x="-3097.5" y="-1845" as="sourcePoint" />
            <mxPoint x="-3097.5" y="-1905" as="targetPoint" />
          </mxGeometry>
        </mxCell>
        <mxCell id="1CUIqOdQTPRliHLXxzgB-570" value="" style="rounded=0;whiteSpace=wrap;html=1;fillColor=#008a00;fontColor=#ffffff;strokeColor=#005700;" parent="1" vertex="1">
          <mxGeometry x="-5767.5" y="-1965" width="200" height="60" as="geometry" />
        </mxCell>
        <mxCell id="1CUIqOdQTPRliHLXxzgB-571" value="&lt;font style=&quot;font-size: 35px;&quot;&gt;md&lt;/font&gt;" style="rounded=0;whiteSpace=wrap;html=1;fillColor=#fff2cc;strokeColor=#d6b656;" parent="1" vertex="1">
          <mxGeometry x="-5837.5" y="-1965" width="70" height="60" as="geometry" />
        </mxCell>
        <mxCell id="1CUIqOdQTPRliHLXxzgB-572" value="" style="rounded=0;whiteSpace=wrap;html=1;fillColor=#008a00;fontColor=#ffffff;strokeColor=#005700;" parent="1" vertex="1">
          <mxGeometry x="-2747.5" y="-1965" width="200" height="60" as="geometry" />
        </mxCell>
        <mxCell id="1CUIqOdQTPRliHLXxzgB-573" value="&lt;font style=&quot;font-size: 35px;&quot;&gt;md&lt;/font&gt;" style="rounded=0;whiteSpace=wrap;html=1;fillColor=#fff2cc;strokeColor=#d6b656;" parent="1" vertex="1">
          <mxGeometry x="-2817.5" y="-1965" width="70" height="60" as="geometry" />
        </mxCell>
        <mxCell id="1CUIqOdQTPRliHLXxzgB-574" value="" style="rounded=0;whiteSpace=wrap;html=1;fillColor=#008a00;fontColor=#ffffff;strokeColor=#005700;" parent="1" vertex="1">
          <mxGeometry x="-2477.5" y="-1965" width="350" height="60" as="geometry" />
        </mxCell>
        <mxCell id="1CUIqOdQTPRliHLXxzgB-575" value="&lt;font style=&quot;font-size: 35px;&quot;&gt;md&lt;/font&gt;" style="rounded=0;whiteSpace=wrap;html=1;fillColor=#fff2cc;strokeColor=#d6b656;" parent="1" vertex="1">
          <mxGeometry x="-2547.5" y="-1965" width="70" height="60" as="geometry" />
        </mxCell>
        <mxCell id="1CUIqOdQTPRliHLXxzgB-576" value="&lt;span style=&quot;font-size: 35px;&quot;&gt;y&lt;/span&gt;" style="rounded=0;whiteSpace=wrap;html=1;fillColor=#fff2cc;strokeColor=#d6b656;" parent="1" vertex="1">
          <mxGeometry x="-4881.5" y="-1965" width="60" height="60" as="geometry" />
        </mxCell>
        <mxCell id="1CUIqOdQTPRliHLXxzgB-578" value="&lt;span style=&quot;font-size: 35px;&quot;&gt;a&lt;/span&gt;" style="rounded=0;whiteSpace=wrap;html=1;fillColor=#0050ef;strokeColor=#001DBC;fontColor=#ffffff;" parent="1" vertex="1">
          <mxGeometry x="-4821.5" y="-1965" width="60" height="60" as="geometry" />
        </mxCell>
        <mxCell id="1CUIqOdQTPRliHLXxzgB-579" value="" style="endArrow=classic;html=1;rounded=0;" parent="1" edge="1">
          <mxGeometry width="50" height="50" relative="1" as="geometry">
            <mxPoint x="-4901.5" y="-1845" as="sourcePoint" />
            <mxPoint x="-4901.5" y="-1905" as="targetPoint" />
          </mxGeometry>
        </mxCell>
        <mxCell id="1CUIqOdQTPRliHLXxzgB-580" value="&lt;font style=&quot;font-size: 35px;&quot;&gt;X&lt;/font&gt;" style="text;html=1;align=center;verticalAlign=middle;whiteSpace=wrap;rounded=0;" parent="1" vertex="1">
          <mxGeometry x="-4987.5" y="-1840" width="170" height="70" as="geometry" />
        </mxCell>
        <mxCell id="1CUIqOdQTPRliHLXxzgB-581" value="&lt;span style=&quot;font-size: 35px;&quot;&gt;md&lt;/span&gt;" style="rounded=0;whiteSpace=wrap;html=1;fillColor=#0050ef;strokeColor=#001DBC;fontColor=#ffffff;" parent="1" vertex="1">
          <mxGeometry x="-4941.5" y="-1965" width="60" height="60" as="geometry" />
        </mxCell>
        <mxCell id="1CUIqOdQTPRliHLXxzgB-582" value="" style="rounded=0;whiteSpace=wrap;html=1;fillColor=#008a00;fontColor=#ffffff;strokeColor=#005700;" parent="1" vertex="1">
          <mxGeometry x="-5137.5" y="-1965" width="200" height="60" as="geometry" />
        </mxCell>
        <mxCell id="1CUIqOdQTPRliHLXxzgB-583" value="&lt;font style=&quot;font-size: 35px;&quot;&gt;md&lt;/font&gt;" style="rounded=0;whiteSpace=wrap;html=1;fillColor=#fff2cc;strokeColor=#d6b656;" parent="1" vertex="1">
          <mxGeometry x="-5207.5" y="-1965" width="70" height="60" as="geometry" />
        </mxCell>
        <mxCell id="1CUIqOdQTPRliHLXxzgB-584" value="" style="rounded=0;whiteSpace=wrap;html=1;fillColor=#008a00;fontColor=#ffffff;strokeColor=#005700;" parent="1" vertex="1">
          <mxGeometry x="-3886.5" y="-1965" width="200" height="60" as="geometry" />
        </mxCell>
        <mxCell id="1CUIqOdQTPRliHLXxzgB-585" value="&lt;font style=&quot;font-size: 35px;&quot;&gt;md&lt;/font&gt;" style="rounded=0;whiteSpace=wrap;html=1;fillColor=#fff2cc;strokeColor=#d6b656;" parent="1" vertex="1">
          <mxGeometry x="-3956.5" y="-1965" width="70" height="60" as="geometry" />
        </mxCell>
        <mxCell id="1CUIqOdQTPRliHLXxzgB-586" value="" style="rounded=0;whiteSpace=wrap;html=1;fillColor=#008a00;fontColor=#ffffff;strokeColor=#005700;" parent="1" vertex="1">
          <mxGeometry x="-3616.5" y="-1965" width="200" height="60" as="geometry" />
        </mxCell>
        <mxCell id="1CUIqOdQTPRliHLXxzgB-587" value="&lt;font style=&quot;font-size: 35px;&quot;&gt;md&lt;/font&gt;" style="rounded=0;whiteSpace=wrap;html=1;fillColor=#fff2cc;strokeColor=#d6b656;" parent="1" vertex="1">
          <mxGeometry x="-3686.5" y="-1965" width="70" height="60" as="geometry" />
        </mxCell>
        <mxCell id="1CUIqOdQTPRliHLXxzgB-588" value="&lt;span style=&quot;font-size: 50px;&quot;&gt;index1&lt;/span&gt;" style="text;html=1;align=center;verticalAlign=middle;whiteSpace=wrap;rounded=0;" parent="1" vertex="1">
          <mxGeometry x="-6167.5" y="-1805" width="170" height="70" as="geometry" />
        </mxCell>
        <mxCell id="1CUIqOdQTPRliHLXxzgB-589" value="" style="endArrow=classic;html=1;rounded=0;" parent="1" edge="1">
          <mxGeometry width="50" height="50" relative="1" as="geometry">
            <mxPoint x="-6077.5" y="-1845" as="sourcePoint" />
            <mxPoint x="-6077.5" y="-1905" as="targetPoint" />
          </mxGeometry>
        </mxCell>
        <mxCell id="1CUIqOdQTPRliHLXxzgB-590" value="&lt;span style=&quot;font-size: 50px;&quot;&gt;index2&lt;/span&gt;" style="text;html=1;align=center;verticalAlign=middle;whiteSpace=wrap;rounded=0;" parent="1" vertex="1">
          <mxGeometry x="-5887.5" y="-1805" width="170" height="70" as="geometry" />
        </mxCell>
        <mxCell id="1CUIqOdQTPRliHLXxzgB-591" value="" style="endArrow=classic;html=1;rounded=0;" parent="1" edge="1">
          <mxGeometry width="50" height="50" relative="1" as="geometry">
            <mxPoint x="-5797.5" y="-1845" as="sourcePoint" />
            <mxPoint x="-5797.5" y="-1905" as="targetPoint" />
          </mxGeometry>
        </mxCell>
        <mxCell id="1CUIqOdQTPRliHLXxzgB-592" value="&lt;span style=&quot;font-size: 50px;&quot;&gt;index3&lt;/span&gt;" style="text;html=1;align=center;verticalAlign=middle;whiteSpace=wrap;rounded=0;" parent="1" vertex="1">
          <mxGeometry x="-5257.5" y="-1805" width="170" height="70" as="geometry" />
        </mxCell>
        <mxCell id="1CUIqOdQTPRliHLXxzgB-593" value="" style="endArrow=classic;html=1;rounded=0;" parent="1" edge="1">
          <mxGeometry width="50" height="50" relative="1" as="geometry">
            <mxPoint x="-5167.5" y="-1845" as="sourcePoint" />
            <mxPoint x="-5167.5" y="-1905" as="targetPoint" />
          </mxGeometry>
        </mxCell>
        <mxCell id="1CUIqOdQTPRliHLXxzgB-596" value="&lt;span style=&quot;font-size: 50px;&quot;&gt;index6&lt;/span&gt;" style="text;html=1;align=center;verticalAlign=middle;whiteSpace=wrap;rounded=0;" parent="1" vertex="1">
          <mxGeometry x="-3747.5" y="-1805" width="170" height="70" as="geometry" />
        </mxCell>
        <mxCell id="1CUIqOdQTPRliHLXxzgB-597" value="" style="endArrow=classic;html=1;rounded=0;" parent="1" edge="1">
          <mxGeometry width="50" height="50" relative="1" as="geometry">
            <mxPoint x="-3657.5" y="-1845" as="sourcePoint" />
            <mxPoint x="-3657.5" y="-1905" as="targetPoint" />
          </mxGeometry>
        </mxCell>
        <mxCell id="1CUIqOdQTPRliHLXxzgB-598" value="&lt;span style=&quot;font-size: 50px;&quot;&gt;index7&lt;/span&gt;" style="text;html=1;align=center;verticalAlign=middle;whiteSpace=wrap;rounded=0;" parent="1" vertex="1">
          <mxGeometry x="-3461.5" y="-1805" width="170" height="70" as="geometry" />
        </mxCell>
        <mxCell id="1CUIqOdQTPRliHLXxzgB-599" value="" style="endArrow=classic;html=1;rounded=0;" parent="1" edge="1">
          <mxGeometry width="50" height="50" relative="1" as="geometry">
            <mxPoint x="-3371.5" y="-1845" as="sourcePoint" />
            <mxPoint x="-3371.5" y="-1905" as="targetPoint" />
          </mxGeometry>
        </mxCell>
        <mxCell id="1CUIqOdQTPRliHLXxzgB-600" value="&lt;span style=&quot;font-size: 50px;&quot;&gt;index8&lt;/span&gt;" style="text;html=1;align=center;verticalAlign=middle;whiteSpace=wrap;rounded=0;" parent="1" vertex="1">
          <mxGeometry x="-2881.5" y="-1805" width="170" height="70" as="geometry" />
        </mxCell>
        <mxCell id="1CUIqOdQTPRliHLXxzgB-601" value="" style="endArrow=classic;html=1;rounded=0;" parent="1" edge="1">
          <mxGeometry width="50" height="50" relative="1" as="geometry">
            <mxPoint x="-2791.5" y="-1845" as="sourcePoint" />
            <mxPoint x="-2791.5" y="-1905" as="targetPoint" />
          </mxGeometry>
        </mxCell>
        <mxCell id="1CUIqOdQTPRliHLXxzgB-602" value="&lt;span style=&quot;font-size: 50px;&quot;&gt;index9&lt;/span&gt;" style="text;html=1;align=center;verticalAlign=middle;whiteSpace=wrap;rounded=0;" parent="1" vertex="1">
          <mxGeometry x="-2597.5" y="-1805" width="170" height="70" as="geometry" />
        </mxCell>
        <mxCell id="1CUIqOdQTPRliHLXxzgB-603" value="" style="endArrow=classic;html=1;rounded=0;" parent="1" edge="1">
          <mxGeometry width="50" height="50" relative="1" as="geometry">
            <mxPoint x="-2507.5" y="-1845" as="sourcePoint" />
            <mxPoint x="-2507.5" y="-1905" as="targetPoint" />
          </mxGeometry>
        </mxCell>
        <mxCell id="1CUIqOdQTPRliHLXxzgB-604" value="&lt;span style=&quot;font-size: 50px;&quot;&gt;index5&lt;/span&gt;" style="text;html=1;align=center;verticalAlign=middle;whiteSpace=wrap;rounded=0;" parent="1" vertex="1">
          <mxGeometry x="-4015.5" y="-1800" width="170" height="70" as="geometry" />
        </mxCell>
        <mxCell id="1CUIqOdQTPRliHLXxzgB-605" value="" style="endArrow=classic;html=1;rounded=0;" parent="1" edge="1">
          <mxGeometry width="50" height="50" relative="1" as="geometry">
            <mxPoint x="-3925.5" y="-1840" as="sourcePoint" />
            <mxPoint x="-3925.5" y="-1900" as="targetPoint" />
          </mxGeometry>
        </mxCell>
        <mxCell id="1CUIqOdQTPRliHLXxzgB-606" value="" style="rounded=0;whiteSpace=wrap;html=1;" parent="1" vertex="1">
          <mxGeometry x="-6100" y="-1540" width="4090" height="60" as="geometry" />
        </mxCell>
        <mxCell id="1CUIqOdQTPRliHLXxzgB-607" value="" style="rounded=0;whiteSpace=wrap;html=1;fillColor=#008a00;fontColor=#ffffff;strokeColor=#005700;" parent="1" vertex="1">
          <mxGeometry x="-6030" y="-1540" width="200" height="60" as="geometry" />
        </mxCell>
        <mxCell id="1CUIqOdQTPRliHLXxzgB-608" value="&lt;span style=&quot;font-size: 35px;&quot;&gt;!&lt;/span&gt;" style="rounded=0;whiteSpace=wrap;html=1;fillColor=#fff2cc;strokeColor=#d6b656;" parent="1" vertex="1">
          <mxGeometry x="-5500" y="-1540" width="60" height="60" as="geometry" />
        </mxCell>
        <mxCell id="1CUIqOdQTPRliHLXxzgB-609" value="&lt;font style=&quot;font-size: 50px;&quot;&gt;Head&lt;br&gt;y&lt;/font&gt;" style="text;html=1;align=center;verticalAlign=middle;whiteSpace=wrap;rounded=0;" parent="1" vertex="1">
          <mxGeometry x="-5610" y="-1380" width="170" height="70" as="geometry" />
        </mxCell>
        <mxCell id="1CUIqOdQTPRliHLXxzgB-610" value="" style="rounded=0;whiteSpace=wrap;html=1;" parent="1" vertex="1">
          <mxGeometry x="-5380" y="-1540" width="180" height="60" as="geometry" />
        </mxCell>
        <mxCell id="1CUIqOdQTPRliHLXxzgB-611" value="&lt;span style=&quot;font-size: 35px;&quot;&gt;X&lt;/span&gt;" style="rounded=0;whiteSpace=wrap;html=1;fillColor=#fff2cc;strokeColor=#d6b656;" parent="1" vertex="1">
          <mxGeometry x="-5440" y="-1540" width="60" height="60" as="geometry" />
        </mxCell>
        <mxCell id="1CUIqOdQTPRliHLXxzgB-612" value="&lt;span style=&quot;font-size: 35px;&quot;&gt;md&lt;/span&gt;" style="rounded=0;whiteSpace=wrap;html=1;fillColor=#fff2cc;strokeColor=#d6b656;" parent="1" vertex="1">
          <mxGeometry x="-5560" y="-1540" width="60" height="60" as="geometry" />
        </mxCell>
        <mxCell id="1CUIqOdQTPRliHLXxzgB-613" value="" style="endArrow=classic;html=1;rounded=0;" parent="1" edge="1">
          <mxGeometry width="50" height="50" relative="1" as="geometry">
            <mxPoint x="-5520" y="-1420" as="sourcePoint" />
            <mxPoint x="-5520" y="-1480" as="targetPoint" />
          </mxGeometry>
        </mxCell>
        <mxCell id="1CUIqOdQTPRliHLXxzgB-614" value="&lt;span style=&quot;font-size: 50px;&quot;&gt;break&lt;/span&gt;" style="text;html=1;align=center;verticalAlign=middle;whiteSpace=wrap;rounded=0;" parent="1" vertex="1">
          <mxGeometry x="-2170" y="-1390" width="170" height="70" as="geometry" />
        </mxCell>
        <mxCell id="1CUIqOdQTPRliHLXxzgB-615" value="&lt;font style=&quot;font-size: 35px;&quot;&gt;md&lt;/font&gt;" style="rounded=0;whiteSpace=wrap;html=1;fillColor=#fff2cc;strokeColor=#d6b656;" parent="1" vertex="1">
          <mxGeometry x="-6100" y="-1540" width="70" height="60" as="geometry" />
        </mxCell>
        <mxCell id="1CUIqOdQTPRliHLXxzgB-616" value="" style="endArrow=classic;html=1;rounded=0;" parent="1" edge="1">
          <mxGeometry width="50" height="50" relative="1" as="geometry">
            <mxPoint x="-2091" y="-1410" as="sourcePoint" />
            <mxPoint x="-2091" y="-1470" as="targetPoint" />
          </mxGeometry>
        </mxCell>
        <mxCell id="1CUIqOdQTPRliHLXxzgB-617" value="" style="rounded=0;whiteSpace=wrap;html=1;fillColor=#fff2cc;strokeColor=#d6b656;" parent="1" vertex="1">
          <mxGeometry x="-2120" y="-1540" width="60" height="60" as="geometry" />
        </mxCell>
        <mxCell id="1CUIqOdQTPRliHLXxzgB-618" value="" style="rounded=0;whiteSpace=wrap;html=1;fillColor=#008a00;fontColor=#ffffff;strokeColor=#005700;" parent="1" vertex="1">
          <mxGeometry x="-4469" y="-1540" width="200" height="60" as="geometry" />
        </mxCell>
        <mxCell id="1CUIqOdQTPRliHLXxzgB-619" value="&lt;font style=&quot;font-size: 35px;&quot;&gt;md&lt;/font&gt;" style="rounded=0;whiteSpace=wrap;html=1;fillColor=#fff2cc;strokeColor=#d6b656;" parent="1" vertex="1">
          <mxGeometry x="-4539" y="-1540" width="70" height="60" as="geometry" />
        </mxCell>
        <mxCell id="1CUIqOdQTPRliHLXxzgB-620" value="&lt;span style=&quot;font-size: 35px;&quot;&gt;x&lt;/span&gt;" style="rounded=0;whiteSpace=wrap;html=1;fillColor=#fff2cc;strokeColor=#d6b656;" parent="1" vertex="1">
          <mxGeometry x="-4209" y="-1540" width="60" height="60" as="geometry" />
        </mxCell>
        <mxCell id="1CUIqOdQTPRliHLXxzgB-621" value="&lt;span style=&quot;font-size: 35px;&quot;&gt;z&lt;/span&gt;" style="text;html=1;align=center;verticalAlign=middle;whiteSpace=wrap;rounded=0;" parent="1" vertex="1">
          <mxGeometry x="-4319" y="-1380" width="170" height="70" as="geometry" />
        </mxCell>
        <mxCell id="1CUIqOdQTPRliHLXxzgB-622" value="&lt;span style=&quot;font-size: 35px;&quot;&gt;b&lt;/span&gt;" style="rounded=0;whiteSpace=wrap;html=1;fillColor=#0050ef;strokeColor=#001DBC;fontColor=#ffffff;" parent="1" vertex="1">
          <mxGeometry x="-4149" y="-1540" width="60" height="60" as="geometry" />
        </mxCell>
        <mxCell id="1CUIqOdQTPRliHLXxzgB-623" value="&lt;span style=&quot;font-size: 35px;&quot;&gt;md&lt;/span&gt;" style="rounded=0;whiteSpace=wrap;html=1;fillColor=#fff2cc;strokeColor=#d6b656;" parent="1" vertex="1">
          <mxGeometry x="-4269" y="-1540" width="60" height="60" as="geometry" />
        </mxCell>
        <mxCell id="1CUIqOdQTPRliHLXxzgB-624" value="" style="endArrow=classic;html=1;rounded=0;" parent="1" edge="1">
          <mxGeometry width="50" height="50" relative="1" as="geometry">
            <mxPoint x="-4229" y="-1420" as="sourcePoint" />
            <mxPoint x="-4229" y="-1480" as="targetPoint" />
          </mxGeometry>
        </mxCell>
        <mxCell id="1CUIqOdQTPRliHLXxzgB-625" value="" style="rounded=0;whiteSpace=wrap;html=1;fillColor=#008a00;fontColor=#ffffff;strokeColor=#005700;" parent="1" vertex="1">
          <mxGeometry x="-3334" y="-1540" width="200" height="60" as="geometry" />
        </mxCell>
        <mxCell id="1CUIqOdQTPRliHLXxzgB-626" value="&lt;font style=&quot;font-size: 35px;&quot;&gt;md&lt;/font&gt;" style="rounded=0;whiteSpace=wrap;html=1;fillColor=#fff2cc;strokeColor=#d6b656;" parent="1" vertex="1">
          <mxGeometry x="-3404" y="-1540" width="70" height="60" as="geometry" />
        </mxCell>
        <mxCell id="1CUIqOdQTPRliHLXxzgB-627" value="&lt;span style=&quot;font-size: 35px;&quot;&gt;b&lt;/span&gt;" style="rounded=0;whiteSpace=wrap;html=1;fillColor=#0050ef;strokeColor=#001DBC;fontColor=#ffffff;" parent="1" vertex="1">
          <mxGeometry x="-3070" y="-1540" width="60" height="60" as="geometry" />
        </mxCell>
        <mxCell id="1CUIqOdQTPRliHLXxzgB-628" value="&lt;font style=&quot;font-size: 50px;&quot;&gt;Tail&lt;br&gt;a&lt;/font&gt;" style="text;html=1;align=center;verticalAlign=middle;whiteSpace=wrap;rounded=0;" parent="1" vertex="1">
          <mxGeometry x="-3180" y="-1380" width="170" height="70" as="geometry" />
        </mxCell>
        <mxCell id="1CUIqOdQTPRliHLXxzgB-629" value="" style="rounded=0;whiteSpace=wrap;html=1;" parent="1" vertex="1">
          <mxGeometry x="-2950" y="-1540" width="140" height="60" as="geometry" />
        </mxCell>
        <mxCell id="1CUIqOdQTPRliHLXxzgB-630" value="&lt;span style=&quot;font-size: 35px;&quot;&gt;!&lt;/span&gt;" style="rounded=0;whiteSpace=wrap;html=1;fillColor=#fff2cc;strokeColor=#d6b656;" parent="1" vertex="1">
          <mxGeometry x="-3010" y="-1540" width="60" height="60" as="geometry" />
        </mxCell>
        <mxCell id="1CUIqOdQTPRliHLXxzgB-631" value="&lt;span style=&quot;font-size: 35px;&quot;&gt;md&lt;/span&gt;" style="rounded=0;whiteSpace=wrap;html=1;fillColor=#fff2cc;strokeColor=#d6b656;" parent="1" vertex="1">
          <mxGeometry x="-3130" y="-1540" width="60" height="60" as="geometry" />
        </mxCell>
        <mxCell id="1CUIqOdQTPRliHLXxzgB-632" value="" style="endArrow=classic;html=1;rounded=0;" parent="1" edge="1">
          <mxGeometry width="50" height="50" relative="1" as="geometry">
            <mxPoint x="-3090" y="-1420" as="sourcePoint" />
            <mxPoint x="-3090" y="-1480" as="targetPoint" />
          </mxGeometry>
        </mxCell>
        <mxCell id="1CUIqOdQTPRliHLXxzgB-633" value="" style="rounded=0;whiteSpace=wrap;html=1;fillColor=#008a00;fontColor=#ffffff;strokeColor=#005700;" parent="1" vertex="1">
          <mxGeometry x="-5760" y="-1540" width="200" height="60" as="geometry" />
        </mxCell>
        <mxCell id="1CUIqOdQTPRliHLXxzgB-634" value="&lt;font style=&quot;font-size: 35px;&quot;&gt;md&lt;/font&gt;" style="rounded=0;whiteSpace=wrap;html=1;fillColor=#fff2cc;strokeColor=#d6b656;" parent="1" vertex="1">
          <mxGeometry x="-5830" y="-1540" width="70" height="60" as="geometry" />
        </mxCell>
        <mxCell id="1CUIqOdQTPRliHLXxzgB-635" value="" style="rounded=0;whiteSpace=wrap;html=1;fillColor=#008a00;fontColor=#ffffff;strokeColor=#005700;" parent="1" vertex="1">
          <mxGeometry x="-2740" y="-1540" width="200" height="60" as="geometry" />
        </mxCell>
        <mxCell id="1CUIqOdQTPRliHLXxzgB-636" value="&lt;font style=&quot;font-size: 35px;&quot;&gt;md&lt;/font&gt;" style="rounded=0;whiteSpace=wrap;html=1;fillColor=#fff2cc;strokeColor=#d6b656;" parent="1" vertex="1">
          <mxGeometry x="-2810" y="-1540" width="70" height="60" as="geometry" />
        </mxCell>
        <mxCell id="1CUIqOdQTPRliHLXxzgB-637" value="" style="rounded=0;whiteSpace=wrap;html=1;fillColor=#008a00;fontColor=#ffffff;strokeColor=#005700;" parent="1" vertex="1">
          <mxGeometry x="-2470" y="-1540" width="350" height="60" as="geometry" />
        </mxCell>
        <mxCell id="1CUIqOdQTPRliHLXxzgB-638" value="&lt;font style=&quot;font-size: 35px;&quot;&gt;md&lt;/font&gt;" style="rounded=0;whiteSpace=wrap;html=1;fillColor=#fff2cc;strokeColor=#d6b656;" parent="1" vertex="1">
          <mxGeometry x="-2540" y="-1540" width="70" height="60" as="geometry" />
        </mxCell>
        <mxCell id="1CUIqOdQTPRliHLXxzgB-639" value="&lt;span style=&quot;font-size: 35px;&quot;&gt;y&lt;/span&gt;" style="rounded=0;whiteSpace=wrap;html=1;fillColor=#fff2cc;strokeColor=#d6b656;" parent="1" vertex="1">
          <mxGeometry x="-4874" y="-1540" width="60" height="60" as="geometry" />
        </mxCell>
        <mxCell id="1CUIqOdQTPRliHLXxzgB-640" value="" style="rounded=0;whiteSpace=wrap;html=1;" parent="1" vertex="1">
          <mxGeometry x="-4754" y="-1540" width="210" height="60" as="geometry" />
        </mxCell>
        <mxCell id="1CUIqOdQTPRliHLXxzgB-641" value="&lt;span style=&quot;font-size: 35px;&quot;&gt;z&lt;/span&gt;" style="rounded=0;whiteSpace=wrap;html=1;fillColor=#fff2cc;strokeColor=#d6b656;" parent="1" vertex="1">
          <mxGeometry x="-4814" y="-1540" width="60" height="60" as="geometry" />
        </mxCell>
        <mxCell id="1CUIqOdQTPRliHLXxzgB-642" value="" style="endArrow=classic;html=1;rounded=0;" parent="1" edge="1">
          <mxGeometry width="50" height="50" relative="1" as="geometry">
            <mxPoint x="-4894" y="-1420" as="sourcePoint" />
            <mxPoint x="-4894" y="-1480" as="targetPoint" />
          </mxGeometry>
        </mxCell>
        <mxCell id="1CUIqOdQTPRliHLXxzgB-643" value="&lt;font style=&quot;font-size: 35px;&quot;&gt;X&lt;/font&gt;" style="text;html=1;align=center;verticalAlign=middle;whiteSpace=wrap;rounded=0;" parent="1" vertex="1">
          <mxGeometry x="-4980" y="-1415" width="170" height="70" as="geometry" />
        </mxCell>
        <mxCell id="1CUIqOdQTPRliHLXxzgB-644" value="&lt;span style=&quot;font-size: 35px;&quot;&gt;md&lt;/span&gt;" style="rounded=0;whiteSpace=wrap;html=1;fillColor=#fff2cc;strokeColor=#d6b656;" parent="1" vertex="1">
          <mxGeometry x="-4934" y="-1540" width="60" height="60" as="geometry" />
        </mxCell>
        <mxCell id="1CUIqOdQTPRliHLXxzgB-645" value="" style="rounded=0;whiteSpace=wrap;html=1;fillColor=#008a00;fontColor=#ffffff;strokeColor=#005700;" parent="1" vertex="1">
          <mxGeometry x="-5130" y="-1540" width="200" height="60" as="geometry" />
        </mxCell>
        <mxCell id="1CUIqOdQTPRliHLXxzgB-646" value="&lt;font style=&quot;font-size: 35px;&quot;&gt;md&lt;/font&gt;" style="rounded=0;whiteSpace=wrap;html=1;fillColor=#fff2cc;strokeColor=#d6b656;" parent="1" vertex="1">
          <mxGeometry x="-5200" y="-1540" width="70" height="60" as="geometry" />
        </mxCell>
        <mxCell id="1CUIqOdQTPRliHLXxzgB-647" value="" style="rounded=0;whiteSpace=wrap;html=1;fillColor=#008a00;fontColor=#ffffff;strokeColor=#005700;" parent="1" vertex="1">
          <mxGeometry x="-3879" y="-1540" width="200" height="60" as="geometry" />
        </mxCell>
        <mxCell id="1CUIqOdQTPRliHLXxzgB-648" value="&lt;font style=&quot;font-size: 35px;&quot;&gt;md&lt;/font&gt;" style="rounded=0;whiteSpace=wrap;html=1;fillColor=#fff2cc;strokeColor=#d6b656;" parent="1" vertex="1">
          <mxGeometry x="-3949" y="-1540" width="70" height="60" as="geometry" />
        </mxCell>
        <mxCell id="1CUIqOdQTPRliHLXxzgB-651" value="&lt;span style=&quot;font-size: 50px;&quot;&gt;index1&lt;/span&gt;" style="text;html=1;align=center;verticalAlign=middle;whiteSpace=wrap;rounded=0;" parent="1" vertex="1">
          <mxGeometry x="-6160" y="-1380" width="170" height="70" as="geometry" />
        </mxCell>
        <mxCell id="1CUIqOdQTPRliHLXxzgB-652" value="" style="endArrow=classic;html=1;rounded=0;" parent="1" edge="1">
          <mxGeometry width="50" height="50" relative="1" as="geometry">
            <mxPoint x="-6070" y="-1420" as="sourcePoint" />
            <mxPoint x="-6070" y="-1480" as="targetPoint" />
          </mxGeometry>
        </mxCell>
        <mxCell id="1CUIqOdQTPRliHLXxzgB-653" value="&lt;span style=&quot;font-size: 50px;&quot;&gt;index2&lt;/span&gt;" style="text;html=1;align=center;verticalAlign=middle;whiteSpace=wrap;rounded=0;" parent="1" vertex="1">
          <mxGeometry x="-5880" y="-1380" width="170" height="70" as="geometry" />
        </mxCell>
        <mxCell id="1CUIqOdQTPRliHLXxzgB-654" value="" style="endArrow=classic;html=1;rounded=0;" parent="1" edge="1">
          <mxGeometry width="50" height="50" relative="1" as="geometry">
            <mxPoint x="-5790" y="-1420" as="sourcePoint" />
            <mxPoint x="-5790" y="-1480" as="targetPoint" />
          </mxGeometry>
        </mxCell>
        <mxCell id="1CUIqOdQTPRliHLXxzgB-655" value="&lt;span style=&quot;font-size: 50px;&quot;&gt;index3&lt;/span&gt;" style="text;html=1;align=center;verticalAlign=middle;whiteSpace=wrap;rounded=0;" parent="1" vertex="1">
          <mxGeometry x="-5250" y="-1380" width="170" height="70" as="geometry" />
        </mxCell>
        <mxCell id="1CUIqOdQTPRliHLXxzgB-656" value="" style="endArrow=classic;html=1;rounded=0;" parent="1" edge="1">
          <mxGeometry width="50" height="50" relative="1" as="geometry">
            <mxPoint x="-5160" y="-1420" as="sourcePoint" />
            <mxPoint x="-5160" y="-1480" as="targetPoint" />
          </mxGeometry>
        </mxCell>
        <mxCell id="1CUIqOdQTPRliHLXxzgB-657" value="&lt;span style=&quot;font-size: 50px;&quot;&gt;index4&lt;/span&gt;" style="text;html=1;align=center;verticalAlign=middle;whiteSpace=wrap;rounded=0;" parent="1" vertex="1">
          <mxGeometry x="-4589" y="-1380" width="170" height="70" as="geometry" />
        </mxCell>
        <mxCell id="1CUIqOdQTPRliHLXxzgB-658" value="" style="endArrow=classic;html=1;rounded=0;" parent="1" edge="1">
          <mxGeometry width="50" height="50" relative="1" as="geometry">
            <mxPoint x="-4499" y="-1420" as="sourcePoint" />
            <mxPoint x="-4499" y="-1480" as="targetPoint" />
          </mxGeometry>
        </mxCell>
        <mxCell id="1CUIqOdQTPRliHLXxzgB-661" value="&lt;span style=&quot;font-size: 50px;&quot;&gt;index7&lt;/span&gt;" style="text;html=1;align=center;verticalAlign=middle;whiteSpace=wrap;rounded=0;" parent="1" vertex="1">
          <mxGeometry x="-3454" y="-1380" width="170" height="70" as="geometry" />
        </mxCell>
        <mxCell id="1CUIqOdQTPRliHLXxzgB-662" value="" style="endArrow=classic;html=1;rounded=0;" parent="1" edge="1">
          <mxGeometry width="50" height="50" relative="1" as="geometry">
            <mxPoint x="-3364" y="-1420" as="sourcePoint" />
            <mxPoint x="-3364" y="-1480" as="targetPoint" />
          </mxGeometry>
        </mxCell>
        <mxCell id="1CUIqOdQTPRliHLXxzgB-663" value="&lt;span style=&quot;font-size: 50px;&quot;&gt;index8&lt;/span&gt;" style="text;html=1;align=center;verticalAlign=middle;whiteSpace=wrap;rounded=0;" parent="1" vertex="1">
          <mxGeometry x="-2874" y="-1380" width="170" height="70" as="geometry" />
        </mxCell>
        <mxCell id="1CUIqOdQTPRliHLXxzgB-664" value="" style="endArrow=classic;html=1;rounded=0;" parent="1" edge="1">
          <mxGeometry width="50" height="50" relative="1" as="geometry">
            <mxPoint x="-2784" y="-1420" as="sourcePoint" />
            <mxPoint x="-2784" y="-1480" as="targetPoint" />
          </mxGeometry>
        </mxCell>
        <mxCell id="1CUIqOdQTPRliHLXxzgB-665" value="&lt;span style=&quot;font-size: 50px;&quot;&gt;index9&lt;/span&gt;" style="text;html=1;align=center;verticalAlign=middle;whiteSpace=wrap;rounded=0;" parent="1" vertex="1">
          <mxGeometry x="-2590" y="-1380" width="170" height="70" as="geometry" />
        </mxCell>
        <mxCell id="1CUIqOdQTPRliHLXxzgB-666" value="" style="endArrow=classic;html=1;rounded=0;" parent="1" edge="1">
          <mxGeometry width="50" height="50" relative="1" as="geometry">
            <mxPoint x="-2500" y="-1420" as="sourcePoint" />
            <mxPoint x="-2500" y="-1480" as="targetPoint" />
          </mxGeometry>
        </mxCell>
        <mxCell id="1CUIqOdQTPRliHLXxzgB-667" value="&lt;span style=&quot;font-size: 50px;&quot;&gt;index5&lt;/span&gt;" style="text;html=1;align=center;verticalAlign=middle;whiteSpace=wrap;rounded=0;" parent="1" vertex="1">
          <mxGeometry x="-4008" y="-1375" width="170" height="70" as="geometry" />
        </mxCell>
        <mxCell id="1CUIqOdQTPRliHLXxzgB-668" value="" style="endArrow=classic;html=1;rounded=0;" parent="1" edge="1">
          <mxGeometry width="50" height="50" relative="1" as="geometry">
            <mxPoint x="-3918" y="-1415" as="sourcePoint" />
            <mxPoint x="-3918" y="-1475" as="targetPoint" />
          </mxGeometry>
        </mxCell>
        <mxCell id="1CUIqOdQTPRliHLXxzgB-669" value="&lt;font style=&quot;font-size: 35px;&quot;&gt;md&lt;/font&gt;" style="rounded=0;whiteSpace=wrap;html=1;fillColor=#0050ef;strokeColor=#001DBC;fontColor=#ffffff;" parent="1" vertex="1">
          <mxGeometry x="-3680" y="-1540" width="70" height="60" as="geometry" />
        </mxCell>
        <mxCell id="1CUIqOdQTPRliHLXxzgB-670" value="&lt;span style=&quot;font-size: 50px;&quot;&gt;b&lt;/span&gt;" style="text;html=1;align=center;verticalAlign=middle;whiteSpace=wrap;rounded=0;fillColor=#0050ef;fontColor=#ffffff;strokeColor=#001DBC;" parent="1" vertex="1">
          <mxGeometry x="-3719" y="-1375" width="153" height="105" as="geometry" />
        </mxCell>
        <mxCell id="1CUIqOdQTPRliHLXxzgB-671" value="" style="endArrow=classic;html=1;rounded=0;" parent="1" edge="1">
          <mxGeometry width="50" height="50" relative="1" as="geometry">
            <mxPoint x="-3640" y="-1420" as="sourcePoint" />
            <mxPoint x="-3640" y="-1480" as="targetPoint" />
          </mxGeometry>
        </mxCell>
        <mxCell id="1CUIqOdQTPRliHLXxzgB-672" value="&lt;span style=&quot;font-size: 35px;&quot;&gt;z&lt;/span&gt;" style="rounded=0;whiteSpace=wrap;html=1;fillColor=#0050ef;strokeColor=#001DBC;fontColor=#ffffff;" parent="1" vertex="1">
          <mxGeometry x="-3610" y="-1540" width="60" height="60" as="geometry" />
        </mxCell>
        <mxCell id="1CUIqOdQTPRliHLXxzgB-673" value="&lt;span style=&quot;font-size: 35px;&quot;&gt;a&lt;/span&gt;" style="rounded=0;whiteSpace=wrap;html=1;fillColor=#0050ef;strokeColor=#001DBC;fontColor=#ffffff;" parent="1" vertex="1">
          <mxGeometry x="-3550" y="-1540" width="60" height="60" as="geometry" />
        </mxCell>
        <mxCell id="1CUIqOdQTPRliHLXxzgB-674" value="&lt;h1 style=&quot;margin-top: 0px; font-size: 45px;&quot;&gt;case 1&lt;/h1&gt;&lt;p&gt;&lt;span style=&quot;font-size: 45px;&quot;&gt;&amp;nbsp; &amp;nbsp;if indexOfptr is pointing to node before head node, there are two scenarios&lt;/span&gt;&lt;/p&gt;&lt;p&gt;&lt;span style=&quot;font-size: 45px;&quot;&gt;&amp;nbsp; &amp;nbsp;1) indexOfptr point to node away from head&lt;/span&gt;&lt;/p&gt;&lt;p&gt;&lt;span style=&quot;font-size: 45px;&quot;&gt;&amp;nbsp; &amp;nbsp;2) indexOfptr point to node just before head from left so we will extend head node to join two adjecent free spaces&lt;/span&gt;&lt;/p&gt;&lt;p&gt;&lt;span style=&quot;font-size: 45px;&quot;&gt;&amp;nbsp; &amp;nbsp;&amp;nbsp;&lt;/span&gt;&lt;/p&gt;" style="text;html=1;whiteSpace=wrap;overflow=hidden;rounded=0;" parent="1" vertex="1">
          <mxGeometry x="-5889" y="-6260" width="2669" height="360" as="geometry" />
        </mxCell>
        <mxCell id="1CUIqOdQTPRliHLXxzgB-675" value="&lt;h1 style=&quot;margin-top: 0px; font-size: 45px;&quot;&gt;case 2&lt;/h1&gt;&lt;p&gt;&lt;span style=&quot;font-size: 45px;&quot;&gt;&amp;nbsp; &amp;nbsp;if indexOfptr is pointing to node after tail node, there are two scenarios&lt;/span&gt;&lt;/p&gt;&lt;p&gt;&lt;span style=&quot;font-size: 45px;&quot;&gt;&amp;nbsp; &amp;nbsp;1) indexOfptr point to node away from tail&lt;/span&gt;&lt;/p&gt;&lt;p&gt;&lt;span style=&quot;font-size: 45px;&quot;&gt;&amp;nbsp; &amp;nbsp;2) indexOfptr point to node just after tail from right so we will extend tail node to join two adjecent free spaces&lt;/span&gt;&lt;/p&gt;&lt;p&gt;&lt;span style=&quot;font-size: 45px;&quot;&gt;&amp;nbsp;&amp;nbsp;&lt;/span&gt;&lt;/p&gt;&lt;p&gt;&lt;span style=&quot;font-size: 45px;&quot;&gt;&amp;nbsp; &amp;nbsp;&amp;nbsp;&lt;/span&gt;&lt;/p&gt;" style="text;html=1;whiteSpace=wrap;overflow=hidden;rounded=0;" parent="1" vertex="1">
          <mxGeometry x="-5917.5" y="-4650" width="2669" height="360" as="geometry" />
        </mxCell>
        <mxCell id="1CUIqOdQTPRliHLXxzgB-676" value="&lt;h1 style=&quot;margin-top: 0px; font-size: 45px;&quot;&gt;case 3&lt;/h1&gt;&lt;p&gt;&lt;br&gt;&lt;/p&gt;&lt;p&gt;&lt;span style=&quot;font-size: 45px;&quot;&gt;&amp;nbsp; &amp;nbsp;1) indexOfptr point to node just after free node(x) from right so we will extend x node to join two adjecent free spaces&lt;/span&gt;&lt;/p&gt;&lt;p&gt;&lt;span style=&quot;font-size: 45px;&quot;&gt;&amp;nbsp;&lt;/span&gt;&lt;span style=&quot;font-size: 45px; background-color: initial;&quot;&gt;&amp;nbsp;&lt;/span&gt;&lt;span style=&quot;font-size: 45px; background-color: initial;&quot;&gt;&amp;nbsp;2) indexOfptr point to node just before free node(y) from left so we will extend y node to join two adjecent free spaces&lt;/span&gt;&lt;/p&gt;&lt;p&gt;&lt;span style=&quot;font-size: 45px;&quot;&gt;&amp;nbsp; &amp;nbsp;3) indexOfptr point to node just after free node(x) and before free node(y) from right so we will extend x,y node to join three adjecent free spaces&lt;br&gt;&lt;/span&gt;&lt;/p&gt;&lt;p&gt;&lt;span style=&quot;font-size: 45px;&quot;&gt;&amp;nbsp; &amp;nbsp;4) indexOfptr point to node away not adjecent for any free node so we willn&#39;t extend and free node&lt;/span&gt;&lt;span style=&quot;font-size: 45px;&quot;&gt;&lt;br&gt;&lt;/span&gt;&lt;/p&gt;&lt;p&gt;&lt;span style=&quot;font-size: 45px;&quot;&gt;&amp;nbsp; &amp;nbsp;&lt;/span&gt;&lt;/p&gt;&lt;p&gt;&lt;span style=&quot;font-size: 45px;&quot;&gt;&amp;nbsp;&amp;nbsp;&lt;/span&gt;&lt;/p&gt;&lt;p&gt;&lt;span style=&quot;font-size: 45px;&quot;&gt;&amp;nbsp; &amp;nbsp;&amp;nbsp;&lt;/span&gt;&lt;/p&gt;" style="text;html=1;whiteSpace=wrap;overflow=hidden;rounded=0;" parent="1" vertex="1">
          <mxGeometry x="-5929.5" y="-3400" width="3079.5" height="490" as="geometry" />
        </mxCell>
        <mxCell id="1CUIqOdQTPRliHLXxzgB-681" style="edgeStyle=orthogonalEdgeStyle;rounded=0;orthogonalLoop=1;jettySize=auto;html=1;entryX=1;entryY=0.5;entryDx=0;entryDy=0;strokeWidth=5;exitX=0.5;exitY=1;exitDx=0;exitDy=0;" parent="1" source="1CUIqOdQTPRliHLXxzgB-678" edge="1">
          <mxGeometry relative="1" as="geometry">
            <mxPoint x="660" y="-6120" as="sourcePoint" />
            <mxPoint x="1700.0000000000018" y="-5300.004999999999" as="targetPoint" />
          </mxGeometry>
        </mxCell>
        <mxCell id="1CUIqOdQTPRliHLXxzgB-682" value="&lt;font style=&quot;font-size: 45px;&quot;&gt;YES&lt;/font&gt;" style="edgeLabel;html=1;align=center;verticalAlign=middle;resizable=0;points=[];" parent="1CUIqOdQTPRliHLXxzgB-681" vertex="1" connectable="0">
          <mxGeometry x="-0.0446" y="3" relative="1" as="geometry">
            <mxPoint as="offset" />
          </mxGeometry>
        </mxCell>
        <mxCell id="1CUIqOdQTPRliHLXxzgB-686" style="edgeStyle=orthogonalEdgeStyle;rounded=0;orthogonalLoop=1;jettySize=auto;html=1;entryX=0;entryY=0.5;entryDx=0;entryDy=0;strokeWidth=5;" parent="1" source="1CUIqOdQTPRliHLXxzgB-678" target="1CUIqOdQTPRliHLXxzgB-685" edge="1">
          <mxGeometry relative="1" as="geometry" />
        </mxCell>
        <mxCell id="1CUIqOdQTPRliHLXxzgB-690" value="Text" style="edgeLabel;html=1;align=center;verticalAlign=middle;resizable=0;points=[];" parent="1CUIqOdQTPRliHLXxzgB-686" vertex="1" connectable="0">
          <mxGeometry x="-0.1444" y="3" relative="1" as="geometry">
            <mxPoint x="2" as="offset" />
          </mxGeometry>
        </mxCell>
        <mxCell id="1CUIqOdQTPRliHLXxzgB-678" value="&lt;font style=&quot;font-size: 45px;&quot;&gt;index &amp;lt; Head&lt;/font&gt;" style="rhombus;whiteSpace=wrap;html=1;" parent="1" vertex="1">
          <mxGeometry x="1559.5" y="-6730" width="347" height="260" as="geometry" />
        </mxCell>
        <mxCell id="1CUIqOdQTPRliHLXxzgB-684" style="edgeStyle=orthogonalEdgeStyle;rounded=0;orthogonalLoop=1;jettySize=auto;html=1;entryX=0.5;entryY=0;entryDx=0;entryDy=0;strokeWidth=5;" parent="1" source="1CUIqOdQTPRliHLXxzgB-680" target="1CUIqOdQTPRliHLXxzgB-683" edge="1">
          <mxGeometry relative="1" as="geometry" />
        </mxCell>
        <mxCell id="1CUIqOdQTPRliHLXxzgB-680" value="&lt;span style=&quot;font-size: 50px;&quot;&gt;case 1&lt;/span&gt;&lt;br&gt;&lt;span style=&quot;font-size: 50px;&quot;&gt;**away from Head**&lt;/span&gt;&lt;br&gt;&lt;div style=&quot;&quot;&gt;&lt;span style=&quot;font-size: 50px;&quot;&gt;&amp;nbsp; &amp;nbsp; &amp;nbsp; if ptr is pointing to node before head node and away from it&lt;/span&gt;&lt;/div&gt;&lt;div style=&quot;&quot;&gt;&lt;span style=&quot;font-size: 50px;&quot;&gt;&amp;nbsp; &amp;nbsp; &amp;nbsp; &amp;nbsp;that : 1- define new node&amp;nbsp;&lt;/span&gt;&lt;/div&gt;&lt;div style=&quot;&quot;&gt;&lt;span style=&quot;font-size: 50px;&quot;&gt;&amp;nbsp; &amp;nbsp; &amp;nbsp; &amp;nbsp; &amp;nbsp; &amp;nbsp; &amp;nbsp; 2- make this node -&amp;gt; previous free space = !&amp;nbsp;&amp;nbsp;&lt;/span&gt;&lt;/div&gt;&lt;div style=&quot;&quot;&gt;&lt;span style=&quot;font-size: 50px;&quot;&gt;&amp;nbsp; &amp;nbsp; &amp;nbsp; &amp;nbsp; &amp;nbsp; &amp;nbsp; &amp;nbsp; 3- this node -&amp;gt; next free space = old head&lt;/span&gt;&lt;/div&gt;&lt;div style=&quot;&quot;&gt;&lt;span style=&quot;font-size: 50px;&quot;&gt;&amp;nbsp; &amp;nbsp; &amp;nbsp; &amp;nbsp; &amp;nbsp; &amp;nbsp; &amp;nbsp; 4- old head -&amp;gt; previous free space = index&lt;/span&gt;&lt;/div&gt;&lt;div style=&quot;&quot;&gt;&lt;span style=&quot;font-size: 50px;&quot;&gt;&amp;nbsp; &amp;nbsp; &amp;nbsp; &amp;nbsp; &amp;nbsp; &amp;nbsp; &amp;nbsp; 5- update head to point to index&lt;br&gt;**adjecent to Head**&lt;br&gt;&lt;div&gt;1- define new metdata for free space to be equal the margin of new free space and head space&lt;/div&gt;&lt;div&gt;2- make this node -&amp;gt; previous free space = !&amp;nbsp;&amp;nbsp;&lt;/div&gt;&lt;div&gt;3- this node -&amp;gt; next free space = old head -&amp;gt; next free space&lt;/div&gt;&lt;div&gt;4- update head to point to index&lt;/div&gt;&lt;/span&gt;&lt;/div&gt;&lt;div style=&quot;&quot;&gt;&lt;span style=&quot;font-size: 50px;&quot;&gt;&amp;nbsp; &amp;nbsp; &amp;nbsp;&lt;/span&gt;&lt;/div&gt;" style="rounded=0;whiteSpace=wrap;html=1;" parent="1" vertex="1">
          <mxGeometry x="633" y="-5300" width="2200" height="898.13" as="geometry" />
        </mxCell>
        <mxCell id="1CUIqOdQTPRliHLXxzgB-683" value="&lt;font style=&quot;font-size: 45px;&quot;&gt;end&lt;/font&gt;" style="ellipse;whiteSpace=wrap;html=1;" parent="1" vertex="1">
          <mxGeometry x="1608" y="-4260" width="250" height="180" as="geometry" />
        </mxCell>
        <mxCell id="1CUIqOdQTPRliHLXxzgB-693" style="edgeStyle=orthogonalEdgeStyle;rounded=0;orthogonalLoop=1;jettySize=auto;html=1;entryX=0.5;entryY=0;entryDx=0;entryDy=0;strokeWidth=5;" parent="1" source="1CUIqOdQTPRliHLXxzgB-685" target="1CUIqOdQTPRliHLXxzgB-692" edge="1">
          <mxGeometry relative="1" as="geometry" />
        </mxCell>
        <mxCell id="1CUIqOdQTPRliHLXxzgB-685" value="&lt;font style=&quot;font-size: 45px;&quot;&gt;index &amp;gt; Tail&lt;/font&gt;" style="rhombus;whiteSpace=wrap;html=1;" parent="1" vertex="1">
          <mxGeometry x="2390" y="-6700" width="280" height="200" as="geometry" />
        </mxCell>
        <mxCell id="1CUIqOdQTPRliHLXxzgB-705" style="edgeStyle=orthogonalEdgeStyle;rounded=0;orthogonalLoop=1;jettySize=auto;html=1;strokeWidth=5;" parent="1" source="1CUIqOdQTPRliHLXxzgB-687" edge="1">
          <mxGeometry relative="1" as="geometry">
            <mxPoint x="4320" y="-7200" as="targetPoint" />
          </mxGeometry>
        </mxCell>
        <mxCell id="1CUIqOdQTPRliHLXxzgB-687" value="&lt;span style=&quot;font-size: 50px;&quot;&gt;case 2&lt;/span&gt;&lt;br&gt;&lt;br&gt;&lt;div style=&quot;&quot;&gt;&lt;span style=&quot;font-size: 50px;&quot;&gt;&amp;nbsp; &amp;nbsp; &amp;nbsp;**away from tail**&lt;/span&gt;&lt;br&gt;&lt;div style=&quot;font-size: 50px;&quot;&gt;1- define new node&lt;/div&gt;&lt;div style=&quot;font-size: 50px;&quot;&gt;2- this node -&amp;gt; previous free space = tail&amp;nbsp;&amp;nbsp;&lt;/div&gt;&lt;div style=&quot;font-size: 50px;&quot;&gt;3- this node -&amp;gt; next free space = !&lt;/div&gt;&lt;div style=&quot;font-size: 50px;&quot;&gt;4- old tail -&amp;gt; next free space = index&lt;/div&gt;&lt;div style=&quot;&quot;&gt;&lt;span style=&quot;font-size: 50px;&quot;&gt;5- update tail to point to index&lt;/span&gt;&lt;br&gt;&lt;span style=&quot;font-size: 50px;&quot;&gt;**adjecent to tail**&lt;/span&gt;&lt;br&gt;&lt;span style=&quot;font-size: 50px;&quot;&gt;redefine new metdata for free space to be equal the margin of new free space and tail space&lt;/span&gt;&lt;br&gt;&lt;/div&gt;&lt;/div&gt;" style="rounded=0;whiteSpace=wrap;html=1;" parent="1" vertex="1">
          <mxGeometry x="3240" y="-6890" width="2230" height="676.25" as="geometry" />
        </mxCell>
        <mxCell id="1CUIqOdQTPRliHLXxzgB-688" style="edgeStyle=orthogonalEdgeStyle;rounded=0;orthogonalLoop=1;jettySize=auto;html=1;entryX=0;entryY=0.434;entryDx=0;entryDy=0;entryPerimeter=0;strokeWidth=5;" parent="1" source="1CUIqOdQTPRliHLXxzgB-685" target="1CUIqOdQTPRliHLXxzgB-687" edge="1">
          <mxGeometry relative="1" as="geometry" />
        </mxCell>
        <mxCell id="1CUIqOdQTPRliHLXxzgB-689" value="&lt;font style=&quot;font-size: 45px;&quot;&gt;Yes&lt;/font&gt;" style="edgeLabel;html=1;align=center;verticalAlign=middle;resizable=0;points=[];" parent="1CUIqOdQTPRliHLXxzgB-688" vertex="1" connectable="0">
          <mxGeometry x="-0.1327" y="-1" relative="1" as="geometry">
            <mxPoint x="-2" as="offset" />
          </mxGeometry>
        </mxCell>
        <mxCell id="1CUIqOdQTPRliHLXxzgB-706" value="&lt;font style=&quot;font-size: 45px;&quot;&gt;No&lt;/font&gt;" style="edgeLabel;html=1;align=center;verticalAlign=middle;resizable=0;points=[];" parent="1CUIqOdQTPRliHLXxzgB-688" vertex="1" connectable="0">
          <mxGeometry x="-0.1327" y="-1" relative="1" as="geometry">
            <mxPoint x="-819" y="-41" as="offset" />
          </mxGeometry>
        </mxCell>
        <mxCell id="1CUIqOdQTPRliHLXxzgB-699" style="edgeStyle=orthogonalEdgeStyle;rounded=0;orthogonalLoop=1;jettySize=auto;html=1;entryX=0.5;entryY=0;entryDx=0;entryDy=0;strokeWidth=5;" parent="1" source="1CUIqOdQTPRliHLXxzgB-692" target="1CUIqOdQTPRliHLXxzgB-698" edge="1">
          <mxGeometry relative="1" as="geometry" />
        </mxCell>
        <mxCell id="1CUIqOdQTPRliHLXxzgB-692" value="&lt;span style=&quot;font-size: 45px; text-align: left;&quot;&gt;away from any freed block&lt;/span&gt;" style="rounded=0;whiteSpace=wrap;html=1;" parent="1" vertex="1">
          <mxGeometry x="2295" y="-6365" width="470" height="140" as="geometry" />
        </mxCell>
        <mxCell id="1CUIqOdQTPRliHLXxzgB-694" style="edgeStyle=orthogonalEdgeStyle;rounded=0;orthogonalLoop=1;jettySize=auto;html=1;exitX=0.5;exitY=1;exitDx=0;exitDy=0;strokeWidth=10;" parent="1" source="1CUIqOdQTPRliHLXxzgB-698" edge="1">
          <mxGeometry relative="1" as="geometry">
            <mxPoint x="2531" y="-5790" as="targetPoint" />
          </mxGeometry>
        </mxCell>
        <mxCell id="1CUIqOdQTPRliHLXxzgB-695" value="&lt;font style=&quot;font-size: 35px;&quot;&gt;Yes&lt;/font&gt;" style="edgeLabel;html=1;align=center;verticalAlign=middle;resizable=0;points=[];" parent="1CUIqOdQTPRliHLXxzgB-694" vertex="1" connectable="0">
          <mxGeometry x="-0.2844" y="-5" relative="1" as="geometry">
            <mxPoint y="1" as="offset" />
          </mxGeometry>
        </mxCell>
        <mxCell id="1CUIqOdQTPRliHLXxzgB-696" style="edgeStyle=orthogonalEdgeStyle;rounded=0;orthogonalLoop=1;jettySize=auto;html=1;entryX=0;entryY=0.5;entryDx=0;entryDy=0;strokeWidth=5;" parent="1" source="1CUIqOdQTPRliHLXxzgB-698" edge="1">
          <mxGeometry relative="1" as="geometry">
            <mxPoint x="2805" y="-6030" as="targetPoint" />
          </mxGeometry>
        </mxCell>
        <mxCell id="1CUIqOdQTPRliHLXxzgB-697" value="&lt;font style=&quot;font-size: 35px;&quot;&gt;No&lt;/font&gt;" style="edgeLabel;html=1;align=center;verticalAlign=middle;resizable=0;points=[];" parent="1CUIqOdQTPRliHLXxzgB-696" vertex="1" connectable="0">
          <mxGeometry x="-0.1259" y="-3" relative="1" as="geometry">
            <mxPoint x="-1" as="offset" />
          </mxGeometry>
        </mxCell>
        <mxCell id="1CUIqOdQTPRliHLXxzgB-698" value="&lt;font style=&quot;font-size: 45px;&quot;&gt;Check Condition&lt;/font&gt;" style="rhombus;whiteSpace=wrap;html=1;" parent="1" vertex="1">
          <mxGeometry x="2390" y="-6130" width="280" height="200" as="geometry" />
        </mxCell>
        <mxCell id="1CUIqOdQTPRliHLXxzgB-701" value="&lt;span style=&quot;font-size: 50px;&quot;&gt;case 3-1&lt;/span&gt;" style="rounded=0;whiteSpace=wrap;html=1;" parent="1" vertex="1">
          <mxGeometry x="2405" y="-5790" width="250" height="140" as="geometry" />
        </mxCell>
        <mxCell id="1CUIqOdQTPRliHLXxzgB-702" value="&lt;span style=&quot;font-size: 50px;&quot;&gt;case 3-2&lt;/span&gt;" style="rounded=0;whiteSpace=wrap;html=1;" parent="1" vertex="1">
          <mxGeometry x="2910" y="-5545" width="250" height="140" as="geometry" />
        </mxCell>
        <mxCell id="1CUIqOdQTPRliHLXxzgB-703" value="&lt;span style=&quot;font-size: 50px;&quot;&gt;case 3-3&lt;/span&gt;" style="rounded=0;whiteSpace=wrap;html=1;" parent="1" vertex="1">
          <mxGeometry x="3411" y="-5300" width="250" height="140" as="geometry" />
        </mxCell>
        <mxCell id="1CUIqOdQTPRliHLXxzgB-704" value="&lt;font style=&quot;font-size: 45px;&quot;&gt;end&lt;/font&gt;" style="ellipse;whiteSpace=wrap;html=1;" parent="1" vertex="1">
          <mxGeometry x="4200" y="-7390" width="250" height="180" as="geometry" />
        </mxCell>
      </root>
    </mxGraphModel>
  </diagram>
</mxfile>
